M48
METRIC,LZ,000.000
;FILE_FORMAT=3:3
;TYPE=PLATED
;Layer: PTH_Through
;EasyEDA v6.5.3, 2022-04-03 23:40:25
;a321ff13c4ce4c21ba8c8ab1f3bc68dd,81413e43fb254311a4bdf48f3ba91f1a,10
;Gerber Generator version 0.2
;Holesize 1 = 0.306 mm
T01C0.306
;Holesize 2 = 0.915 mm
T02C0.915
;Holesize 3 = 1.101 mm
T03C1.101
%
G05
G90
T01
X020556Y108660
X014841Y107584
X027051Y075965
X033837Y110744
X018796Y101192
T02
X009398Y090170
X009398Y087630
X009398Y085090
X009398Y082550
X032131Y097409
X034671Y097409
X018288Y077470
X015748Y077470
X017780Y090170
X017780Y087630
X017780Y085090
X017780Y082550
X016256Y097663
X018796Y097663
X041402Y116332
X041402Y113792
X041402Y111252
X041402Y108712
X041402Y121158
X041402Y123698
X026543Y095123
X024003Y095123
X021531Y130113
X024071Y130114
X026611Y130114
X029151Y130114
T03
X009271Y113157
X009271Y115697
X009271Y118237
X009271Y120777
X009271Y123317
X035560Y091440
X035560Y088900
X035560Y086360
X035560Y083820
X035560Y081280
X030150Y099659
X030150Y095159
X036652Y099659
X036652Y095159
X014275Y099659
X014275Y095159
X020777Y099659
X020777Y095159
M30
