M48
METRIC,LZ,000.000
;FILE_FORMAT=3:3
;TYPE=PLATED
;Layer: PTH_Through
;EasyEDA v6.5.1, 2022-03-12 08:52:27
;6cb43a7882b14878ba6e045dd811a198,81413e43fb254311a4bdf48f3ba91f1a,10
;Gerber Generator version 0.2
;Holesize 1 = 0.306 mm
T01C0.306
;Holesize 2 = 0.915 mm
T02C0.915
;Holesize 3 = 1.101 mm
T03C1.101
%
G05
G90
T01
X039109Y105012
T02
X009271Y090297
X009271Y087757
X009271Y085217
X009271Y082677
X032131Y097409
X034671Y097409
X041910Y110617
X041910Y113157
X019431Y077470
X016891Y077470
X017780Y090170
X017780Y087630
X017780Y085090
X017780Y082550
X016256Y097663
X018796Y097663
X021531Y130113
X024071Y130114
X026611Y130114
X029151Y130114
T03
X009271Y113157
X009271Y115697
X009271Y118237
X009271Y120777
X009271Y123317
X035560Y091440
X035560Y088900
X035560Y086360
X035560Y083820
X035560Y081280
X030150Y099659
X030150Y095159
X036652Y099659
X036652Y095159
X014275Y099659
X014275Y095159
X020777Y099659
X020777Y095159
M30
