G04 Layer: BottomLayer*
G04 EasyEDA v6.5.1, 2022-03-12 08:52:27*
G04 6cb43a7882b14878ba6e045dd811a198,81413e43fb254311a4bdf48f3ba91f1a,10*
G04 Gerber Generator version 0.2*
G04 Scale: 100 percent, Rotated: No, Reflected: No *
G04 Dimensions in millimeters *
G04 leading zeros omitted , absolute positions ,4 integer and 5 decimal *
%FSLAX45Y45*%
%MOMM*%

%ADD10C,0.2540*%
%ADD11C,0.6100*%
%ADD14C,1.5240*%
%ADD15C,1.4986*%
%ADD18C,1.7000*%
%ADD19C,1.8000*%
%ADD21C,1.7780*%

%LPD*%
D10*
X3467102Y9638052D02*
G01*
X3543023Y9638052D01*
X3665222Y9515853D01*
X4114802Y9284103D02*
G01*
X3896972Y9284103D01*
X3665222Y9515853D01*
X3467102Y9689487D02*
G01*
X3467102Y9638052D01*
X3467102Y9689487D02*
G01*
X3467102Y9740897D01*
X3467102Y9740897D02*
G01*
X3467102Y9974577D01*
X4305581Y10813056D01*
X4305581Y11109017D01*
X4241142Y11173457D01*
X3342642Y11173457D01*
X2407109Y13011376D02*
G01*
X2537589Y13141855D01*
X2960829Y13141855D01*
X3204745Y12897939D01*
X3204745Y11775437D01*
X3342642Y11775437D02*
G01*
X3204745Y11775437D01*
X3014982Y9965941D02*
G01*
X3213102Y9767821D01*
X3213102Y9740897D01*
X1427482Y9965941D02*
G01*
X1625602Y9767821D01*
X1625602Y9766297D01*
X3204745Y10373357D02*
G01*
X3204745Y10155704D01*
X3014982Y9965941D01*
X3342642Y10373357D02*
G01*
X3204745Y10373357D01*
X3342642Y11374117D02*
G01*
X3214829Y11374117D01*
X1346202Y10738253D02*
G01*
X1465912Y10738253D01*
X3214829Y11374117D02*
G01*
X3204745Y11374117D01*
X3204568Y11374295D01*
X3204568Y11374295D02*
G01*
X3204568Y11775259D01*
X3204745Y11775437D01*
X927102Y11315697D02*
G01*
X1040005Y11315697D01*
X1040005Y11315697D02*
G01*
X1494589Y10861139D01*
X1465912Y10738253D02*
G01*
X1465912Y10832462D01*
X1494589Y10861139D01*
X1494589Y10861139D02*
G01*
X1530657Y10897207D01*
X2727479Y10897207D01*
X3204568Y11374295D01*
X2153109Y13011299D02*
G01*
X2036295Y13011299D01*
X4114802Y9080091D02*
G01*
X3995092Y9080091D01*
X1943102Y7746997D02*
G01*
X3342210Y7746997D01*
X3669083Y8073870D01*
X3669083Y8889997D01*
X3556002Y8889997D02*
G01*
X3669083Y8889997D01*
X3669083Y8889997D02*
G01*
X3804998Y8889997D01*
X3995092Y9080091D01*
X927102Y10534241D02*
G01*
X1046812Y10534241D01*
X2036295Y13011299D02*
G01*
X1356692Y12331697D01*
X927102Y12331697D01*
X927102Y12331697D02*
G01*
X761418Y12166013D01*
X761418Y11268936D01*
X1046990Y10983363D01*
X1046990Y10534418D01*
X1046812Y10534241D01*
X1046812Y10534241D02*
G01*
X1207696Y10373357D01*
X1864362Y10373357D01*
X1864362Y10373357D02*
G01*
X2393063Y10373357D01*
X3081403Y11061697D01*
X4191002Y11061697D01*
X1864362Y10774677D02*
G01*
X1706349Y10774677D01*
X1465912Y10534241D01*
X1346202Y10534241D02*
G01*
X1465912Y10534241D01*
X2702562Y10228577D02*
G01*
X2702562Y10125605D01*
X2077722Y9515853D02*
G01*
X1975893Y9617682D01*
X1975893Y9653242D01*
X1879602Y9663452D02*
G01*
X1965683Y9663452D01*
X1975893Y9653242D01*
X1975893Y9653242D02*
G01*
X2341349Y10018697D01*
X2595653Y10018697D01*
X2702562Y10125605D01*
X1879602Y9766297D02*
G01*
X1879602Y9667999D01*
X1879602Y9667999D02*
G01*
X1879602Y9663452D01*
X1879602Y9667999D02*
G01*
X1879602Y9701324D01*
X1294919Y10286006D01*
X985243Y10286006D01*
X807214Y10464035D01*
X807214Y10738076D01*
X807392Y10738253D01*
X927102Y10738253D02*
G01*
X807392Y10738253D01*
X1778002Y9016997D02*
G01*
X939802Y9016997D01*
X927102Y9029697D01*
X1778002Y8762997D02*
G01*
X939802Y8762997D01*
X927102Y8775697D01*
X1778002Y8508997D02*
G01*
X939802Y8508997D01*
X927102Y8521697D01*
X1778002Y8254997D02*
G01*
X939802Y8254997D01*
X927102Y8267697D01*
X1864362Y11775437D02*
G01*
X1132842Y11775437D01*
X927102Y11569697D01*
X2002259Y11574777D02*
G01*
X2002436Y11574955D01*
X2002436Y11846176D01*
X1995045Y11853567D01*
X956972Y11853567D01*
X927102Y11823697D01*
X1864362Y11574777D02*
G01*
X2002259Y11574777D01*
X1726465Y10975337D02*
G01*
X1273025Y11428778D01*
X896419Y11428778D01*
X813742Y11511455D01*
X813742Y11964337D01*
X927102Y12077697D01*
X1864362Y10975337D02*
G01*
X1726465Y10975337D01*
X4088157Y11315697D02*
G01*
X4068447Y11295987D01*
X3257984Y11295987D01*
X2536014Y10574017D01*
X1864362Y10574017D01*
X4191002Y11315697D02*
G01*
X4088157Y11315697D01*
X3556002Y8635997D02*
G01*
X3361540Y8830459D01*
X3361540Y9991722D01*
X3480767Y10110950D01*
X3480767Y10774448D01*
X3480539Y10774677D01*
X3342642Y10774677D02*
G01*
X3480539Y10774677D01*
X2915109Y13011376D02*
G01*
X2915109Y12086308D01*
X2002259Y11173457D01*
X1864362Y11173457D02*
G01*
X2002259Y11173457D01*
X2661109Y13011376D02*
G01*
X2661109Y12032968D01*
X2002259Y11374117D01*
X1864362Y11374117D02*
G01*
X2002259Y11374117D01*
X3910916Y10501246D02*
G01*
X3480539Y10931624D01*
X3480539Y10975337D01*
X3342642Y10975337D02*
G01*
X3480539Y10975337D01*
X3204745Y10574017D02*
G01*
X2981505Y10350776D01*
X2981505Y10102644D01*
X2891132Y10012271D01*
X2891132Y8792867D01*
X3556002Y8127997D01*
X3342642Y10574017D02*
G01*
X3204745Y10574017D01*
G36*
X4206600Y9028089D02*
G01*
X4206600Y9132097D01*
X4022999Y9132097D01*
X4022999Y9028089D01*
G37*
G36*
X4206600Y9232102D02*
G01*
X4206600Y9336110D01*
X4022999Y9336110D01*
X4022999Y9232102D01*
G37*
G36*
X1438000Y10482239D02*
G01*
X1438000Y10586247D01*
X1254399Y10586247D01*
X1254399Y10482239D01*
G37*
G36*
X1438000Y10686252D02*
G01*
X1438000Y10790260D01*
X1254399Y10790260D01*
X1254399Y10686252D01*
G37*
G36*
X1018900Y10482239D02*
G01*
X1018900Y10586247D01*
X835299Y10586247D01*
X835299Y10482239D01*
G37*
G36*
X1018900Y10686252D02*
G01*
X1018900Y10790260D01*
X835299Y10790260D01*
X835299Y10686252D01*
G37*
G36*
X3452622Y11825478D02*
G01*
X3232658Y11825478D01*
X3232658Y11725402D01*
X3452622Y11725402D01*
G37*
G36*
X3452622Y11624818D02*
G01*
X3232658Y11624818D01*
X3232658Y11524742D01*
X3452622Y11524742D01*
G37*
G36*
X3452622Y11424158D02*
G01*
X3232658Y11424158D01*
X3232658Y11324081D01*
X3452622Y11324081D01*
G37*
G36*
X3452622Y11223497D02*
G01*
X3232658Y11223497D01*
X3232658Y11123421D01*
X3452622Y11123421D01*
G37*
G36*
X3452622Y11025378D02*
G01*
X3232658Y11025378D01*
X3232658Y10925302D01*
X3452622Y10925302D01*
G37*
G36*
X3452622Y10824718D02*
G01*
X3232658Y10824718D01*
X3232658Y10724642D01*
X3452622Y10724642D01*
G37*
G36*
X3452622Y10624058D02*
G01*
X3232658Y10624058D01*
X3232658Y10523981D01*
X3452622Y10523981D01*
G37*
G36*
X3452622Y10423397D02*
G01*
X3232658Y10423397D01*
X3232658Y10323321D01*
X3452622Y10323321D01*
G37*
G36*
X3153918Y10153522D02*
G01*
X3153918Y10303637D01*
X3053841Y10303637D01*
X3053841Y10153522D01*
G37*
G36*
X2953258Y10153522D02*
G01*
X2953258Y10303637D01*
X2853181Y10303637D01*
X2853181Y10153522D01*
G37*
G36*
X2752597Y10153522D02*
G01*
X2752597Y10303637D01*
X2652522Y10303637D01*
X2652522Y10153522D01*
G37*
G36*
X2554477Y10153522D02*
G01*
X2554477Y10303637D01*
X2454402Y10303637D01*
X2454402Y10153522D01*
G37*
G36*
X2353818Y10153522D02*
G01*
X2353818Y10303637D01*
X2253741Y10303637D01*
X2253741Y10153522D01*
G37*
G36*
X2153158Y10153522D02*
G01*
X2153158Y10303637D01*
X2053081Y10303637D01*
X2053081Y10153522D01*
G37*
G36*
X1974341Y10423397D02*
G01*
X1754378Y10423397D01*
X1754378Y10323321D01*
X1974341Y10323321D01*
G37*
G36*
X1974341Y10624058D02*
G01*
X1754378Y10624058D01*
X1754378Y10523981D01*
X1974341Y10523981D01*
G37*
G36*
X1974341Y10824718D02*
G01*
X1754378Y10824718D01*
X1754378Y10724642D01*
X1974341Y10724642D01*
G37*
G36*
X1974341Y11025378D02*
G01*
X1754378Y11025378D01*
X1754378Y10925302D01*
X1974341Y10925302D01*
G37*
G36*
X1974341Y11223497D02*
G01*
X1754378Y11223497D01*
X1754378Y11123421D01*
X1974341Y11123421D01*
G37*
G36*
X1974341Y11424158D02*
G01*
X1754378Y11424158D01*
X1754378Y11324081D01*
X1974341Y11324081D01*
G37*
G36*
X1974341Y11624818D02*
G01*
X1754378Y11624818D01*
X1754378Y11524742D01*
X1974341Y11524742D01*
G37*
G36*
X1974341Y11825478D02*
G01*
X1754378Y11825478D01*
X1754378Y11725402D01*
X1974341Y11725402D01*
G37*
D14*
G01*
X927100Y9029700D03*
G01*
X927100Y8775700D03*
G01*
X927100Y8521700D03*
G01*
X927100Y8267700D03*
D15*
G01*
X3213100Y9740900D03*
G36*
X3542029Y9815829D02*
G01*
X3392170Y9815829D01*
X3392170Y9665970D01*
X3542029Y9665970D01*
G37*
G36*
X1012088Y11230711D02*
G01*
X1012088Y11400688D01*
X842111Y11400688D01*
X842111Y11230711D01*
G37*
D18*
G01*
X927100Y11569700D03*
G01*
X927100Y11823700D03*
G01*
X927100Y12077700D03*
G01*
X927100Y12331700D03*
D15*
G01*
X4191000Y11061700D03*
G36*
X4116070Y11390629D02*
G01*
X4116070Y11240770D01*
X4265929Y11240770D01*
X4265929Y11390629D01*
G37*
G01*
X1943112Y7747000D03*
G36*
X1614170Y7672070D02*
G01*
X1764029Y7672070D01*
X1764029Y7821929D01*
X1614170Y7821929D01*
G37*
G36*
X3471011Y9228988D02*
G01*
X3471011Y9059011D01*
X3640988Y9059011D01*
X3640988Y9228988D01*
G37*
D18*
G01*
X3556000Y8890000D03*
G01*
X3556000Y8636000D03*
G01*
X3556000Y8382000D03*
G01*
X3556000Y8128000D03*
D14*
G01*
X1778000Y9017000D03*
G01*
X1778000Y8763000D03*
G01*
X1778000Y8509000D03*
G01*
X1778000Y8255000D03*
D15*
G01*
X1625600Y9766300D03*
G36*
X1954529Y9841229D02*
G01*
X1804670Y9841229D01*
X1804670Y9691370D01*
X1954529Y9691370D01*
G37*
D19*
G01*
X3014979Y9965944D03*
G01*
X3014979Y9515855D03*
G01*
X3665220Y9965944D03*
G01*
X3665220Y9515855D03*
G36*
X2064204Y13100210D02*
G01*
X2242004Y13100210D01*
X2242004Y12922410D01*
X2064204Y12922410D01*
G37*
D21*
G01*
X2407107Y13011378D03*
G01*
X2661107Y13011378D03*
G01*
X2915107Y13011378D03*
D19*
G01*
X1427479Y9965944D03*
G01*
X1427479Y9515855D03*
G01*
X2077720Y9965944D03*
G01*
X2077720Y9515855D03*
D11*
G01*
X3910916Y10501246D03*
M02*
