G04 Layer: BottomPasteMaskLayer*
G04 EasyEDA v6.5.3, 2022-04-03 23:40:25*
G04 a321ff13c4ce4c21ba8c8ab1f3bc68dd,81413e43fb254311a4bdf48f3ba91f1a,10*
G04 Gerber Generator version 0.2*
G04 Scale: 100 percent, Rotated: No, Reflected: No *
G04 Dimensions in millimeters *
G04 leading zeros omitted , absolute positions ,4 integer and 5 decimal *
%FSLAX45Y45*%
%MOMM*%

%ADD10C,0.0001*%

%LPD*%
G36*
X4282800Y8672489D02*
G01*
X4282800Y8776497D01*
X4099199Y8776497D01*
X4099199Y8672489D01*
G37*
G36*
X4282800Y8876502D02*
G01*
X4282800Y8980510D01*
X4099199Y8980510D01*
X4099199Y8876502D01*
G37*
G36*
X1438000Y10482239D02*
G01*
X1438000Y10586247D01*
X1254399Y10586247D01*
X1254399Y10482239D01*
G37*
G36*
X1438000Y10686252D02*
G01*
X1438000Y10790260D01*
X1254399Y10790260D01*
X1254399Y10686252D01*
G37*
G36*
X1018900Y10482239D02*
G01*
X1018900Y10586247D01*
X835299Y10586247D01*
X835299Y10482239D01*
G37*
G36*
X1018900Y10686252D02*
G01*
X1018900Y10790260D01*
X835299Y10790260D01*
X835299Y10686252D01*
G37*
G36*
X1666600Y12279289D02*
G01*
X1666600Y12383297D01*
X1482999Y12383297D01*
X1482999Y12279289D01*
G37*
G36*
X1666600Y12483302D02*
G01*
X1666600Y12587310D01*
X1482999Y12587310D01*
X1482999Y12483302D01*
G37*
G36*
X3452622Y11825478D02*
G01*
X3232658Y11825478D01*
X3232658Y11725402D01*
X3452622Y11725402D01*
G37*
G36*
X3452622Y11624818D02*
G01*
X3232658Y11624818D01*
X3232658Y11524742D01*
X3452622Y11524742D01*
G37*
G36*
X3452622Y11424158D02*
G01*
X3232658Y11424158D01*
X3232658Y11324081D01*
X3452622Y11324081D01*
G37*
G36*
X3452622Y11223497D02*
G01*
X3232658Y11223497D01*
X3232658Y11123421D01*
X3452622Y11123421D01*
G37*
G36*
X3452622Y11025378D02*
G01*
X3232658Y11025378D01*
X3232658Y10925302D01*
X3452622Y10925302D01*
G37*
G36*
X3452622Y10824718D02*
G01*
X3232658Y10824718D01*
X3232658Y10724642D01*
X3452622Y10724642D01*
G37*
G36*
X3452622Y10624058D02*
G01*
X3232658Y10624058D01*
X3232658Y10523981D01*
X3452622Y10523981D01*
G37*
G36*
X3452622Y10423397D02*
G01*
X3232658Y10423397D01*
X3232658Y10323321D01*
X3452622Y10323321D01*
G37*
G36*
X3153918Y10153522D02*
G01*
X3153918Y10303637D01*
X3053841Y10303637D01*
X3053841Y10153522D01*
G37*
G36*
X2953258Y10153522D02*
G01*
X2953258Y10303637D01*
X2853181Y10303637D01*
X2853181Y10153522D01*
G37*
G36*
X2752597Y10153522D02*
G01*
X2752597Y10303637D01*
X2652522Y10303637D01*
X2652522Y10153522D01*
G37*
G36*
X2554477Y10153522D02*
G01*
X2554477Y10303637D01*
X2454402Y10303637D01*
X2454402Y10153522D01*
G37*
G36*
X2353818Y10153522D02*
G01*
X2353818Y10303637D01*
X2253741Y10303637D01*
X2253741Y10153522D01*
G37*
G36*
X2153158Y10153522D02*
G01*
X2153158Y10303637D01*
X2053081Y10303637D01*
X2053081Y10153522D01*
G37*
G36*
X1974341Y10423397D02*
G01*
X1754378Y10423397D01*
X1754378Y10323321D01*
X1974341Y10323321D01*
G37*
G36*
X1974341Y10624058D02*
G01*
X1754378Y10624058D01*
X1754378Y10523981D01*
X1974341Y10523981D01*
G37*
G36*
X1974341Y10824718D02*
G01*
X1754378Y10824718D01*
X1754378Y10724642D01*
X1974341Y10724642D01*
G37*
G36*
X1974341Y11025378D02*
G01*
X1754378Y11025378D01*
X1754378Y10925302D01*
X1974341Y10925302D01*
G37*
G36*
X1974341Y11223497D02*
G01*
X1754378Y11223497D01*
X1754378Y11123421D01*
X1974341Y11123421D01*
G37*
G36*
X1974341Y11424158D02*
G01*
X1754378Y11424158D01*
X1754378Y11324081D01*
X1974341Y11324081D01*
G37*
G36*
X1974341Y11624818D02*
G01*
X1754378Y11624818D01*
X1754378Y11524742D01*
X1974341Y11524742D01*
G37*
G36*
X1974341Y11825478D02*
G01*
X1754378Y11825478D01*
X1754378Y11725402D01*
X1974341Y11725402D01*
G37*
G36*
X2239645Y7590099D02*
G01*
X2239645Y7740101D01*
X2103754Y7740101D01*
X2103754Y7590099D01*
G37*
G36*
X2239645Y7830098D02*
G01*
X2239645Y7980098D01*
X2103754Y7980098D01*
X2103754Y7830098D01*
G37*
G36*
X3281045Y7590099D02*
G01*
X3281045Y7740101D01*
X3145154Y7740101D01*
X3145154Y7590099D01*
G37*
G36*
X3281045Y7830098D02*
G01*
X3281045Y7980098D01*
X3145154Y7980098D01*
X3145154Y7830098D01*
G37*
M02*
