G04 Layer: TopSilkscreenLayer*
G04 EasyEDA v6.5.1, 2022-03-12 08:52:27*
G04 6cb43a7882b14878ba6e045dd811a198,81413e43fb254311a4bdf48f3ba91f1a,10*
G04 Gerber Generator version 0.2*
G04 Scale: 100 percent, Rotated: No, Reflected: No *
G04 Dimensions in millimeters *
G04 leading zeros omitted , absolute positions ,4 integer and 5 decimal *
%FSLAX45Y45*%
%MOMM*%

%ADD10C,0.2540*%
%ADD25C,0.1524*%
%ADD26C,0.2032*%

%LPD*%
G36*
X2507996Y12537998D02*
G01*
X2505811Y12512497D01*
X2505049Y12507772D01*
X2503932Y12504318D01*
X2502204Y12501778D01*
X2499715Y12500102D01*
X2496210Y12498933D01*
X2491486Y12498171D01*
X2465984Y12495987D01*
X2465984Y12455855D01*
X2491282Y12453670D01*
X2496108Y12452959D01*
X2499664Y12451791D01*
X2502204Y12450064D01*
X2503932Y12447524D01*
X2505049Y12443968D01*
X2505811Y12439192D01*
X2507996Y12413843D01*
X2548128Y12413843D01*
X2550312Y12439345D01*
X2551074Y12444069D01*
X2552192Y12447574D01*
X2553919Y12450064D01*
X2556408Y12451791D01*
X2559913Y12452908D01*
X2564638Y12453670D01*
X2581402Y12455550D01*
X2587244Y12458141D01*
X2589631Y12463424D01*
X2590139Y12472771D01*
X2590292Y12479883D01*
X2590901Y12485471D01*
X2592120Y12489637D01*
X2594203Y12492685D01*
X2597302Y12494666D01*
X2601569Y12495885D01*
X2607259Y12496444D01*
X2614574Y12496596D01*
X2624531Y12496241D01*
X2629560Y12494006D01*
X2631084Y12488214D01*
X2630525Y12477242D01*
X2629916Y12471095D01*
X2629204Y12466421D01*
X2628036Y12462916D01*
X2626360Y12460427D01*
X2623820Y12458700D01*
X2620314Y12457582D01*
X2615641Y12456820D01*
X2603296Y12455652D01*
X2598572Y12454940D01*
X2595118Y12453823D01*
X2592781Y12452096D01*
X2591308Y12449505D01*
X2590495Y12445898D01*
X2590190Y12440970D01*
X2590139Y12414300D01*
X2670302Y12411252D01*
X2672486Y12385649D01*
X2673197Y12380874D01*
X2674315Y12377470D01*
X2676042Y12375134D01*
X2678633Y12373660D01*
X2682290Y12372848D01*
X2687320Y12372543D01*
X2700578Y12372441D01*
X2705658Y12372136D01*
X2709265Y12371374D01*
X2711704Y12369901D01*
X2713177Y12367412D01*
X2713939Y12363754D01*
X2714244Y12358624D01*
X2714244Y12331090D01*
X2756103Y12331090D01*
X2753055Y12250928D01*
X2727452Y12248743D01*
X2722676Y12248032D01*
X2719273Y12246914D01*
X2716936Y12245187D01*
X2715463Y12242647D01*
X2714650Y12239040D01*
X2714345Y12234113D01*
X2714345Y12221210D01*
X2714650Y12216282D01*
X2715463Y12212675D01*
X2716936Y12210135D01*
X2719273Y12208408D01*
X2722676Y12207290D01*
X2727452Y12206579D01*
X2744470Y12204700D01*
X2750261Y12202007D01*
X2752598Y12196368D01*
X2753055Y12186259D01*
X2753055Y12168174D01*
X2672892Y12165177D01*
X2672943Y12138507D01*
X2673248Y12133580D01*
X2674061Y12129922D01*
X2675534Y12127382D01*
X2677871Y12125655D01*
X2681325Y12124537D01*
X2686050Y12123826D01*
X2703068Y12121946D01*
X2708910Y12119254D01*
X2711246Y12113615D01*
X2711704Y12103506D01*
X2711246Y12093397D01*
X2708910Y12087809D01*
X2703068Y12085116D01*
X2692298Y12083796D01*
X2672892Y12082221D01*
X2672892Y12000077D01*
X2699816Y12000128D01*
X2704846Y12000433D01*
X2708503Y12001246D01*
X2711094Y12002719D01*
X2712821Y12005056D01*
X2713939Y12008459D01*
X2714650Y12013234D01*
X2715818Y12025579D01*
X2716580Y12030252D01*
X2717698Y12033758D01*
X2719425Y12036298D01*
X2721965Y12037974D01*
X2725420Y12039142D01*
X2730144Y12039904D01*
X2755239Y12042038D01*
X2758236Y12121642D01*
X2838399Y12124639D01*
X2838399Y12206325D01*
X2799588Y12209526D01*
X2796692Y12331090D01*
X2769412Y12331141D01*
X2764332Y12331446D01*
X2760675Y12332208D01*
X2758236Y12333681D01*
X2756712Y12336170D01*
X2755950Y12339828D01*
X2755646Y12351816D01*
X2755646Y12372492D01*
X2713634Y12372492D01*
X2716834Y12411252D01*
X2796997Y12414300D01*
X2796997Y12454890D01*
X2675483Y12457836D01*
X2673299Y12483490D01*
X2672537Y12488214D01*
X2671470Y12491669D01*
X2669743Y12494006D01*
X2667152Y12495479D01*
X2663444Y12496241D01*
X2658465Y12496546D01*
X2645156Y12496647D01*
X2640126Y12496952D01*
X2636520Y12497714D01*
X2634081Y12499238D01*
X2632608Y12501676D01*
X2631846Y12505385D01*
X2631541Y12510516D01*
X2631490Y12537998D01*
G37*
G36*
X1928063Y12537998D02*
G01*
X1928063Y12496596D01*
X2176322Y12496596D01*
X2176322Y12289739D01*
X1969465Y12289739D01*
X1969465Y12496596D01*
X1928063Y12496596D01*
X1928063Y12248337D01*
X2217724Y12248337D01*
X2217724Y12537998D01*
G37*
G36*
X2341829Y12537998D02*
G01*
X2341829Y12455245D01*
X2383231Y12455245D01*
X2383231Y12537998D01*
G37*
G36*
X2424633Y12537998D02*
G01*
X2424633Y12496596D01*
X2465984Y12496596D01*
X2465984Y12537998D01*
G37*
G36*
X2755646Y12537998D02*
G01*
X2755646Y12496596D01*
X2796997Y12496596D01*
X2796997Y12537998D01*
G37*
G36*
X2838399Y12537998D02*
G01*
X2838399Y12496596D01*
X3086658Y12496596D01*
X3086658Y12289739D01*
X2879801Y12289739D01*
X2879801Y12496596D01*
X2838399Y12496596D01*
X2838399Y12248337D01*
X3128060Y12248337D01*
X3128060Y12537998D01*
G37*
G36*
X2259076Y12496596D02*
G01*
X2259076Y12455245D01*
X2300478Y12455245D01*
X2300478Y12496596D01*
G37*
G36*
X2465324Y12455906D02*
G01*
X2465374Y12455245D01*
X2424633Y12455245D01*
X2424633Y12372492D01*
X2507386Y12372492D01*
X2507386Y12413234D01*
X2482037Y12415418D01*
X2477262Y12416180D01*
X2473706Y12417298D01*
X2471166Y12419025D01*
X2469438Y12421565D01*
X2468321Y12425121D01*
X2467559Y12429947D01*
X2465374Y12455245D01*
X2465984Y12455245D01*
X2465984Y12455855D01*
G37*
G36*
X2010816Y12455245D02*
G01*
X2010816Y12331090D01*
X2134971Y12331090D01*
X2134971Y12455245D01*
G37*
G36*
X2921152Y12455245D02*
G01*
X2921152Y12331090D01*
X3045307Y12331090D01*
X3045307Y12455245D01*
G37*
G36*
X2259076Y12413843D02*
G01*
X2259177Y12386919D01*
X2259482Y12381890D01*
X2260244Y12378232D01*
X2261717Y12375642D01*
X2264054Y12373914D01*
X2267508Y12372797D01*
X2272233Y12372086D01*
X2278481Y12371527D01*
X2289302Y12370206D01*
X2295093Y12367514D01*
X2297430Y12361926D01*
X2297887Y12351816D01*
X2297430Y12341656D01*
X2295093Y12336068D01*
X2289302Y12333376D01*
X2278481Y12332106D01*
X2259076Y12330480D01*
X2259076Y12265253D01*
X2300478Y12265253D01*
X2300630Y12272619D01*
X2301240Y12278309D01*
X2302459Y12282627D01*
X2304491Y12285726D01*
X2307590Y12287758D01*
X2311857Y12288977D01*
X2317597Y12289586D01*
X2324912Y12289739D01*
X2334869Y12289332D01*
X2339898Y12287097D01*
X2341473Y12281357D01*
X2340864Y12270333D01*
X2340305Y12264237D01*
X2339543Y12259513D01*
X2338374Y12256008D01*
X2336698Y12253518D01*
X2334158Y12251791D01*
X2330653Y12250674D01*
X2325979Y12249912D01*
X2319883Y12249353D01*
X2308860Y12248743D01*
X2303068Y12250318D01*
X2300833Y12255347D01*
X2300478Y12265253D01*
X2259076Y12265253D01*
X2259076Y12248337D01*
X2301087Y12248337D01*
X2297887Y12209526D01*
X2176322Y12206630D01*
X2176322Y12166193D01*
X2201672Y12164060D01*
X2206447Y12163298D01*
X2210003Y12162129D01*
X2212543Y12160402D01*
X2214270Y12157862D01*
X2215388Y12154306D01*
X2216150Y12149531D01*
X2218283Y12124791D01*
X2243226Y12122658D01*
X2247900Y12121896D01*
X2251405Y12120727D01*
X2253945Y12119051D01*
X2255621Y12116511D01*
X2256790Y12113056D01*
X2257552Y12108332D01*
X2258669Y12095988D01*
X2259431Y12091263D01*
X2260549Y12087809D01*
X2262225Y12085472D01*
X2264816Y12083999D01*
X2268423Y12083237D01*
X2273401Y12082881D01*
X2300020Y12082830D01*
X2303068Y12162993D01*
X2341829Y12166193D01*
X2341829Y12082830D01*
X2383231Y12082830D01*
X2383231Y12165584D01*
X2362860Y12165584D01*
X2350973Y12165939D01*
X2344724Y12167920D01*
X2342286Y12173102D01*
X2341829Y12182856D01*
X2342032Y12190120D01*
X2342692Y12195810D01*
X2343962Y12200128D01*
X2346045Y12203176D01*
X2348992Y12205157D01*
X2353056Y12206173D01*
X2358288Y12206376D01*
X2364943Y12205919D01*
X2373376Y12204496D01*
X2378354Y12201448D01*
X2380894Y12195403D01*
X2382266Y12184989D01*
X2383840Y12165584D01*
X2410714Y12165533D01*
X2415844Y12165279D01*
X2419553Y12164517D01*
X2421991Y12163044D01*
X2423515Y12160605D01*
X2424277Y12156948D01*
X2424582Y12151918D01*
X2424684Y12138660D01*
X2424988Y12133630D01*
X2425750Y12129973D01*
X2427224Y12127382D01*
X2429560Y12125655D01*
X2433015Y12124537D01*
X2437739Y12123826D01*
X2454808Y12121946D01*
X2460599Y12119254D01*
X2462987Y12113615D01*
X2463393Y12103506D01*
X2462987Y12093397D01*
X2460599Y12087809D01*
X2454808Y12085116D01*
X2443988Y12083796D01*
X2424633Y12082221D01*
X2424633Y12000077D01*
X2451557Y12000128D01*
X2456586Y12000433D01*
X2460244Y12001246D01*
X2462834Y12002719D01*
X2464562Y12005056D01*
X2465679Y12008459D01*
X2466390Y12013234D01*
X2467559Y12025579D01*
X2468321Y12030252D01*
X2469438Y12033758D01*
X2471166Y12036298D01*
X2473655Y12037974D01*
X2477160Y12039142D01*
X2481884Y12039904D01*
X2506827Y12042038D01*
X2509977Y12080240D01*
X2589530Y12083237D01*
X2591104Y12102439D01*
X2592476Y12113107D01*
X2595270Y12119051D01*
X2601214Y12121896D01*
X2622397Y12124537D01*
X2628341Y12127382D01*
X2631186Y12133326D01*
X2633065Y12149886D01*
X2633827Y12154509D01*
X2634996Y12157964D01*
X2636723Y12160453D01*
X2639212Y12162129D01*
X2642717Y12163247D01*
X2647391Y12164009D01*
X2659735Y12165177D01*
X2664460Y12165888D01*
X2667914Y12167006D01*
X2670251Y12168733D01*
X2671724Y12171273D01*
X2672486Y12174880D01*
X2672842Y12179808D01*
X2672842Y12192711D01*
X2672486Y12197638D01*
X2671724Y12201296D01*
X2670251Y12203836D01*
X2667914Y12205512D01*
X2664460Y12206630D01*
X2659735Y12207392D01*
X2634081Y12209526D01*
X2631084Y12289739D01*
X2590546Y12289739D01*
X2587548Y12209526D01*
X2549194Y12206376D01*
X2546146Y12126772D01*
X2528062Y12126772D01*
X2517952Y12127230D01*
X2512314Y12129566D01*
X2509672Y12135408D01*
X2508351Y12146178D01*
X2506726Y12165584D01*
X2424633Y12165584D01*
X2424633Y12247727D01*
X2399284Y12249912D01*
X2394508Y12250674D01*
X2390952Y12251791D01*
X2388412Y12253518D01*
X2386685Y12256058D01*
X2385517Y12259614D01*
X2384806Y12264390D01*
X2382621Y12289739D01*
X2383231Y12289739D01*
X2383231Y12290348D01*
X2382570Y12290399D01*
X2382621Y12289739D01*
X2341422Y12289739D01*
X2344420Y12369901D01*
X2370074Y12372086D01*
X2374798Y12372797D01*
X2378252Y12373914D01*
X2380589Y12375642D01*
X2382062Y12378232D01*
X2382875Y12381890D01*
X2383180Y12386919D01*
X2383231Y12413843D01*
G37*
G36*
X2507386Y12413843D02*
G01*
X2507386Y12413234D01*
X2508046Y12413183D01*
X2507996Y12413843D01*
G37*
G36*
X2383231Y12331090D02*
G01*
X2383231Y12290348D01*
X2408529Y12288164D01*
X2413355Y12287402D01*
X2416911Y12286284D01*
X2419451Y12284557D01*
X2421178Y12282017D01*
X2422296Y12278461D01*
X2423058Y12273686D01*
X2425242Y12248337D01*
X2424633Y12248337D01*
X2424633Y12247727D01*
X2425293Y12247676D01*
X2425242Y12248337D01*
X2465984Y12248337D01*
X2465984Y12331090D01*
G37*
G36*
X2631490Y12331090D02*
G01*
X2631490Y12289739D01*
X2672892Y12289739D01*
X2672892Y12248337D01*
X2714244Y12248337D01*
X2714244Y12289739D01*
X2672892Y12289739D01*
X2672892Y12331090D01*
G37*
G36*
X2880106Y12206986D02*
G01*
X2877657Y12104522D01*
X2921355Y12104522D01*
X2921508Y12110415D01*
X2922574Y12115139D01*
X2924606Y12118746D01*
X2927604Y12121286D01*
X2931668Y12122861D01*
X2936798Y12123470D01*
X2943098Y12123267D01*
X2952292Y12121896D01*
X2957322Y12119051D01*
X2959506Y12113412D01*
X2959963Y12103506D01*
X2959557Y12093397D01*
X2957372Y12088012D01*
X2951937Y12085828D01*
X2941828Y12085421D01*
X2932633Y12085878D01*
X2926842Y12087707D01*
X2923641Y12091365D01*
X2922066Y12097410D01*
X2921355Y12104522D01*
X2877657Y12104522D01*
X2877210Y12085421D01*
X2797606Y12082424D01*
X2795422Y12057176D01*
X2794711Y12052554D01*
X2793542Y12049048D01*
X2791815Y12046610D01*
X2789275Y12044883D01*
X2785770Y12043765D01*
X2780995Y12043003D01*
X2755646Y12040870D01*
X2755646Y11958675D01*
X2837789Y11958675D01*
X2840990Y11997486D01*
X2961894Y12000382D01*
X2964129Y12025579D01*
X2964840Y12030252D01*
X2966008Y12033758D01*
X2967685Y12036247D01*
X2970174Y12037974D01*
X2973628Y12039092D01*
X2978251Y12039854D01*
X2994812Y12041784D01*
X3000756Y12044629D01*
X3003600Y12050522D01*
X3005480Y12067133D01*
X3006242Y12071756D01*
X3007410Y12075210D01*
X3009138Y12077700D01*
X3011627Y12079376D01*
X3015132Y12080494D01*
X3019806Y12081256D01*
X3032150Y12082424D01*
X3036874Y12083135D01*
X3040329Y12084253D01*
X3042666Y12085980D01*
X3044139Y12088571D01*
X3044901Y12092279D01*
X3045256Y12097258D01*
X3045358Y12110567D01*
X3045612Y12115596D01*
X3046425Y12119203D01*
X3047898Y12121642D01*
X3050387Y12123115D01*
X3054045Y12123877D01*
X3059176Y12124182D01*
X3086658Y12124232D01*
X3086658Y12206986D01*
X3045307Y12206986D01*
X3045307Y12123572D01*
X3006496Y12126772D01*
X3003499Y12206986D01*
X2976829Y12206884D01*
X2971901Y12206579D01*
X2968244Y12205817D01*
X2965704Y12204344D01*
X2963976Y12201956D01*
X2962859Y12198553D01*
X2962148Y12193828D01*
X2960268Y12176760D01*
X2957576Y12170968D01*
X2951988Y12168632D01*
X2941828Y12168174D01*
X2931718Y12168632D01*
X2926130Y12170968D01*
X2923438Y12176760D01*
X2921558Y12193828D01*
X2920847Y12198553D01*
X2919730Y12202007D01*
X2918002Y12204344D01*
X2915462Y12205817D01*
X2911805Y12206579D01*
X2906826Y12206884D01*
G37*
G36*
X1928063Y12206986D02*
G01*
X1928063Y12124232D01*
X2010206Y12124232D01*
X2013407Y12162993D01*
X2090978Y12162993D01*
X2094026Y12082830D01*
X2217724Y12082830D01*
X2217724Y12123572D01*
X2192426Y12125756D01*
X2187600Y12126518D01*
X2184044Y12127636D01*
X2181504Y12129363D01*
X2179777Y12131903D01*
X2178659Y12135459D01*
X2177897Y12140285D01*
X2175764Y12165025D01*
X2150821Y12167158D01*
X2146147Y12167920D01*
X2142642Y12169038D01*
X2140153Y12170765D01*
X2138426Y12173254D01*
X2137257Y12176760D01*
X2136546Y12181484D01*
X2134311Y12206986D01*
G37*
G36*
X2175662Y12166244D02*
G01*
X2175764Y12165025D01*
X2176322Y12164974D01*
X2176322Y12166193D01*
G37*
G36*
X2217724Y12124842D02*
G01*
X2217724Y12123572D01*
X2218385Y12123521D01*
X2218283Y12124791D01*
G37*
G36*
X2631490Y12124232D02*
G01*
X2631490Y12082830D01*
X2672892Y12082830D01*
X2672892Y12124232D01*
G37*
G36*
X2611120Y12082830D02*
G01*
X2604566Y12082780D01*
X2599537Y12082475D01*
X2595880Y12081662D01*
X2593289Y12080189D01*
X2591562Y12077852D01*
X2590444Y12074398D01*
X2589733Y12069673D01*
X2587548Y12044019D01*
X2507386Y12041022D01*
X2507437Y12014708D01*
X2507742Y12009628D01*
X2508504Y12005868D01*
X2509977Y12003278D01*
X2512314Y12001500D01*
X2515768Y12000382D01*
X2520492Y11999671D01*
X2546146Y11997486D01*
X2549194Y11917324D01*
X2507386Y11917324D01*
X2507386Y11875922D01*
X2548737Y11875922D01*
X2548737Y11834571D01*
X2590139Y11834571D01*
X2590139Y11875922D01*
X2548737Y11875922D01*
X2548788Y11903456D01*
X2549093Y11908586D01*
X2549855Y11912244D01*
X2551328Y11914682D01*
X2553766Y11916206D01*
X2557373Y11916968D01*
X2562402Y11917273D01*
X2575712Y11917375D01*
X2580690Y11917680D01*
X2584399Y11918492D01*
X2586939Y11919915D01*
X2588717Y11922302D01*
X2589784Y11925706D01*
X2590546Y11930481D01*
X2591714Y11942826D01*
X2592476Y11947499D01*
X2593594Y11951004D01*
X2595321Y11953544D01*
X2597810Y11955221D01*
X2601315Y11956389D01*
X2605989Y11957100D01*
X2631490Y11959336D01*
X2631490Y12082830D01*
G37*
G36*
X3086658Y12082830D02*
G01*
X3086658Y12041428D01*
X3128060Y12041428D01*
X3128060Y12082830D01*
G37*
G36*
X2507386Y12042089D02*
G01*
X2506827Y12042038D01*
X2506726Y12041022D01*
X2507386Y12041022D01*
G37*
G36*
X2755646Y12042089D02*
G01*
X2755239Y12042038D01*
X2755188Y12040819D01*
X2755646Y12040870D01*
G37*
G36*
X1969465Y12041428D02*
G01*
X1969465Y12000077D01*
X2010816Y12000077D01*
X2010816Y12041428D01*
G37*
G36*
X2052218Y12041428D02*
G01*
X2052218Y12000077D01*
X2093569Y12000077D01*
X2093569Y12041428D01*
G37*
G36*
X2134971Y12041428D02*
G01*
X2134971Y12000077D01*
X2218334Y12000077D01*
X2216150Y11974576D01*
X2215388Y11969851D01*
X2214270Y11966346D01*
X2212543Y11963857D01*
X2210054Y11962130D01*
X2206548Y11961012D01*
X2201824Y11960250D01*
X2189480Y11959082D01*
X2184755Y11958370D01*
X2181301Y11957253D01*
X2178964Y11955526D01*
X2177491Y11952935D01*
X2176729Y11949277D01*
X2176373Y11944248D01*
X2176322Y11917324D01*
X2300478Y11917324D01*
X2300427Y11944248D01*
X2300071Y11949277D01*
X2299309Y11952935D01*
X2297836Y11955526D01*
X2295499Y11957253D01*
X2292045Y11958370D01*
X2287320Y11959082D01*
X2274976Y11960250D01*
X2270252Y11961012D01*
X2266746Y11962130D01*
X2264257Y11963857D01*
X2262530Y11966346D01*
X2261412Y11969851D01*
X2260650Y11974576D01*
X2259482Y11986920D01*
X2258771Y11991644D01*
X2257653Y11995099D01*
X2255926Y11997436D01*
X2253335Y11998909D01*
X2249678Y11999671D01*
X2244648Y12000026D01*
X2231390Y12000128D01*
X2226310Y12000382D01*
X2222703Y12001195D01*
X2220264Y12002668D01*
X2218791Y12005157D01*
X2218029Y12008815D01*
X2217724Y12020753D01*
X2217724Y12041428D01*
G37*
G36*
X2300478Y12041428D02*
G01*
X2300478Y12000077D01*
X2383231Y12000077D01*
X2383231Y12041428D01*
G37*
G36*
X2961894Y12000382D02*
G01*
X2961894Y12000077D01*
X2962554Y12000077D01*
X2962554Y11917730D01*
X3042716Y11914733D01*
X3045917Y11875922D01*
X3128060Y11875922D01*
X3128060Y11958066D01*
X3102559Y11960250D01*
X3097834Y11961012D01*
X3094380Y11962130D01*
X3091840Y11963857D01*
X3090113Y11966346D01*
X3088995Y11969851D01*
X3088233Y11974576D01*
X3087065Y11986920D01*
X3086354Y11991644D01*
X3085236Y11995099D01*
X3083560Y11997436D01*
X3080969Y11998909D01*
X3077362Y11999671D01*
X3072434Y12000026D01*
X3059531Y12000026D01*
X3054604Y11999671D01*
X3050997Y11998909D01*
X3048457Y11997436D01*
X3046730Y11995099D01*
X3045612Y11991644D01*
X3044901Y11986920D01*
X3044342Y11980672D01*
X3043021Y11969851D01*
X3040329Y11964060D01*
X3034741Y11961723D01*
X3024632Y11961266D01*
X3014472Y11961723D01*
X3008884Y11964060D01*
X3006191Y11969851D01*
X3004312Y11986920D01*
X3003600Y11991695D01*
X3002483Y11995099D01*
X3000756Y11997486D01*
X2998114Y11998909D01*
X2994406Y11999722D01*
X2989275Y12000026D01*
X2962554Y12000077D01*
X2962554Y12000382D01*
G37*
G36*
X2383840Y11958675D02*
G01*
X2381656Y11933174D01*
X2380894Y11928500D01*
X2379776Y11924995D01*
X2378049Y11922506D01*
X2375560Y11920778D01*
X2372055Y11919610D01*
X2367330Y11918899D01*
X2354986Y11917730D01*
X2350262Y11916968D01*
X2346807Y11915851D01*
X2344470Y11914124D01*
X2342997Y11911533D01*
X2342235Y11907824D01*
X2341930Y11902795D01*
X2341829Y11876582D01*
X2367330Y11874347D01*
X2372055Y11873585D01*
X2375560Y11872468D01*
X2378049Y11870740D01*
X2379776Y11868251D01*
X2380894Y11864746D01*
X2381656Y11860072D01*
X2382824Y11847728D01*
X2383536Y11842953D01*
X2384653Y11839549D01*
X2386380Y11837162D01*
X2388971Y11835739D01*
X2392680Y11834926D01*
X2397658Y11834622D01*
X2410917Y11834520D01*
X2415946Y11834215D01*
X2419604Y11833453D01*
X2422042Y11831980D01*
X2423515Y11829542D01*
X2424277Y11825935D01*
X2424582Y11820855D01*
X2424684Y11807596D01*
X2424988Y11802618D01*
X2425750Y11798909D01*
X2427224Y11796318D01*
X2429560Y11794591D01*
X2433015Y11793524D01*
X2437739Y11792762D01*
X2443988Y11792204D01*
X2454808Y11790883D01*
X2460599Y11788190D01*
X2462987Y11782602D01*
X2463393Y11772493D01*
X2462987Y11762384D01*
X2460599Y11756745D01*
X2454808Y11754104D01*
X2443988Y11752783D01*
X2424633Y11751157D01*
X2424633Y11727332D01*
X2507386Y11727332D01*
X2507538Y11734698D01*
X2508199Y11740489D01*
X2509469Y11744858D01*
X2511501Y11747957D01*
X2514498Y11749989D01*
X2518562Y11751005D01*
X2523794Y11751208D01*
X2530449Y11750751D01*
X2538882Y11749379D01*
X2543657Y11746534D01*
X2545689Y11740896D01*
X2546146Y11731091D01*
X2545740Y11720982D01*
X2543352Y11715394D01*
X2537561Y11712702D01*
X2526792Y11711381D01*
X2515768Y11710822D01*
X2509977Y11712346D01*
X2507742Y11717426D01*
X2507386Y11727332D01*
X2424633Y11727332D01*
X2424633Y11669014D01*
X2451557Y11669115D01*
X2456586Y11669420D01*
X2460244Y11670182D01*
X2462834Y11671655D01*
X2464562Y11673992D01*
X2465679Y11677446D01*
X2466390Y11682171D01*
X2467559Y11694515D01*
X2468321Y11699240D01*
X2469438Y11702745D01*
X2471166Y11705234D01*
X2473655Y11706961D01*
X2477160Y11708079D01*
X2481884Y11708841D01*
X2507386Y11711025D01*
X2507437Y11683644D01*
X2507742Y11678564D01*
X2508504Y11674856D01*
X2509977Y11672214D01*
X2512314Y11670487D01*
X2515768Y11669369D01*
X2520492Y11668658D01*
X2546146Y11666474D01*
X2547802Y11622938D01*
X2797759Y11622938D01*
X2797860Y11641632D01*
X2798419Y11655399D01*
X2798826Y11659870D01*
X2799334Y11662410D01*
X2800096Y11663680D01*
X2801416Y11664746D01*
X2803347Y11665712D01*
X2805988Y11666474D01*
X2809392Y11667134D01*
X2818739Y11667947D01*
X2831998Y11668302D01*
X2849626Y11668150D01*
X2918561Y11666474D01*
X2918561Y11547500D01*
X2799588Y11547500D01*
X2797860Y11612422D01*
X2797759Y11622938D01*
X2547802Y11622938D01*
X2549194Y11586870D01*
X2568143Y11585295D01*
X2578963Y11583974D01*
X2584754Y11581333D01*
X2587091Y11575694D01*
X2587548Y11565585D01*
X2587091Y11555476D01*
X2584754Y11549837D01*
X2578963Y11547195D01*
X2568143Y11545874D01*
X2548737Y11544249D01*
X2548737Y11504168D01*
X2574239Y11501932D01*
X2578963Y11501221D01*
X2582468Y11500053D01*
X2584958Y11498326D01*
X2586685Y11495836D01*
X2587802Y11492331D01*
X2588564Y11487658D01*
X2589733Y11475313D01*
X2590444Y11470589D01*
X2591562Y11467134D01*
X2593289Y11464798D01*
X2595829Y11463324D01*
X2599436Y11462512D01*
X2604363Y11462207D01*
X2617266Y11462207D01*
X2622194Y11462512D01*
X2625801Y11463324D01*
X2628341Y11464798D01*
X2630068Y11467134D01*
X2631186Y11470589D01*
X2631897Y11475313D01*
X2633065Y11487607D01*
X2633827Y11492331D01*
X2634945Y11495836D01*
X2636672Y11498326D01*
X2639110Y11500053D01*
X2642565Y11501170D01*
X2647188Y11501932D01*
X2663799Y11503863D01*
X2669692Y11506708D01*
X2672537Y11512600D01*
X2674467Y11529212D01*
X2675229Y11533835D01*
X2676347Y11537289D01*
X2678074Y11539728D01*
X2680614Y11541455D01*
X2684068Y11542572D01*
X2688793Y11543334D01*
X2705557Y11545214D01*
X2711348Y11547805D01*
X2713786Y11553088D01*
X2714447Y11569598D01*
X2715107Y11575237D01*
X2716428Y11579504D01*
X2718460Y11582552D01*
X2721457Y11584482D01*
X2725470Y11585448D01*
X2730754Y11585651D01*
X2737358Y11585244D01*
X2753055Y11583670D01*
X2755454Y11483848D01*
X2838602Y11483848D01*
X2838754Y11489740D01*
X2839821Y11494465D01*
X2841853Y11498072D01*
X2844850Y11500612D01*
X2848914Y11502186D01*
X2854045Y11502796D01*
X2860344Y11502542D01*
X2869539Y11501170D01*
X2874568Y11498376D01*
X2876753Y11492738D01*
X2877210Y11482832D01*
X2876804Y11472722D01*
X2874619Y11467287D01*
X2869184Y11465153D01*
X2859074Y11464747D01*
X2849880Y11465204D01*
X2844088Y11466982D01*
X2840888Y11470640D01*
X2839262Y11476736D01*
X2838602Y11483848D01*
X2755454Y11483848D01*
X2755950Y11462766D01*
X2775204Y11461140D01*
X2785922Y11459870D01*
X2791663Y11457178D01*
X2794000Y11451539D01*
X2794457Y11441430D01*
X2794000Y11431371D01*
X2791663Y11425732D01*
X2785973Y11423040D01*
X2764739Y11420398D01*
X2758795Y11417604D01*
X2756001Y11411661D01*
X2753360Y11390477D01*
X2750667Y11384737D01*
X2745028Y11382400D01*
X2734970Y11381943D01*
X2724861Y11382400D01*
X2719222Y11384737D01*
X2716580Y11390477D01*
X2713939Y11411661D01*
X2711094Y11417604D01*
X2705150Y11420398D01*
X2694584Y11421770D01*
X2688590Y11422329D01*
X2683967Y11423091D01*
X2680512Y11424259D01*
X2678023Y11425936D01*
X2676347Y11428476D01*
X2675229Y11431981D01*
X2674467Y11436654D01*
X2673299Y11448999D01*
X2672537Y11453723D01*
X2671470Y11457127D01*
X2669743Y11459514D01*
X2667203Y11460937D01*
X2663596Y11461750D01*
X2658668Y11462054D01*
X2645765Y11462054D01*
X2640838Y11461750D01*
X2637180Y11460937D01*
X2634640Y11459514D01*
X2632964Y11457127D01*
X2631846Y11453723D01*
X2631084Y11448999D01*
X2629916Y11436654D01*
X2629204Y11431981D01*
X2628036Y11428476D01*
X2626360Y11425936D01*
X2623870Y11424259D01*
X2620416Y11423091D01*
X2615793Y11422329D01*
X2609799Y11421770D01*
X2599232Y11420398D01*
X2593289Y11417604D01*
X2590444Y11411661D01*
X2589123Y11401094D01*
X2587548Y11381943D01*
X2507386Y11378946D01*
X2507386Y11338001D01*
X2630881Y11338001D01*
X2632506Y11357406D01*
X2633776Y11368176D01*
X2636469Y11374018D01*
X2642057Y11376355D01*
X2652217Y11376812D01*
X2662326Y11376355D01*
X2667914Y11374018D01*
X2670606Y11368176D01*
X2671927Y11357406D01*
X2673502Y11338001D01*
X2879801Y11338001D01*
X2879699Y11364976D01*
X2879394Y11369954D01*
X2878632Y11373612D01*
X2877159Y11376202D01*
X2874822Y11377930D01*
X2871368Y11379047D01*
X2866644Y11379758D01*
X2849575Y11381689D01*
X2843784Y11384330D01*
X2841447Y11389969D01*
X2840990Y11400078D01*
X2840990Y11418163D01*
X2920746Y11421211D01*
X2923743Y11500916D01*
X2962097Y11504117D01*
X2965145Y11583670D01*
X3001314Y11583670D01*
X3004362Y11503507D01*
X3128060Y11503507D01*
X3128060Y11585854D01*
X3047898Y11588851D01*
X3044748Y11627256D01*
X2992932Y11629237D01*
X2983230Y11629847D01*
X2976016Y11630660D01*
X2970885Y11631828D01*
X2967482Y11633403D01*
X2965348Y11635587D01*
X2964129Y11638483D01*
X2963418Y11642242D01*
X2962757Y11647932D01*
X2962503Y11652758D01*
X2962808Y11656771D01*
X2963722Y11660124D01*
X2965399Y11662816D01*
X2967837Y11664848D01*
X2971241Y11666423D01*
X2975610Y11667439D01*
X2981096Y11668048D01*
X2987802Y11668302D01*
X3005124Y11667998D01*
X3042716Y11666474D01*
X3045917Y11627662D01*
X3044698Y11627662D01*
X3044748Y11627256D01*
X3045968Y11627205D01*
X3045917Y11627662D01*
X3086252Y11627662D01*
X3089249Y11707825D01*
X3114903Y11710009D01*
X3119628Y11710720D01*
X3123082Y11711838D01*
X3125419Y11713565D01*
X3126892Y11716156D01*
X3127705Y11719864D01*
X3128010Y11724843D01*
X3128060Y11751818D01*
X3045917Y11751818D01*
X3042716Y11713006D01*
X2965145Y11713006D01*
X2961944Y11751564D01*
X2758236Y11754408D01*
X2758236Y11772493D01*
X2758694Y11782602D01*
X2761030Y11788190D01*
X2766822Y11790883D01*
X2777642Y11792204D01*
X2796997Y11793778D01*
X2796997Y11916714D01*
X2771546Y11918899D01*
X2766822Y11919610D01*
X2763316Y11920778D01*
X2760827Y11922506D01*
X2759100Y11924995D01*
X2757982Y11928500D01*
X2757220Y11933174D01*
X2756052Y11945518D01*
X2755341Y11950293D01*
X2754223Y11953697D01*
X2752496Y11956084D01*
X2749905Y11957507D01*
X2746197Y11958320D01*
X2741218Y11958624D01*
X2714244Y11958675D01*
X2714244Y11876582D01*
X2733649Y11874957D01*
X2744470Y11873636D01*
X2750261Y11870994D01*
X2752598Y11865356D01*
X2753055Y11855246D01*
X2752648Y11845137D01*
X2750464Y11839702D01*
X2745079Y11837568D01*
X2734970Y11837162D01*
X2724861Y11837568D01*
X2719222Y11839956D01*
X2716530Y11845747D01*
X2714650Y11862765D01*
X2713939Y11867540D01*
X2712821Y11870944D01*
X2711094Y11873331D01*
X2708503Y11874754D01*
X2704846Y11875566D01*
X2699816Y11875871D01*
X2672892Y11875922D01*
X2672892Y11793778D01*
X2711704Y11790578D01*
X2714701Y11711025D01*
X2733852Y11709400D01*
X2744520Y11708130D01*
X2750261Y11705437D01*
X2752598Y11699849D01*
X2753055Y11689740D01*
X2752598Y11679631D01*
X2750312Y11674043D01*
X2744571Y11671350D01*
X2723337Y11668709D01*
X2717444Y11665864D01*
X2714599Y11659920D01*
X2713278Y11649354D01*
X2711704Y11630253D01*
X2634081Y11630253D01*
X2632506Y11649354D01*
X2631186Y11659920D01*
X2628341Y11665864D01*
X2622397Y11668709D01*
X2601214Y11671350D01*
X2595473Y11674043D01*
X2593136Y11679631D01*
X2592730Y11689740D01*
X2592730Y11707825D01*
X2672892Y11710873D01*
X2672892Y11793169D01*
X2645918Y11793118D01*
X2640939Y11792813D01*
X2637282Y11792000D01*
X2634691Y11790527D01*
X2632964Y11788190D01*
X2631846Y11784787D01*
X2631084Y11780012D01*
X2630525Y11773763D01*
X2629204Y11762994D01*
X2626563Y11757152D01*
X2620924Y11754815D01*
X2610815Y11754408D01*
X2600706Y11754815D01*
X2595118Y11757152D01*
X2592425Y11762892D01*
X2589784Y11784076D01*
X2586939Y11790019D01*
X2581046Y11792813D01*
X2570429Y11794185D01*
X2564434Y11794744D01*
X2559812Y11795506D01*
X2556357Y11796674D01*
X2553919Y11798350D01*
X2552192Y11800890D01*
X2551074Y11804396D01*
X2550312Y11809069D01*
X2548128Y11834571D01*
X2424176Y11834571D01*
X2427224Y11914733D01*
X2452827Y11916918D01*
X2457602Y11917629D01*
X2461006Y11918746D01*
X2463342Y11920474D01*
X2464816Y11923064D01*
X2465628Y11926722D01*
X2465933Y11931751D01*
X2465984Y11958675D01*
G37*
G36*
X2652522Y11958675D02*
G01*
X2645918Y11958624D01*
X2640939Y11958320D01*
X2637282Y11957507D01*
X2634691Y11956084D01*
X2632964Y11953697D01*
X2631846Y11950293D01*
X2631084Y11945518D01*
X2629916Y11933174D01*
X2629204Y11928500D01*
X2628036Y11924995D01*
X2626360Y11922506D01*
X2623820Y11920778D01*
X2620314Y11919610D01*
X2615641Y11918899D01*
X2603296Y11917730D01*
X2598521Y11916968D01*
X2595118Y11915851D01*
X2592730Y11914124D01*
X2591308Y11911584D01*
X2590495Y11907875D01*
X2590190Y11902897D01*
X2590139Y11875922D01*
X2672892Y11875922D01*
X2672892Y11958675D01*
G37*
G36*
X2838399Y11917324D02*
G01*
X2838450Y11890349D01*
X2838805Y11885371D01*
X2839567Y11881662D01*
X2841040Y11879122D01*
X2843377Y11877395D01*
X2846832Y11876278D01*
X2851556Y11875516D01*
X2877210Y11873331D01*
X2880207Y11793626D01*
X2959963Y11790578D01*
X2963164Y11751818D01*
X3045307Y11751818D01*
X3045307Y11792559D01*
X3019806Y11794744D01*
X3015132Y11795506D01*
X3011627Y11796623D01*
X3009087Y11798350D01*
X3007410Y11800789D01*
X3006242Y11804294D01*
X3005480Y11808917D01*
X3003296Y11834114D01*
X2923743Y11837162D01*
X2923743Y11855246D01*
X2924200Y11865356D01*
X2926537Y11870994D01*
X2932328Y11873636D01*
X2943148Y11874957D01*
X2949397Y11875516D01*
X2954172Y11876278D01*
X2957576Y11877395D01*
X2959912Y11879122D01*
X2961386Y11881713D01*
X2962148Y11885422D01*
X2962503Y11890502D01*
X2962554Y11917324D01*
G37*
G36*
X3045307Y11834571D02*
G01*
X3045307Y11793169D01*
X3086658Y11793169D01*
X3086658Y11834571D01*
G37*
G36*
X2590139Y11834571D02*
G01*
X2590139Y11793169D01*
X2631490Y11793169D01*
X2631490Y11834571D01*
G37*
G36*
X2300478Y11793169D02*
G01*
X2300478Y11751818D01*
X2341829Y11751818D01*
X2341829Y11793169D01*
G37*
G36*
X2342489Y11751818D02*
G01*
X2339289Y11713006D01*
X2259076Y11709958D01*
X2259076Y11586260D01*
X2341829Y11586260D01*
X2341778Y11613235D01*
X2341473Y11618214D01*
X2340711Y11621922D01*
X2339238Y11624513D01*
X2336901Y11626240D01*
X2333447Y11627307D01*
X2328722Y11628069D01*
X2322474Y11628628D01*
X2311654Y11629948D01*
X2305862Y11632641D01*
X2303475Y11638229D01*
X2303068Y11648338D01*
X2303068Y11666474D01*
X2383231Y11669471D01*
X2383231Y11751818D01*
G37*
G36*
X2134971Y11711025D02*
G01*
X2134362Y11710974D01*
X2134311Y11710416D01*
X2134971Y11710416D01*
X2134971Y11669014D01*
X2217724Y11669014D01*
X2217724Y11710416D01*
X2134971Y11710416D01*
G37*
G36*
X2672892Y11710416D02*
G01*
X2672892Y11669014D01*
X2714244Y11669014D01*
X2714244Y11710416D01*
G37*
G36*
X2383688Y11627662D02*
G01*
X2380640Y11547500D01*
X2259076Y11544554D01*
X2259076Y11483848D01*
X2300681Y11483848D01*
X2300833Y11489740D01*
X2301900Y11494465D01*
X2303932Y11498072D01*
X2306929Y11500612D01*
X2310993Y11502186D01*
X2316124Y11502796D01*
X2322423Y11502542D01*
X2331618Y11501120D01*
X2336901Y11498122D01*
X2339543Y11491976D01*
X2340914Y11481206D01*
X2342540Y11461496D01*
X2322779Y11463121D01*
X2312822Y11464391D01*
X2306574Y11466728D01*
X2303018Y11470640D01*
X2301341Y11476736D01*
X2300681Y11483848D01*
X2259076Y11483848D01*
X2259076Y11338001D01*
X2341829Y11338001D01*
X2341778Y11364976D01*
X2341473Y11369954D01*
X2340711Y11373612D01*
X2339238Y11376202D01*
X2336901Y11377930D01*
X2333447Y11379047D01*
X2328722Y11379758D01*
X2311654Y11381689D01*
X2305862Y11384330D01*
X2303475Y11389969D01*
X2303068Y11400078D01*
X2303475Y11410188D01*
X2305862Y11415776D01*
X2311654Y11418468D01*
X2322474Y11419789D01*
X2328722Y11420348D01*
X2333447Y11421110D01*
X2336901Y11422176D01*
X2339238Y11423904D01*
X2340711Y11426494D01*
X2341473Y11430203D01*
X2341778Y11435181D01*
X2341880Y11448440D01*
X2342184Y11453520D01*
X2342946Y11457127D01*
X2344420Y11459565D01*
X2346858Y11461038D01*
X2350516Y11461800D01*
X2355545Y11462105D01*
X2368804Y11462207D01*
X2373782Y11462512D01*
X2377490Y11463324D01*
X2380081Y11464747D01*
X2381808Y11467134D01*
X2382926Y11470538D01*
X2383637Y11475313D01*
X2384806Y11487658D01*
X2385568Y11492331D01*
X2386685Y11495836D01*
X2388412Y11498326D01*
X2390902Y11500053D01*
X2394407Y11501221D01*
X2399131Y11501932D01*
X2424176Y11504117D01*
X2427224Y11583670D01*
X2452827Y11585854D01*
X2457602Y11586616D01*
X2461006Y11587734D01*
X2463342Y11589461D01*
X2464816Y11592052D01*
X2465628Y11595709D01*
X2465933Y11600688D01*
X2465984Y11627662D01*
G37*
G36*
X1928063Y11627662D02*
G01*
X1928063Y11586260D01*
X2176322Y11586260D01*
X2176322Y11379403D01*
X1969465Y11379403D01*
X1969465Y11586260D01*
X1928063Y11586260D01*
X1928063Y11338001D01*
X2217724Y11338001D01*
X2217724Y11627662D01*
G37*
G36*
X2838399Y11627662D02*
G01*
X2838399Y11586260D01*
X2879801Y11586260D01*
X2879801Y11627662D01*
G37*
G36*
X2548737Y11586921D02*
G01*
X2548737Y11586260D01*
X2507386Y11586260D01*
X2507386Y11544909D01*
X2548737Y11544909D01*
X2548737Y11586260D01*
X2549194Y11586260D01*
X2549194Y11586870D01*
G37*
G36*
X2010816Y11544909D02*
G01*
X2010816Y11420754D01*
X2134971Y11420754D01*
X2134971Y11544909D01*
G37*
G36*
X2424633Y11504168D02*
G01*
X2424176Y11504117D01*
X2424176Y11503507D01*
X2424633Y11503507D01*
G37*
G36*
X2424633Y11503507D02*
G01*
X2424684Y11476786D01*
X2424988Y11471656D01*
X2425750Y11467947D01*
X2427224Y11465306D01*
X2429560Y11463578D01*
X2433015Y11462461D01*
X2437739Y11461750D01*
X2454808Y11459870D01*
X2460599Y11457178D01*
X2462987Y11451590D01*
X2463393Y11441430D01*
X2462987Y11431320D01*
X2460599Y11425732D01*
X2454808Y11423040D01*
X2443988Y11421719D01*
X2424633Y11420144D01*
X2424633Y11338001D01*
X2451557Y11338052D01*
X2456586Y11338356D01*
X2460244Y11339169D01*
X2462834Y11340642D01*
X2464562Y11342979D01*
X2465679Y11346434D01*
X2466390Y11351158D01*
X2467559Y11363502D01*
X2468321Y11368227D01*
X2469438Y11371681D01*
X2471166Y11374221D01*
X2473655Y11375948D01*
X2477160Y11377066D01*
X2481884Y11377828D01*
X2506827Y11379962D01*
X2508910Y11404752D01*
X2509672Y11409527D01*
X2510790Y11413032D01*
X2512517Y11415572D01*
X2515006Y11417300D01*
X2518511Y11418417D01*
X2523236Y11419179D01*
X2548737Y11421364D01*
X2548737Y11503507D01*
G37*
G36*
X2714244Y11462156D02*
G01*
X2714244Y11420754D01*
X2755646Y11420754D01*
X2755646Y11462156D01*
G37*
G36*
X3004566Y11462156D02*
G01*
X3002330Y11436654D01*
X3001619Y11431981D01*
X3000451Y11428476D01*
X2998774Y11425936D01*
X2996285Y11424259D01*
X2992831Y11423091D01*
X2988208Y11422329D01*
X2982214Y11421770D01*
X2971647Y11420398D01*
X2965704Y11417604D01*
X2962859Y11411661D01*
X2960979Y11395049D01*
X2960217Y11390426D01*
X2959049Y11387023D01*
X2957322Y11384534D01*
X2954832Y11382806D01*
X2951327Y11381689D01*
X2946654Y11380927D01*
X2934309Y11379758D01*
X2929585Y11379047D01*
X2926130Y11377930D01*
X2923794Y11376202D01*
X2922320Y11373612D01*
X2921558Y11369954D01*
X2921203Y11364976D01*
X2921152Y11338001D01*
X3044850Y11338001D01*
X3047898Y11418163D01*
X3086658Y11421364D01*
X3086658Y11462156D01*
G37*
G36*
X3086658Y11420754D02*
G01*
X3086658Y11379403D01*
X3128060Y11379403D01*
X3128060Y11420754D01*
G37*
G36*
X2507386Y11380012D02*
G01*
X2506827Y11379962D01*
X2506726Y11378946D01*
X2507386Y11378946D01*
G37*
G36*
X2548737Y12413843D02*
G01*
X2548737Y12289739D01*
X2507386Y12289739D01*
X2507386Y12248337D01*
X2548737Y12248337D01*
X2548737Y12289739D01*
X2589479Y12289739D01*
X2591714Y12315240D01*
X2592476Y12319914D01*
X2593594Y12323419D01*
X2595321Y12325908D01*
X2597810Y12327636D01*
X2601315Y12328804D01*
X2605989Y12329515D01*
X2618333Y12330684D01*
X2623058Y12331446D01*
X2626512Y12332512D01*
X2628849Y12334240D01*
X2630322Y12336780D01*
X2631135Y12340437D01*
X2631440Y12345365D01*
X2631440Y12358268D01*
X2631135Y12363145D01*
X2630322Y12366802D01*
X2628849Y12369342D01*
X2626512Y12371070D01*
X2623058Y12372136D01*
X2618333Y12372898D01*
X2605989Y12374067D01*
X2601315Y12374829D01*
X2597810Y12375946D01*
X2595321Y12377674D01*
X2593594Y12380163D01*
X2592476Y12383668D01*
X2591714Y12388342D01*
X2590546Y12400737D01*
X2589784Y12405461D01*
X2588666Y12408916D01*
X2586939Y12411252D01*
X2584297Y12412726D01*
X2580589Y12413488D01*
X2575509Y12413792D01*
G37*
G36*
X1928063Y12000077D02*
G01*
X1928063Y11669014D01*
X1969160Y11669014D01*
X1972005Y11831980D01*
X1990140Y11831980D01*
X2000250Y11831523D01*
X2005838Y11829186D01*
X2008530Y11823395D01*
X2009851Y11812574D01*
X2010410Y11806326D01*
X2011121Y11801551D01*
X2012238Y11798096D01*
X2014016Y11795760D01*
X2016607Y11794337D01*
X2020366Y11793524D01*
X2025446Y11793220D01*
X2052218Y11793169D01*
X2052218Y11792559D01*
X2052777Y11792610D01*
X2052828Y11793169D01*
X2052218Y11793169D01*
X2052269Y11838533D01*
X2052828Y11852757D01*
X2053843Y11864136D01*
X2054453Y11868302D01*
X2055164Y11871198D01*
X2055875Y11872722D01*
X2058568Y11874042D01*
X2063089Y11874906D01*
X2068880Y11875211D01*
X2075281Y11874906D01*
X2090978Y11873331D01*
X2090978Y11795760D01*
X2052777Y11792610D01*
X2050643Y11767667D01*
X2049881Y11762994D01*
X2048764Y11759488D01*
X2047036Y11756948D01*
X2044496Y11755272D01*
X2041042Y11754104D01*
X2036318Y11753342D01*
X2010816Y11751157D01*
X2010816Y11669014D01*
X2092960Y11669014D01*
X2095144Y11694515D01*
X2095906Y11699240D01*
X2097024Y11702745D01*
X2098751Y11705234D01*
X2101240Y11706961D01*
X2104745Y11708079D01*
X2109470Y11708841D01*
X2134362Y11710974D01*
X2137562Y11749227D01*
X2259076Y11752122D01*
X2259076Y11792864D01*
X2137562Y11795760D01*
X2137562Y11831980D01*
X2341829Y11834774D01*
X2341829Y11875719D01*
X2137562Y11878513D01*
X2134362Y11916867D01*
X2054758Y11919915D01*
X2051761Y12000077D01*
X2011273Y12000077D01*
X2008225Y11919915D01*
X1972005Y11919915D01*
X1969007Y12000077D01*
G37*
D25*
X3387343Y10196321D02*
G01*
X3376929Y10206736D01*
X3361436Y10211815D01*
X3340608Y10211815D01*
X3325113Y10206736D01*
X3314700Y10196321D01*
X3314700Y10185908D01*
X3319779Y10175494D01*
X3325113Y10170160D01*
X3335527Y10165079D01*
X3366770Y10154665D01*
X3376929Y10149586D01*
X3382263Y10144252D01*
X3387343Y10133837D01*
X3387343Y10118344D01*
X3376929Y10107929D01*
X3361436Y10102850D01*
X3340608Y10102850D01*
X3325113Y10107929D01*
X3314700Y10118344D01*
X3421634Y10211815D02*
G01*
X3447795Y10102850D01*
X3473704Y10211815D02*
G01*
X3447795Y10102850D01*
X3473704Y10211815D02*
G01*
X3499611Y10102850D01*
X3525520Y10211815D02*
G01*
X3499611Y10102850D01*
X3559809Y10190987D02*
G01*
X3570224Y10196321D01*
X3585972Y10211815D01*
X3585972Y10102850D01*
X2208784Y7848600D02*
G01*
X2286761Y7848600D01*
X2302256Y7853679D01*
X2312670Y7864094D01*
X2317750Y7879842D01*
X2317750Y7890255D01*
X2312670Y7905750D01*
X2302256Y7916163D01*
X2286761Y7921244D01*
X2208784Y7921244D01*
X2234691Y7960868D02*
G01*
X2229611Y7960868D01*
X2219197Y7965947D01*
X2213863Y7971281D01*
X2208784Y7981695D01*
X2208784Y8002270D01*
X2213863Y8012684D01*
X2219197Y8018018D01*
X2229611Y8023097D01*
X2240025Y8023097D01*
X2250440Y8018018D01*
X2265934Y8007604D01*
X2317750Y7955534D01*
X2317750Y8028431D01*
X1631264Y13056514D02*
G01*
X1620850Y13051434D01*
X1610690Y13041020D01*
X1605356Y13030606D01*
X1600276Y13015112D01*
X1600276Y12989204D01*
X1605356Y12973456D01*
X1610690Y12963042D01*
X1620850Y12952628D01*
X1631264Y12947548D01*
X1652092Y12947548D01*
X1662506Y12952628D01*
X1672920Y12963042D01*
X1678000Y12973456D01*
X1683334Y12989204D01*
X1683334Y13015112D01*
X1678000Y13030606D01*
X1672920Y13041020D01*
X1662506Y13051434D01*
X1652092Y13056514D01*
X1631264Y13056514D01*
X1717624Y13056514D02*
G01*
X1717624Y12947548D01*
X1717624Y12947548D02*
G01*
X1779854Y12947548D01*
X1814144Y13056514D02*
G01*
X1814144Y12947548D01*
X1814144Y13056514D02*
G01*
X1881708Y13056514D01*
X1814144Y13004698D02*
G01*
X1855800Y13004698D01*
X1814144Y12947548D02*
G01*
X1881708Y12947548D01*
X1915998Y13056514D02*
G01*
X1915998Y12947548D01*
X1915998Y13056514D02*
G01*
X1952320Y13056514D01*
X1968068Y13051434D01*
X1978482Y13041020D01*
X1983562Y13030606D01*
X1988896Y13015112D01*
X1988896Y12989204D01*
X1983562Y12973456D01*
X1978482Y12963042D01*
X1968068Y12952628D01*
X1952320Y12947548D01*
X1915998Y12947548D01*
D26*
X2312616Y12895308D02*
G01*
X2341572Y12818854D01*
X2370528Y12895308D02*
G01*
X2341572Y12818854D01*
X2449268Y12877020D02*
G01*
X2445458Y12884386D01*
X2438346Y12891498D01*
X2430980Y12895308D01*
X2416248Y12895308D01*
X2409390Y12891498D01*
X2401770Y12884386D01*
X2398468Y12877020D01*
X2394658Y12866098D01*
X2394658Y12848064D01*
X2398468Y12837142D01*
X2401770Y12829776D01*
X2409390Y12822410D01*
X2416248Y12818854D01*
X2430980Y12818854D01*
X2438346Y12822410D01*
X2445458Y12829776D01*
X2449268Y12837142D01*
X2527754Y12877020D02*
G01*
X2523944Y12884386D01*
X2516832Y12891498D01*
X2509720Y12895308D01*
X2495242Y12895308D01*
X2487622Y12891498D01*
X2480256Y12884386D01*
X2476700Y12877020D01*
X2473144Y12866098D01*
X2473144Y12848064D01*
X2476700Y12837142D01*
X2480256Y12829776D01*
X2487622Y12822410D01*
X2495242Y12818854D01*
X2509720Y12818854D01*
X2516832Y12822410D01*
X2523944Y12829776D01*
X2527754Y12837142D01*
X2066998Y12876766D02*
G01*
X2063188Y12884132D01*
X2056076Y12891244D01*
X2048710Y12895054D01*
X2034232Y12895054D01*
X2026866Y12891244D01*
X2019754Y12884132D01*
X2015944Y12876766D01*
X2012388Y12865844D01*
X2012388Y12847810D01*
X2015944Y12836888D01*
X2019754Y12829522D01*
X2026866Y12822156D01*
X2034232Y12818600D01*
X2048710Y12818600D01*
X2056076Y12822156D01*
X2063188Y12829522D01*
X2066998Y12836888D01*
X2066998Y12847810D01*
X2048710Y12847810D02*
G01*
X2066998Y12847810D01*
X2090874Y12895054D02*
G01*
X2090874Y12818600D01*
X2090874Y12895054D02*
G01*
X2141928Y12818600D01*
X2141928Y12895054D02*
G01*
X2141928Y12818600D01*
X2165804Y12895054D02*
G01*
X2165804Y12818600D01*
X2165804Y12895054D02*
G01*
X2191204Y12895054D01*
X2202126Y12891244D01*
X2209492Y12884132D01*
X2213048Y12876766D01*
X2216858Y12865844D01*
X2216858Y12847810D01*
X2213048Y12836888D01*
X2209492Y12829522D01*
X2202126Y12822156D01*
X2191204Y12818600D01*
X2165804Y12818600D01*
X2628338Y12886418D02*
G01*
X2620972Y12893530D01*
X2610050Y12897340D01*
X2595572Y12897340D01*
X2584650Y12893530D01*
X2577538Y12886418D01*
X2577538Y12879052D01*
X2580840Y12871940D01*
X2584650Y12868130D01*
X2592016Y12864574D01*
X2613606Y12857208D01*
X2620972Y12853652D01*
X2624528Y12850096D01*
X2628338Y12842730D01*
X2628338Y12831808D01*
X2620972Y12824442D01*
X2610050Y12820886D01*
X2595572Y12820886D01*
X2584650Y12824442D01*
X2577538Y12831808D01*
X2706824Y12879052D02*
G01*
X2703014Y12886418D01*
X2695902Y12893530D01*
X2688790Y12897340D01*
X2674058Y12897340D01*
X2666692Y12893530D01*
X2659580Y12886418D01*
X2655770Y12879052D01*
X2652214Y12868130D01*
X2652214Y12850096D01*
X2655770Y12839174D01*
X2659580Y12831808D01*
X2666692Y12824442D01*
X2674058Y12820886D01*
X2688790Y12820886D01*
X2695902Y12824442D01*
X2703014Y12831808D01*
X2706824Y12839174D01*
X2730700Y12897340D02*
G01*
X2730700Y12820886D01*
X2730700Y12820886D02*
G01*
X2774642Y12820886D01*
X2863288Y12885402D02*
G01*
X2856176Y12892514D01*
X2845254Y12896324D01*
X2830776Y12896324D01*
X2819854Y12892514D01*
X2812488Y12885402D01*
X2812488Y12878036D01*
X2816044Y12870924D01*
X2819854Y12867114D01*
X2826966Y12863558D01*
X2848810Y12856192D01*
X2856176Y12852636D01*
X2859732Y12849080D01*
X2863288Y12841714D01*
X2863288Y12830792D01*
X2856176Y12823426D01*
X2845254Y12819870D01*
X2830776Y12819870D01*
X2819854Y12823426D01*
X2812488Y12830792D01*
X2887418Y12896324D02*
G01*
X2887418Y12819870D01*
X2887418Y12896324D02*
G01*
X2912818Y12896324D01*
X2923740Y12892514D01*
X2931106Y12885402D01*
X2934662Y12878036D01*
X2938218Y12867114D01*
X2938218Y12849080D01*
X2934662Y12838158D01*
X2931106Y12830792D01*
X2923740Y12823426D01*
X2912818Y12819870D01*
X2887418Y12819870D01*
X2991304Y12896324D02*
G01*
X2962348Y12819870D01*
X2991304Y12896324D02*
G01*
X3020514Y12819870D01*
X2973270Y12845270D02*
G01*
X3009592Y12845270D01*
D25*
X1799844Y10196321D02*
G01*
X1789429Y10206736D01*
X1773936Y10211815D01*
X1753107Y10211815D01*
X1737613Y10206736D01*
X1727200Y10196321D01*
X1727200Y10185908D01*
X1732279Y10175494D01*
X1737613Y10170160D01*
X1748028Y10165079D01*
X1779270Y10154665D01*
X1789429Y10149586D01*
X1794763Y10144252D01*
X1799844Y10133837D01*
X1799844Y10118344D01*
X1789429Y10107929D01*
X1773936Y10102850D01*
X1753107Y10102850D01*
X1737613Y10107929D01*
X1727200Y10118344D01*
X1834134Y10211815D02*
G01*
X1860295Y10102850D01*
X1886204Y10211815D02*
G01*
X1860295Y10102850D01*
X1886204Y10211815D02*
G01*
X1912112Y10102850D01*
X1938020Y10211815D02*
G01*
X1912112Y10102850D01*
X1977643Y10185908D02*
G01*
X1977643Y10190987D01*
X1982724Y10201402D01*
X1988058Y10206736D01*
X1998472Y10211815D01*
X2019300Y10211815D01*
X2029459Y10206736D01*
X2034793Y10201402D01*
X2039874Y10190987D01*
X2039874Y10180574D01*
X2034793Y10170160D01*
X2024379Y10154665D01*
X1972309Y10102850D01*
X2045208Y10102850D01*
D10*
X3089521Y9430893D02*
G01*
X3590678Y9430893D01*
X3650106Y9627953D02*
G01*
X3650106Y9853846D01*
X3590678Y10050906D02*
G01*
X3089521Y10050906D01*
X3030093Y9853846D02*
G01*
X3030093Y9627953D01*
D25*
X2372481Y8081937D02*
G01*
X3037718Y8081937D01*
X3037718Y7787652D01*
X2372481Y7787652D01*
X2372481Y8081937D01*
D10*
X1502021Y9430893D02*
G01*
X2003178Y9430893D01*
X2062606Y9627953D02*
G01*
X2062606Y9853846D01*
X2003178Y10050906D02*
G01*
X1502021Y10050906D01*
X1442593Y9853846D02*
G01*
X1442593Y9627953D01*
G75*
G01
X3454400Y9740900D02*
G03X3454400Y9740900I-114300J0D01*
G75*
G01
X3490214Y9740900D02*
G03X3490214Y9740900I-150114J0D01*
G75*
G01
X3547897Y9918700D02*
G03X3547897Y9918700I-29997J0D01*
G75*
G01
X3547897Y9563100D02*
G03X3547897Y9563100I-29997J0D01*
G75*
G01
X3192297Y9918700D02*
G03X3192297Y9918700I-29997J0D01*
G75*
G01
X3192297Y9588500D02*
G03X3192297Y9588500I-29997J0D01*
G75*
G01
X1866900Y9740900D02*
G03X1866900Y9740900I-114300J0D01*
G75*
G01
X1902714Y9740900D02*
G03X1902714Y9740900I-150114J0D01*
G75*
G01
X1960397Y9918700D02*
G03X1960397Y9918700I-29997J0D01*
G75*
G01
X1960397Y9563100D02*
G03X1960397Y9563100I-29997J0D01*
G75*
G01
X1604797Y9918700D02*
G03X1604797Y9918700I-29997J0D01*
G75*
G01
X1604797Y9588500D02*
G03X1604797Y9588500I-29997J0D01*
M02*
