G04 Layer: TopLayer*
G04 EasyEDA v6.5.3, 2022-04-03 23:40:25*
G04 a321ff13c4ce4c21ba8c8ab1f3bc68dd,81413e43fb254311a4bdf48f3ba91f1a,10*
G04 Gerber Generator version 0.2*
G04 Scale: 100 percent, Rotated: No, Reflected: No *
G04 Dimensions in millimeters *
G04 leading zeros omitted , absolute positions ,4 integer and 5 decimal *
%FSLAX45Y45*%
%MOMM*%

%ADD10C,0.2540*%
%ADD11C,0.6000*%
%ADD12C,0.6100*%
%ADD13R,1.8360X1.0401*%
%ADD15R,1.1000X2.5000*%
%ADD16R,1.5240X1.5240*%
%ADD17C,1.5240*%
%ADD18C,1.4986*%
%ADD21C,1.7000*%
%ADD22C,1.8000*%
%ADD24C,1.7780*%

%LPD*%
D11*
X2935224Y7920481D02*
G01*
X3018027Y8003286D01*
X3018027Y8415528D01*
X3314700Y8712200D01*
X3314700Y9144000D01*
X3403600Y9144000D01*
X3556000Y9144000D01*
X2935099Y7767495D02*
G01*
X2935099Y7614587D01*
X2935224Y7614665D02*
G01*
X2813558Y7493000D01*
X1849373Y7493000D01*
X1574800Y7607300D01*
X1574800Y7747000D01*
D10*
X3993212Y8356191D02*
G01*
X4262732Y8625710D01*
X4262732Y10748667D01*
X4140202Y10871197D01*
X3873502Y8356191D02*
G01*
X3993212Y8356191D01*
X1879602Y9766297D02*
G01*
X1879602Y10119179D01*
X2475105Y7614587D02*
G01*
X1961238Y7614587D01*
X1828827Y7746997D01*
X2475105Y7767495D02*
G01*
X2475105Y7614587D01*
X3993212Y8560203D02*
G01*
X3993212Y8940391D01*
X3873502Y8560203D02*
G01*
X3993212Y8560203D01*
X3933370Y8940391D02*
G01*
X3993212Y8940391D01*
X3933370Y8940391D02*
G01*
X3873502Y8940391D01*
X3873502Y8940391D02*
G01*
X3606396Y8940391D01*
X3556002Y8889997D01*
X4140202Y11125197D02*
G01*
X4140202Y11379197D01*
X4140202Y11125197D02*
G01*
X4325470Y10939929D01*
X4325470Y8619690D01*
X3981884Y8276104D01*
X3661895Y8276104D01*
X3556002Y8381997D01*
X3993212Y9144403D02*
G01*
X3993212Y9216895D01*
X3963291Y9246816D01*
X3963291Y11352171D01*
X4140202Y11529082D01*
X3873502Y9144403D02*
G01*
X3993212Y9144403D01*
X4140202Y11633197D02*
G01*
X4140202Y11529082D01*
D11*
X2935099Y7769959D02*
G01*
X2935099Y7920403D01*
D10*
X2935099Y7769959D02*
G01*
X2935099Y7767495D01*
X3467102Y9843742D02*
G01*
X3383714Y9927130D01*
X3383714Y11074397D01*
X3467102Y9740897D02*
G01*
X3467102Y9843742D01*
X2705102Y7920403D02*
G01*
X2913026Y8128327D01*
X2913026Y8361499D01*
X2705102Y7767495D02*
G01*
X2705102Y7920403D01*
X2767205Y8361499D02*
G01*
X2913026Y8361499D01*
X2767205Y8361499D02*
G01*
X3213102Y8807396D01*
X3213102Y9740897D01*
X1384302Y8533991D02*
G01*
X1504012Y8533991D01*
X2705102Y7767495D02*
G01*
X2705102Y7614587D01*
X2705102Y7614587D02*
G01*
X2705102Y7596527D01*
X927102Y11315697D02*
G01*
X927102Y11202794D01*
X1427482Y9965941D02*
G01*
X1427482Y10702414D01*
X1427482Y10702414D02*
G01*
X927102Y11202794D01*
X1427482Y10702414D02*
G01*
X1428092Y10702414D01*
X1484073Y10758396D01*
X2736166Y8361499D02*
G01*
X2767205Y8361499D01*
X2736166Y8361499D02*
G01*
X2705102Y8361499D01*
X2497178Y8361499D02*
G01*
X2222680Y8635997D01*
X1654177Y8635997D01*
X1630098Y8660076D01*
X1504012Y8533991D02*
G01*
X1630098Y8660076D01*
X1630098Y8660076D02*
G01*
X1630098Y9761801D01*
X1625602Y9766297D01*
X2705102Y8361499D02*
G01*
X2497178Y8361499D01*
X1504012Y8738003D02*
G01*
X1545567Y8779558D01*
X1545567Y9662360D01*
X1519684Y9688243D01*
X1519684Y9843437D01*
X2055573Y10379326D01*
X2055573Y10866041D01*
X1384302Y8738003D02*
G01*
X1504012Y8738003D01*
D13*
G01*
X1384300Y8738006D03*
G01*
X1384300Y8533993D03*
G01*
X3873500Y8940393D03*
G01*
X3873500Y9144406D03*
G01*
X3873500Y8560206D03*
G01*
X3873500Y8356193D03*
G36*
X2885099Y8244494D02*
G01*
X2525100Y8244494D01*
X2525100Y8478494D01*
X2885099Y8478494D01*
G37*
D15*
G01*
X2935097Y7767497D03*
G01*
X2705100Y7767497D03*
G01*
X2475102Y7767497D03*
D16*
G01*
X939800Y9017000D03*
D17*
G01*
X939800Y8763000D03*
G01*
X939800Y8509000D03*
G01*
X939800Y8255000D03*
D18*
G01*
X3213100Y9740900D03*
G36*
X3542029Y9815829D02*
G01*
X3392170Y9815829D01*
X3392170Y9665970D01*
X3542029Y9665970D01*
G37*
G36*
X1012088Y11230711D02*
G01*
X1012088Y11400688D01*
X842111Y11400688D01*
X842111Y11230711D01*
G37*
D21*
G01*
X927100Y11569700D03*
G01*
X927100Y11823700D03*
G01*
X927100Y12077700D03*
G01*
X927100Y12331700D03*
D18*
G01*
X1828825Y7747000D03*
G36*
X1499870Y7672070D02*
G01*
X1649729Y7672070D01*
X1649729Y7821929D01*
X1499870Y7821929D01*
G37*
G36*
X3471011Y9228988D02*
G01*
X3471011Y9059011D01*
X3640988Y9059011D01*
X3640988Y9228988D01*
G37*
D21*
G01*
X3556000Y8890000D03*
G01*
X3556000Y8636000D03*
G01*
X3556000Y8382000D03*
G01*
X3556000Y8128000D03*
D17*
G01*
X1778000Y9017000D03*
G01*
X1778000Y8763000D03*
G01*
X1778000Y8509000D03*
G01*
X1778000Y8255000D03*
D18*
G01*
X1625600Y9766300D03*
G36*
X1954529Y9841229D02*
G01*
X1804670Y9841229D01*
X1804670Y9691370D01*
X1954529Y9691370D01*
G37*
D16*
G01*
X4140200Y11633200D03*
D17*
G01*
X4140200Y11379200D03*
G01*
X4140200Y11125200D03*
G01*
X4140200Y10871200D03*
D18*
G01*
X4140200Y12115800D03*
G36*
X4065270Y12444729D02*
G01*
X4065270Y12294870D01*
X4215129Y12294870D01*
X4215129Y12444729D01*
G37*
G01*
X2654300Y9512300D03*
G36*
X2325370Y9437370D02*
G01*
X2475229Y9437370D01*
X2475229Y9587229D01*
X2325370Y9587229D01*
G37*
D22*
G01*
X3014979Y9965944D03*
G01*
X3014979Y9515855D03*
G01*
X3665220Y9965944D03*
G01*
X3665220Y9515855D03*
G36*
X2064204Y13100210D02*
G01*
X2242004Y13100210D01*
X2242004Y12922410D01*
X2064204Y12922410D01*
G37*
D24*
G01*
X2407107Y13011378D03*
G01*
X2661107Y13011378D03*
G01*
X2915107Y13011378D03*
D22*
G01*
X1427479Y9965944D03*
G01*
X1427479Y9515855D03*
G01*
X2077720Y9965944D03*
G01*
X2077720Y9515855D03*
D12*
G01*
X2055573Y10866041D03*
G01*
X1484073Y10758396D03*
G01*
X2705102Y7596527D03*
G01*
X3383714Y11074397D03*
G01*
X1879602Y10119179D03*
M02*
