G04 Layer: BottomLayer*
G04 EasyEDA v6.5.3, 2022-04-03 23:40:25*
G04 a321ff13c4ce4c21ba8c8ab1f3bc68dd,81413e43fb254311a4bdf48f3ba91f1a,10*
G04 Gerber Generator version 0.2*
G04 Scale: 100 percent, Rotated: No, Reflected: No *
G04 Dimensions in millimeters *
G04 leading zeros omitted , absolute positions ,4 integer and 5 decimal *
%FSLAX45Y45*%
%MOMM*%

%ADD10C,0.2540*%
%ADD11C,0.6000*%
%ADD12C,0.6100*%
%ADD16R,1.5240X1.5240*%
%ADD17C,1.5240*%
%ADD18C,1.4986*%
%ADD21C,1.7000*%
%ADD22C,1.8000*%
%ADD24C,1.7780*%

%LPD*%
D11*
X3006803Y9159821D02*
G01*
X3006778Y9159796D01*
X3006778Y8111411D01*
X3117242Y8000946D01*
X3117242Y7905087D01*
X3006803Y9159821D02*
G01*
X3276627Y8889997D01*
X3556002Y8889997D01*
D10*
X3006803Y9159821D02*
G01*
X2654302Y9512297D01*
X2077722Y9515853D02*
G01*
X1930123Y9663452D01*
X1879602Y9663452D01*
X1879602Y9714887D02*
G01*
X1879602Y9663452D01*
X1879602Y9714887D02*
G01*
X1879602Y9766297D01*
X1879602Y9766297D02*
G01*
X1879602Y9869142D01*
X927102Y10738253D02*
G01*
X1046812Y10738253D01*
X1879602Y9869142D02*
G01*
X1816102Y9869142D01*
X1046812Y10638431D01*
X1046812Y10738253D01*
X1726465Y10574017D02*
G01*
X1726288Y10573839D01*
X1726288Y10272494D01*
X1879602Y10119179D01*
X1864362Y10574017D02*
G01*
X1726465Y10574017D01*
D11*
X1778002Y8254997D02*
G01*
X939802Y8254997D01*
X1778002Y9016997D02*
G01*
X939802Y9016997D01*
D10*
X4140202Y12115797D02*
G01*
X4243224Y12218819D01*
X4243224Y12472819D01*
X3586939Y13129105D01*
X2358519Y13129105D01*
X2269924Y13040509D01*
X2269924Y13011299D01*
X2153109Y13011299D02*
G01*
X2269924Y13011299D01*
D11*
X2171702Y7905087D02*
G01*
X1986917Y7905087D01*
X1828827Y7746997D01*
X3117242Y7905087D02*
G01*
X2171702Y7905087D01*
D10*
X2654302Y9512297D02*
G01*
X2301674Y9864925D01*
X2301674Y9919738D01*
X2137387Y10084026D01*
X2081176Y10084026D01*
X2002259Y10162943D01*
X2002259Y10373357D01*
X1864362Y10373357D02*
G01*
X2002259Y10373357D01*
X3165172Y7905087D02*
G01*
X3117242Y7905087D01*
X3165172Y7905087D02*
G01*
X3213102Y7905087D01*
X3213102Y7905087D02*
G01*
X3512568Y7905087D01*
X4071292Y8463810D01*
X4071292Y8724491D01*
X4191002Y8724491D02*
G01*
X4071292Y8724491D01*
X2153109Y13011299D02*
G01*
X1606704Y13011299D01*
X927102Y12331697D01*
X927102Y10534241D02*
G01*
X807392Y10534241D01*
X793066Y10855678D02*
G01*
X1983107Y10855678D01*
X2002436Y10836348D01*
X2002436Y10373535D01*
X2002259Y10373357D01*
X927102Y12331697D02*
G01*
X750115Y12154710D01*
X750115Y10898629D01*
X793066Y10855678D01*
X793066Y10855678D02*
G01*
X793066Y10548566D01*
X807392Y10534241D01*
X2661109Y13011376D02*
G01*
X2661109Y12032968D01*
X2002259Y11374117D01*
X1864362Y11374117D02*
G01*
X2002259Y11374117D01*
X2915109Y13011376D02*
G01*
X2915109Y12086308D01*
X2002259Y11173457D01*
X1864362Y11173457D02*
G01*
X2002259Y11173457D01*
X4140202Y12369797D02*
G01*
X3486203Y12369797D01*
X2091743Y10975337D01*
X1864362Y10975337D01*
X1574802Y12331291D02*
G01*
X1455092Y12331291D01*
X1864362Y10975337D02*
G01*
X1041427Y10975337D01*
X803785Y11212979D01*
X803785Y11954380D01*
X927102Y12077697D01*
X927102Y12077697D02*
G01*
X1201498Y12077697D01*
X1455092Y12331291D01*
X2002259Y11574777D02*
G01*
X2002436Y11574955D01*
X2002436Y11846176D01*
X1995045Y11853567D01*
X956972Y11853567D01*
X927102Y11823697D01*
X1864362Y11574777D02*
G01*
X2002259Y11574777D01*
X1864362Y11775437D02*
G01*
X1132842Y11775437D01*
X927102Y11569697D01*
D11*
X1778002Y8508997D02*
G01*
X939802Y8508997D01*
X1778002Y8762997D02*
G01*
X939802Y8762997D01*
D10*
X1346202Y10534241D02*
G01*
X1465912Y10534241D01*
X2400302Y9512297D02*
G01*
X2297457Y9512297D01*
X2297457Y9512297D02*
G01*
X2297457Y9570615D01*
X1496037Y10372036D01*
X1496037Y10534241D01*
X1496037Y10534241D02*
G01*
X1465912Y10534241D01*
X1496037Y10534241D02*
G01*
X1726465Y10764669D01*
X1726465Y10774677D01*
X1864362Y10774677D02*
G01*
X1726465Y10774677D01*
X4140202Y11125197D02*
G01*
X3990342Y10975337D01*
X3342642Y10975337D01*
X4140202Y11633197D02*
G01*
X3538959Y11633197D01*
X3480539Y11574777D01*
X3342642Y11574777D02*
G01*
X3480539Y11574777D01*
X2075842Y7665107D02*
G01*
X2048868Y7638133D01*
X1786511Y7638133D01*
X1677647Y7746997D01*
X2171702Y7665107D02*
G01*
X2075842Y7665107D01*
X1574802Y7746997D02*
G01*
X1677647Y7746997D01*
X3556002Y8635997D02*
G01*
X3669057Y8749052D01*
X3669057Y9259491D01*
X3364105Y9564443D01*
X3364105Y10119992D01*
X3487346Y10243233D01*
X3487346Y10767870D01*
X3480539Y10774677D01*
X3342642Y10774677D02*
G01*
X3480539Y10774677D01*
X3204745Y10574017D02*
G01*
X3203221Y10575541D01*
X3203221Y10845416D01*
X3210613Y10852807D01*
X3465857Y10852807D01*
X4310890Y10007775D01*
X4310890Y8855809D01*
X4303499Y8848417D01*
X4113938Y8848417D01*
X3696921Y8431400D01*
X3696921Y8268916D01*
X3556002Y8127997D01*
X3342642Y10574017D02*
G01*
X3204745Y10574017D01*
X3467102Y9740897D02*
G01*
X3467102Y9638052D01*
X3665222Y9515853D02*
G01*
X3543023Y9638052D01*
X3467102Y9638052D01*
X4071292Y8928503D02*
G01*
X4071292Y9109783D01*
X3665222Y9515853D01*
X4191002Y8928503D02*
G01*
X4071292Y8928503D01*
X3383714Y11074397D02*
G01*
X3452040Y11074397D01*
X3480539Y11102896D01*
X3480539Y11173457D01*
X3342642Y11173457D02*
G01*
X3480539Y11173457D01*
X1427482Y9965941D02*
G01*
X1625602Y9767821D01*
X1625602Y9766297D01*
X3014982Y9965941D02*
G01*
X3213102Y9767821D01*
X3213102Y9740897D01*
X3213102Y7665107D02*
G01*
X2773682Y7665107D01*
X2705102Y7596527D01*
X3204745Y10373357D02*
G01*
X3204745Y10155704D01*
X3014982Y9965941D01*
X3342642Y10373357D02*
G01*
X3204745Y10373357D01*
X1346202Y10738253D02*
G01*
X1465912Y10738253D01*
X1465912Y10738253D02*
G01*
X1465912Y10740235D01*
X1484073Y10758396D01*
X927102Y11315697D02*
G01*
X1040005Y11315697D01*
X2053465Y12535303D02*
G01*
X2053465Y11558191D01*
X1951890Y11456616D01*
X1180924Y11456616D01*
X1040005Y11315697D01*
X2407109Y13011376D02*
G01*
X2053465Y12657731D01*
X2053465Y12535303D01*
X2053465Y12535303D02*
G01*
X1574802Y12535303D01*
X3342642Y11775437D02*
G01*
X3204745Y11775437D01*
X3342642Y11374117D02*
G01*
X3214829Y11374117D01*
X2055573Y10866041D02*
G01*
X2686230Y10866041D01*
X3204568Y11384379D01*
X3214829Y11374117D02*
G01*
X3204568Y11384379D01*
X3204568Y11384379D02*
G01*
X3204568Y11775259D01*
X3204745Y11775437D01*
G36*
X4282800Y8672489D02*
G01*
X4282800Y8776497D01*
X4099199Y8776497D01*
X4099199Y8672489D01*
G37*
G36*
X4282800Y8876502D02*
G01*
X4282800Y8980510D01*
X4099199Y8980510D01*
X4099199Y8876502D01*
G37*
G36*
X1438000Y10482239D02*
G01*
X1438000Y10586247D01*
X1254399Y10586247D01*
X1254399Y10482239D01*
G37*
G36*
X1438000Y10686252D02*
G01*
X1438000Y10790260D01*
X1254399Y10790260D01*
X1254399Y10686252D01*
G37*
G36*
X1018900Y10482239D02*
G01*
X1018900Y10586247D01*
X835299Y10586247D01*
X835299Y10482239D01*
G37*
G36*
X1018900Y10686252D02*
G01*
X1018900Y10790260D01*
X835299Y10790260D01*
X835299Y10686252D01*
G37*
G36*
X1666600Y12279289D02*
G01*
X1666600Y12383297D01*
X1482999Y12383297D01*
X1482999Y12279289D01*
G37*
G36*
X1666600Y12483302D02*
G01*
X1666600Y12587310D01*
X1482999Y12587310D01*
X1482999Y12483302D01*
G37*
G36*
X3452622Y11825478D02*
G01*
X3232658Y11825478D01*
X3232658Y11725402D01*
X3452622Y11725402D01*
G37*
G36*
X3452622Y11624818D02*
G01*
X3232658Y11624818D01*
X3232658Y11524742D01*
X3452622Y11524742D01*
G37*
G36*
X3452622Y11424158D02*
G01*
X3232658Y11424158D01*
X3232658Y11324081D01*
X3452622Y11324081D01*
G37*
G36*
X3452622Y11223497D02*
G01*
X3232658Y11223497D01*
X3232658Y11123421D01*
X3452622Y11123421D01*
G37*
G36*
X3452622Y11025378D02*
G01*
X3232658Y11025378D01*
X3232658Y10925302D01*
X3452622Y10925302D01*
G37*
G36*
X3452622Y10824718D02*
G01*
X3232658Y10824718D01*
X3232658Y10724642D01*
X3452622Y10724642D01*
G37*
G36*
X3452622Y10624058D02*
G01*
X3232658Y10624058D01*
X3232658Y10523981D01*
X3452622Y10523981D01*
G37*
G36*
X3452622Y10423397D02*
G01*
X3232658Y10423397D01*
X3232658Y10323321D01*
X3452622Y10323321D01*
G37*
G36*
X3153918Y10153522D02*
G01*
X3153918Y10303637D01*
X3053841Y10303637D01*
X3053841Y10153522D01*
G37*
G36*
X2953258Y10153522D02*
G01*
X2953258Y10303637D01*
X2853181Y10303637D01*
X2853181Y10153522D01*
G37*
G36*
X2752597Y10153522D02*
G01*
X2752597Y10303637D01*
X2652522Y10303637D01*
X2652522Y10153522D01*
G37*
G36*
X2554477Y10153522D02*
G01*
X2554477Y10303637D01*
X2454402Y10303637D01*
X2454402Y10153522D01*
G37*
G36*
X2353818Y10153522D02*
G01*
X2353818Y10303637D01*
X2253741Y10303637D01*
X2253741Y10153522D01*
G37*
G36*
X2153158Y10153522D02*
G01*
X2153158Y10303637D01*
X2053081Y10303637D01*
X2053081Y10153522D01*
G37*
G36*
X1974341Y10423397D02*
G01*
X1754378Y10423397D01*
X1754378Y10323321D01*
X1974341Y10323321D01*
G37*
G36*
X1974341Y10624058D02*
G01*
X1754378Y10624058D01*
X1754378Y10523981D01*
X1974341Y10523981D01*
G37*
G36*
X1974341Y10824718D02*
G01*
X1754378Y10824718D01*
X1754378Y10724642D01*
X1974341Y10724642D01*
G37*
G36*
X1974341Y11025378D02*
G01*
X1754378Y11025378D01*
X1754378Y10925302D01*
X1974341Y10925302D01*
G37*
G36*
X1974341Y11223497D02*
G01*
X1754378Y11223497D01*
X1754378Y11123421D01*
X1974341Y11123421D01*
G37*
G36*
X1974341Y11424158D02*
G01*
X1754378Y11424158D01*
X1754378Y11324081D01*
X1974341Y11324081D01*
G37*
G36*
X1974341Y11624818D02*
G01*
X1754378Y11624818D01*
X1754378Y11524742D01*
X1974341Y11524742D01*
G37*
G36*
X1974341Y11825478D02*
G01*
X1754378Y11825478D01*
X1754378Y11725402D01*
X1974341Y11725402D01*
G37*
G36*
X2239645Y7590099D02*
G01*
X2239645Y7740101D01*
X2103754Y7740101D01*
X2103754Y7590099D01*
G37*
G36*
X2239645Y7830098D02*
G01*
X2239645Y7980098D01*
X2103754Y7980098D01*
X2103754Y7830098D01*
G37*
G36*
X3281045Y7590099D02*
G01*
X3281045Y7740101D01*
X3145154Y7740101D01*
X3145154Y7590099D01*
G37*
G36*
X3281045Y7830098D02*
G01*
X3281045Y7980098D01*
X3145154Y7980098D01*
X3145154Y7830098D01*
G37*
D16*
G01*
X939800Y9017000D03*
D17*
G01*
X939800Y8763000D03*
G01*
X939800Y8509000D03*
G01*
X939800Y8255000D03*
D18*
G01*
X3213100Y9740900D03*
G36*
X3542029Y9815829D02*
G01*
X3392170Y9815829D01*
X3392170Y9665970D01*
X3542029Y9665970D01*
G37*
G36*
X1012088Y11230711D02*
G01*
X1012088Y11400688D01*
X842111Y11400688D01*
X842111Y11230711D01*
G37*
D21*
G01*
X927100Y11569700D03*
G01*
X927100Y11823700D03*
G01*
X927100Y12077700D03*
G01*
X927100Y12331700D03*
D18*
G01*
X1828825Y7747000D03*
G36*
X1499870Y7672070D02*
G01*
X1649729Y7672070D01*
X1649729Y7821929D01*
X1499870Y7821929D01*
G37*
G36*
X3471011Y9228988D02*
G01*
X3471011Y9059011D01*
X3640988Y9059011D01*
X3640988Y9228988D01*
G37*
D21*
G01*
X3556000Y8890000D03*
G01*
X3556000Y8636000D03*
G01*
X3556000Y8382000D03*
G01*
X3556000Y8128000D03*
D17*
G01*
X1778000Y9017000D03*
G01*
X1778000Y8763000D03*
G01*
X1778000Y8509000D03*
G01*
X1778000Y8255000D03*
D18*
G01*
X1625600Y9766300D03*
G36*
X1954529Y9841229D02*
G01*
X1804670Y9841229D01*
X1804670Y9691370D01*
X1954529Y9691370D01*
G37*
D16*
G01*
X4140200Y11633200D03*
D17*
G01*
X4140200Y11379200D03*
G01*
X4140200Y11125200D03*
G01*
X4140200Y10871200D03*
D18*
G01*
X4140200Y12115800D03*
G36*
X4065270Y12444729D02*
G01*
X4065270Y12294870D01*
X4215129Y12294870D01*
X4215129Y12444729D01*
G37*
G01*
X2654300Y9512300D03*
G36*
X2325370Y9437370D02*
G01*
X2475229Y9437370D01*
X2475229Y9587229D01*
X2325370Y9587229D01*
G37*
D22*
G01*
X3014979Y9965944D03*
G01*
X3014979Y9515855D03*
G01*
X3665220Y9965944D03*
G01*
X3665220Y9515855D03*
G36*
X2064204Y13100210D02*
G01*
X2242004Y13100210D01*
X2242004Y12922410D01*
X2064204Y12922410D01*
G37*
D24*
G01*
X2407107Y13011378D03*
G01*
X2661107Y13011378D03*
G01*
X2915107Y13011378D03*
D22*
G01*
X1427479Y9965944D03*
G01*
X1427479Y9515855D03*
G01*
X2077720Y9965944D03*
G01*
X2077720Y9515855D03*
D12*
G01*
X2055573Y10866041D03*
G01*
X1484073Y10758396D03*
G01*
X2705102Y7596527D03*
G01*
X3383714Y11074397D03*
G01*
X1879602Y10119179D03*
M02*
