G04 Layer: BottomSilkscreenLayer*
G04 EasyEDA v6.5.1, 2022-03-12 08:52:27*
G04 6cb43a7882b14878ba6e045dd811a198,81413e43fb254311a4bdf48f3ba91f1a,10*
G04 Gerber Generator version 0.2*
G04 Scale: 100 percent, Rotated: No, Reflected: No *
G04 Dimensions in millimeters *
G04 leading zeros omitted , absolute positions ,4 integer and 5 decimal *
%FSLAX45Y45*%
%MOMM*%

%ADD10C,0.2540*%
%ADD25C,0.1524*%
%ADD27C,0.2007*%

%LPD*%
G36*
X3897376Y12730480D02*
G01*
X3891127Y12729768D01*
X3886352Y12727584D01*
X3883253Y12723723D01*
X3882136Y12718034D01*
X3882593Y12714224D01*
X3883863Y12710668D01*
X3885895Y12707315D01*
X3888486Y12704064D01*
X3891026Y12701524D01*
X3885437Y12695275D01*
X3878783Y12690043D01*
X3870858Y12685776D01*
X3861562Y12682220D01*
X3806951Y12682728D01*
X3804158Y12701016D01*
X3797300Y12701016D01*
X3797300Y12647168D01*
X3804158Y12647168D01*
X3806698Y12663424D01*
X3864305Y12663627D01*
X3884929Y12663170D01*
X3886708Y12645390D01*
X3893312Y12645390D01*
X3905504Y12676632D01*
X3903472Y12679680D01*
X3876801Y12681966D01*
X3883304Y12684963D01*
X3889044Y12688417D01*
X3894023Y12692227D01*
X3898137Y12696342D01*
X3901440Y12700660D01*
X3903827Y12705181D01*
X3905250Y12709804D01*
X3905758Y12714478D01*
X3905199Y12719507D01*
X3903573Y12724079D01*
X3900932Y12727889D01*
G37*
G36*
X3863340Y12627610D02*
G01*
X3856329Y12627102D01*
X3850894Y12625832D01*
X3850995Y12597384D01*
X3859022Y12597384D01*
X3859936Y12603480D01*
X3862476Y12607188D01*
X3866438Y12609068D01*
X3871468Y12609576D01*
X3876497Y12609118D01*
X3881323Y12607747D01*
X3885692Y12605613D01*
X3889552Y12602667D01*
X3892804Y12599111D01*
X3895242Y12594894D01*
X3896817Y12590170D01*
X3897376Y12584938D01*
X3896817Y12579807D01*
X3895191Y12574727D01*
X3892346Y12569901D01*
X3888384Y12565430D01*
X3883101Y12561570D01*
X3876598Y12558369D01*
X3868724Y12556032D01*
X3859529Y12554712D01*
X3859022Y12597384D01*
X3850995Y12597384D01*
X3851148Y12554458D01*
X3844086Y12554813D01*
X3837635Y12555778D01*
X3831793Y12557302D01*
X3826611Y12559334D01*
X3821988Y12561874D01*
X3818026Y12564872D01*
X3814622Y12568326D01*
X3811879Y12572187D01*
X3809695Y12576454D01*
X3808171Y12581077D01*
X3807256Y12586055D01*
X3806951Y12591288D01*
X3808120Y12601295D01*
X3811320Y12609525D01*
X3816400Y12616484D01*
X3822954Y12622784D01*
X3819906Y12627102D01*
X3814318Y12623749D01*
X3809288Y12619888D01*
X3804970Y12615418D01*
X3801313Y12610439D01*
X3798366Y12604902D01*
X3796284Y12598857D01*
X3794963Y12592253D01*
X3794506Y12585192D01*
X3794760Y12579705D01*
X3795420Y12574422D01*
X3796588Y12569444D01*
X3798163Y12564668D01*
X3800246Y12560249D01*
X3802684Y12556083D01*
X3805580Y12552273D01*
X3808882Y12548819D01*
X3812590Y12545669D01*
X3816705Y12542926D01*
X3821226Y12540538D01*
X3826103Y12538557D01*
X3831386Y12536982D01*
X3837025Y12535814D01*
X3843020Y12535154D01*
X3849370Y12534900D01*
X3855669Y12535154D01*
X3861612Y12535966D01*
X3867302Y12537236D01*
X3872636Y12539014D01*
X3877665Y12541199D01*
X3882288Y12543840D01*
X3886555Y12546787D01*
X3890416Y12550140D01*
X3893921Y12553797D01*
X3896969Y12557760D01*
X3899611Y12561976D01*
X3901744Y12566396D01*
X3903472Y12571069D01*
X3904742Y12575895D01*
X3905504Y12580874D01*
X3905758Y12585954D01*
X3905402Y12591796D01*
X3904437Y12597333D01*
X3902811Y12602514D01*
X3900576Y12607340D01*
X3897731Y12611760D01*
X3894378Y12615722D01*
X3890416Y12619177D01*
X3885946Y12622123D01*
X3881018Y12624460D01*
X3875582Y12626187D01*
X3869690Y12627254D01*
G37*
G36*
X3797300Y12521184D02*
G01*
X3795014Y12486640D01*
X3810254Y12485370D01*
X3803599Y12479070D01*
X3798671Y12471857D01*
X3795572Y12463576D01*
X3795079Y12459208D01*
X3805936Y12459208D01*
X3806545Y12466167D01*
X3808628Y12472466D01*
X3812489Y12478512D01*
X3818382Y12484608D01*
X3882898Y12484608D01*
X3888486Y12477546D01*
X3892092Y12471196D01*
X3894023Y12465202D01*
X3894582Y12459462D01*
X3894328Y12455245D01*
X3893464Y12451181D01*
X3892042Y12447320D01*
X3890060Y12443663D01*
X3887419Y12440259D01*
X3884117Y12437211D01*
X3880154Y12434468D01*
X3875481Y12432182D01*
X3870147Y12430302D01*
X3864051Y12428880D01*
X3857244Y12428016D01*
X3849624Y12427712D01*
X3842308Y12427966D01*
X3835704Y12428778D01*
X3829812Y12430099D01*
X3824630Y12431877D01*
X3820109Y12434062D01*
X3816248Y12436703D01*
X3813048Y12439700D01*
X3810457Y12443002D01*
X3808425Y12446660D01*
X3807053Y12450622D01*
X3806190Y12454788D01*
X3805936Y12459208D01*
X3795079Y12459208D01*
X3794506Y12454128D01*
X3794963Y12447473D01*
X3796284Y12441224D01*
X3798468Y12435433D01*
X3801414Y12430099D01*
X3805174Y12425273D01*
X3809644Y12420955D01*
X3814724Y12417247D01*
X3820515Y12414148D01*
X3826865Y12411710D01*
X3833774Y12409881D01*
X3841191Y12408763D01*
X3849115Y12408408D01*
X3855465Y12408662D01*
X3861460Y12409322D01*
X3867150Y12410440D01*
X3872534Y12411964D01*
X3877564Y12413894D01*
X3882237Y12416180D01*
X3886504Y12418872D01*
X3890365Y12421870D01*
X3893870Y12425172D01*
X3896969Y12428829D01*
X3899560Y12432741D01*
X3901744Y12436906D01*
X3903472Y12441326D01*
X3904742Y12446000D01*
X3905504Y12450876D01*
X3905758Y12455906D01*
X3905046Y12463526D01*
X3902710Y12470892D01*
X3898239Y12478054D01*
X3891279Y12485116D01*
X3944112Y12485116D01*
X3945890Y12466320D01*
X3952494Y12466320D01*
X3961892Y12500864D01*
X3960368Y12503658D01*
X3928618Y12502896D01*
X3806190Y12502896D01*
X3804158Y12521184D01*
G37*
G36*
X3863340Y12388088D02*
G01*
X3856329Y12387580D01*
X3850894Y12386310D01*
X3850995Y12357862D01*
X3859022Y12357862D01*
X3859936Y12363907D01*
X3862476Y12367564D01*
X3866438Y12369342D01*
X3871468Y12369800D01*
X3876497Y12369342D01*
X3881323Y12367971D01*
X3885692Y12365837D01*
X3889552Y12362942D01*
X3892804Y12359386D01*
X3895242Y12355220D01*
X3896817Y12350546D01*
X3897376Y12345416D01*
X3896817Y12340285D01*
X3895191Y12335205D01*
X3892346Y12330328D01*
X3888384Y12325908D01*
X3883101Y12321946D01*
X3876598Y12318746D01*
X3868724Y12316358D01*
X3859529Y12314936D01*
X3859022Y12357862D01*
X3850995Y12357862D01*
X3851148Y12314936D01*
X3844086Y12315291D01*
X3837635Y12316256D01*
X3831793Y12317780D01*
X3826611Y12319812D01*
X3821988Y12322352D01*
X3818026Y12325350D01*
X3814622Y12328804D01*
X3811879Y12332665D01*
X3809695Y12336932D01*
X3808171Y12341555D01*
X3807256Y12346533D01*
X3806951Y12351766D01*
X3808120Y12361773D01*
X3811320Y12369952D01*
X3816400Y12376861D01*
X3822954Y12383008D01*
X3819906Y12387580D01*
X3814318Y12384227D01*
X3809288Y12380366D01*
X3804970Y12375896D01*
X3801313Y12370866D01*
X3798366Y12365329D01*
X3796284Y12359233D01*
X3794963Y12352578D01*
X3794506Y12345416D01*
X3794760Y12339980D01*
X3795420Y12334748D01*
X3796588Y12329769D01*
X3798163Y12325045D01*
X3800246Y12320625D01*
X3802684Y12316510D01*
X3805580Y12312700D01*
X3808882Y12309246D01*
X3812590Y12306147D01*
X3816705Y12303353D01*
X3821226Y12301016D01*
X3826103Y12299035D01*
X3831386Y12297460D01*
X3837025Y12296292D01*
X3843020Y12295632D01*
X3849370Y12295378D01*
X3855669Y12295632D01*
X3861612Y12296444D01*
X3867302Y12297714D01*
X3872636Y12299492D01*
X3877665Y12301677D01*
X3882288Y12304318D01*
X3886555Y12307265D01*
X3890416Y12310618D01*
X3893921Y12314275D01*
X3896969Y12318238D01*
X3899611Y12322454D01*
X3901744Y12326874D01*
X3903472Y12331547D01*
X3904742Y12336373D01*
X3905504Y12341352D01*
X3905758Y12346432D01*
X3905402Y12352274D01*
X3904437Y12357811D01*
X3902811Y12362992D01*
X3900576Y12367818D01*
X3897731Y12372238D01*
X3894378Y12376200D01*
X3890416Y12379655D01*
X3885946Y12382601D01*
X3881018Y12384938D01*
X3875582Y12386665D01*
X3869690Y12387732D01*
G37*
G36*
X3863340Y12275058D02*
G01*
X3856329Y12274550D01*
X3850894Y12273280D01*
X3850995Y12244832D01*
X3859022Y12244832D01*
X3859936Y12250928D01*
X3862476Y12254636D01*
X3866438Y12256516D01*
X3871468Y12257024D01*
X3876497Y12256566D01*
X3881323Y12255195D01*
X3885692Y12253061D01*
X3889552Y12250115D01*
X3892804Y12246559D01*
X3895242Y12242342D01*
X3896817Y12237618D01*
X3897376Y12232386D01*
X3896817Y12227255D01*
X3895191Y12222175D01*
X3892346Y12217349D01*
X3888384Y12212878D01*
X3883101Y12209018D01*
X3876598Y12205817D01*
X3868724Y12203480D01*
X3859529Y12202160D01*
X3859022Y12244832D01*
X3850995Y12244832D01*
X3851148Y12201906D01*
X3844086Y12202261D01*
X3837635Y12203226D01*
X3831793Y12204750D01*
X3826611Y12206782D01*
X3821988Y12209322D01*
X3818026Y12212320D01*
X3814622Y12215774D01*
X3811879Y12219635D01*
X3809695Y12223902D01*
X3808171Y12228525D01*
X3807256Y12233503D01*
X3806951Y12238736D01*
X3808120Y12248743D01*
X3811320Y12256973D01*
X3816400Y12263932D01*
X3822954Y12270232D01*
X3819906Y12274550D01*
X3814318Y12271197D01*
X3809288Y12267336D01*
X3804970Y12262866D01*
X3801313Y12257887D01*
X3798366Y12252350D01*
X3796284Y12246305D01*
X3794963Y12239701D01*
X3794506Y12232640D01*
X3794760Y12227153D01*
X3795420Y12221870D01*
X3796588Y12216892D01*
X3798163Y12212116D01*
X3800246Y12207697D01*
X3802684Y12203531D01*
X3805580Y12199721D01*
X3808882Y12196267D01*
X3812590Y12193117D01*
X3816705Y12190374D01*
X3821226Y12187986D01*
X3826103Y12186005D01*
X3831386Y12184430D01*
X3837025Y12183262D01*
X3843020Y12182602D01*
X3849370Y12182348D01*
X3855669Y12182602D01*
X3861612Y12183414D01*
X3867302Y12184684D01*
X3872636Y12186462D01*
X3877665Y12188647D01*
X3882288Y12191288D01*
X3886555Y12194235D01*
X3890416Y12197588D01*
X3893921Y12201245D01*
X3896969Y12205208D01*
X3899611Y12209424D01*
X3901744Y12213844D01*
X3903472Y12218517D01*
X3904742Y12223343D01*
X3905504Y12228322D01*
X3905758Y12233402D01*
X3905402Y12239244D01*
X3904437Y12244781D01*
X3902811Y12249962D01*
X3900576Y12254788D01*
X3897731Y12259208D01*
X3894378Y12263170D01*
X3890416Y12266625D01*
X3885946Y12269571D01*
X3881018Y12271908D01*
X3875582Y12273635D01*
X3869690Y12274702D01*
G37*
G36*
X3907028Y12174728D02*
G01*
X3907028Y12163806D01*
X3936492Y12157964D01*
X3936492Y12104878D01*
X3877564Y12104624D01*
X3877564Y12139676D01*
X3899408Y12142470D01*
X3899408Y12151868D01*
X3845560Y12151868D01*
X3845560Y12142470D01*
X3868674Y12139676D01*
X3868674Y12104624D01*
X3807460Y12104878D01*
X3804920Y12125960D01*
X3797300Y12125960D01*
X3797300Y12062968D01*
X3804920Y12062968D01*
X3807206Y12083796D01*
X3836568Y12084253D01*
X3899458Y12084253D01*
X3936237Y12083796D01*
X3938524Y12062968D01*
X3946144Y12062968D01*
X3946144Y12173712D01*
G37*
G36*
X3797300Y11994388D02*
G01*
X3797300Y11943334D01*
X3804158Y11943334D01*
X3806698Y11959844D01*
X3844036Y11960352D01*
X3864864Y11960352D01*
X3871976Y11960047D01*
X3877818Y11959183D01*
X3882440Y11957761D01*
X3885996Y11955729D01*
X3888587Y11953087D01*
X3890314Y11949836D01*
X3891229Y11946026D01*
X3891534Y11941556D01*
X3890721Y11934494D01*
X3888181Y11927179D01*
X3883609Y11919458D01*
X3876801Y11911076D01*
X3871366Y11911533D01*
X3825544Y11911787D01*
X3806698Y11912346D01*
X3804158Y11927586D01*
X3797300Y11927586D01*
X3797300Y11876278D01*
X3804158Y11876278D01*
X3806698Y11893296D01*
X3864610Y11893550D01*
X3871620Y11893296D01*
X3877411Y11892483D01*
X3882034Y11891111D01*
X3885692Y11889181D01*
X3888384Y11886641D01*
X3890162Y11883491D01*
X3891229Y11879681D01*
X3891534Y11875262D01*
X3890721Y11867845D01*
X3888079Y11860631D01*
X3883609Y11853164D01*
X3877056Y11845036D01*
X3835400Y11845086D01*
X3806698Y11845544D01*
X3804158Y11860784D01*
X3797300Y11860784D01*
X3797300Y11809730D01*
X3804158Y11809730D01*
X3806698Y11826240D01*
X3844036Y11826494D01*
X3871671Y11826443D01*
X3884929Y11825986D01*
X3886708Y11808206D01*
X3893312Y11808206D01*
X3905504Y11839448D01*
X3903472Y11842496D01*
X3885437Y11844528D01*
X3889908Y11848795D01*
X3893870Y11853265D01*
X3897325Y11857990D01*
X3900271Y11862866D01*
X3902608Y11867896D01*
X3904335Y11872976D01*
X3905402Y11878056D01*
X3905758Y11883136D01*
X3905453Y11888114D01*
X3904538Y11892635D01*
X3902964Y11896648D01*
X3900779Y11900154D01*
X3897884Y11903202D01*
X3894277Y11905792D01*
X3889959Y11907875D01*
X3884929Y11909552D01*
X3889908Y11914124D01*
X3894175Y11918899D01*
X3897782Y11923826D01*
X3900678Y11928906D01*
X3902913Y11934037D01*
X3904487Y11939320D01*
X3905453Y11944604D01*
X3905758Y11949938D01*
X3905199Y11956338D01*
X3903573Y11961977D01*
X3900779Y11966854D01*
X3896715Y11970918D01*
X3891432Y11974118D01*
X3884777Y11976455D01*
X3876700Y11977878D01*
X3867150Y11978386D01*
X3806698Y11978640D01*
X3804158Y11994388D01*
G37*
G36*
X3797300Y11792712D02*
G01*
X3795522Y11761978D01*
X3815587Y11759946D01*
X3810660Y11755526D01*
X3806393Y11750903D01*
X3802786Y11746077D01*
X3799789Y11741099D01*
X3797503Y11735968D01*
X3795826Y11730786D01*
X3794861Y11725554D01*
X3794506Y11720322D01*
X3795014Y11713870D01*
X3796588Y11708130D01*
X3799382Y11703151D01*
X3803446Y11698935D01*
X3808882Y11695582D01*
X3815842Y11693144D01*
X3824376Y11691620D01*
X3834637Y11691112D01*
X3891279Y11691874D01*
X3894582Y11675872D01*
X3901186Y11675872D01*
X3904487Y11708384D01*
X3902201Y11710670D01*
X3870706Y11709654D01*
X3835654Y11709654D01*
X3828796Y11709958D01*
X3823106Y11710822D01*
X3818534Y11712295D01*
X3814876Y11714378D01*
X3812184Y11716969D01*
X3810355Y11720169D01*
X3809339Y11723878D01*
X3808984Y11728196D01*
X3809898Y11736171D01*
X3812590Y11744045D01*
X3817112Y11751767D01*
X3823462Y11759184D01*
X3891279Y11759946D01*
X3894328Y11743944D01*
X3900932Y11743944D01*
X3904487Y11776202D01*
X3902201Y11778234D01*
X3870706Y11777472D01*
X3806444Y11777472D01*
X3803904Y11792712D01*
G37*
G36*
X3797300Y11662410D02*
G01*
X3797300Y11611102D01*
X3804158Y11611102D01*
X3806698Y11628120D01*
X3844036Y11628628D01*
X3864203Y11628577D01*
X3885184Y11628120D01*
X3886962Y11609832D01*
X3893565Y11609832D01*
X3905504Y11644122D01*
X3903472Y11647170D01*
X3874008Y11646662D01*
X3835400Y11646712D01*
X3806698Y11647170D01*
X3804158Y11662410D01*
G37*
G36*
X3945128Y11651488D02*
G01*
X3939540Y11650370D01*
X3935120Y11647322D01*
X3932174Y11642801D01*
X3931158Y11637264D01*
X3932174Y11631625D01*
X3935120Y11627104D01*
X3939540Y11624106D01*
X3945128Y11623040D01*
X3950665Y11624106D01*
X3954881Y11627104D01*
X3957624Y11631625D01*
X3958590Y11637264D01*
X3957624Y11642801D01*
X3954881Y11647322D01*
X3950665Y11650370D01*
G37*
G36*
X3897376Y11601704D02*
G01*
X3891127Y11600992D01*
X3886352Y11598808D01*
X3883253Y11594947D01*
X3882136Y11589258D01*
X3882593Y11585448D01*
X3883863Y11581892D01*
X3885895Y11578539D01*
X3888486Y11575288D01*
X3891026Y11572748D01*
X3885437Y11566499D01*
X3878783Y11561267D01*
X3870858Y11557000D01*
X3861562Y11553444D01*
X3806951Y11553952D01*
X3804158Y11572240D01*
X3797300Y11572240D01*
X3797300Y11518392D01*
X3804158Y11518392D01*
X3806698Y11534648D01*
X3864305Y11534851D01*
X3884929Y11534394D01*
X3886708Y11516614D01*
X3893312Y11516614D01*
X3905504Y11547856D01*
X3903472Y11550904D01*
X3876801Y11553190D01*
X3883304Y11556187D01*
X3889044Y11559641D01*
X3894023Y11563451D01*
X3898137Y11567515D01*
X3901440Y11571884D01*
X3903827Y11576405D01*
X3905250Y11581028D01*
X3905758Y11585702D01*
X3905199Y11590731D01*
X3903573Y11595303D01*
X3900932Y11599113D01*
G37*
G36*
X3806190Y11508486D02*
G01*
X3800856Y11504422D01*
X3797350Y11499900D01*
X3795369Y11494922D01*
X3794760Y11489436D01*
X3795979Y11481968D01*
X3799535Y11476126D01*
X3805072Y11471910D01*
X3812286Y11469624D01*
X3808069Y11465255D01*
X3804462Y11461140D01*
X3801414Y11457228D01*
X3798925Y11453317D01*
X3796995Y11449405D01*
X3795623Y11445290D01*
X3795312Y11443716D01*
X3807460Y11443716D01*
X3808120Y11449253D01*
X3810304Y11454688D01*
X3814318Y11460988D01*
X3820414Y11469116D01*
X3855720Y11469116D01*
X3852316Y11457686D01*
X3849115Y11448542D01*
X3846220Y11441938D01*
X3843223Y11436705D01*
X3840175Y11432692D01*
X3837127Y11429796D01*
X3834028Y11427764D01*
X3830878Y11426494D01*
X3827779Y11425885D01*
X3824732Y11425682D01*
X3817010Y11427053D01*
X3811625Y11430812D01*
X3808476Y11436502D01*
X3807460Y11443716D01*
X3795312Y11443716D01*
X3794760Y11440922D01*
X3794506Y11436096D01*
X3794963Y11430152D01*
X3796233Y11424615D01*
X3798417Y11419636D01*
X3801414Y11415268D01*
X3805275Y11411661D01*
X3809949Y11408968D01*
X3815435Y11407241D01*
X3821684Y11406632D01*
X3826662Y11407038D01*
X3831285Y11408308D01*
X3835654Y11410645D01*
X3839819Y11414201D01*
X3843832Y11419078D01*
X3847744Y11425478D01*
X3851605Y11433556D01*
X3855465Y11443462D01*
X3859326Y11455603D01*
X3862832Y11469116D01*
X3869690Y11469116D01*
X3877157Y11468811D01*
X3883253Y11467896D01*
X3888028Y11466322D01*
X3891737Y11464086D01*
X3894378Y11461140D01*
X3896106Y11457432D01*
X3897071Y11453012D01*
X3897376Y11447780D01*
X3896817Y11441836D01*
X3895344Y11435080D01*
X3880104Y11431016D01*
X3875633Y11429187D01*
X3872433Y11426748D01*
X3870553Y11423650D01*
X3869944Y11419840D01*
X3870502Y11415776D01*
X3872128Y11412778D01*
X3874770Y11410746D01*
X3878326Y11409680D01*
X3884371Y11411762D01*
X3889806Y11414912D01*
X3894480Y11419078D01*
X3898442Y11424208D01*
X3901541Y11430203D01*
X3903878Y11437061D01*
X3905300Y11444630D01*
X3905758Y11452860D01*
X3905554Y11458448D01*
X3904843Y11463528D01*
X3903675Y11468100D01*
X3902049Y11472214D01*
X3899814Y11475770D01*
X3897071Y11478920D01*
X3893769Y11481511D01*
X3889857Y11483644D01*
X3885285Y11485270D01*
X3880104Y11486489D01*
X3874211Y11487150D01*
X3867658Y11487404D01*
X3819144Y11487404D01*
X3812540Y11487962D01*
X3808120Y11489588D01*
X3805682Y11492128D01*
X3804920Y11495532D01*
X3805275Y11498021D01*
X3806393Y11500256D01*
X3808120Y11502339D01*
X3810508Y11504422D01*
G37*
G36*
X3797300Y11388598D02*
G01*
X3795522Y11357864D01*
X3815587Y11355832D01*
X3810660Y11351412D01*
X3806393Y11346789D01*
X3802786Y11341963D01*
X3799789Y11336985D01*
X3797503Y11331854D01*
X3795826Y11326672D01*
X3794861Y11321440D01*
X3794506Y11316208D01*
X3795014Y11309705D01*
X3796588Y11303914D01*
X3799382Y11298885D01*
X3803446Y11294668D01*
X3808882Y11291316D01*
X3815842Y11288877D01*
X3824376Y11287455D01*
X3834637Y11286998D01*
X3891279Y11287760D01*
X3894582Y11271504D01*
X3901186Y11271504D01*
X3904487Y11304270D01*
X3902201Y11306556D01*
X3870706Y11305540D01*
X3835654Y11305540D01*
X3828796Y11305844D01*
X3823106Y11306708D01*
X3818534Y11308181D01*
X3814876Y11310213D01*
X3812184Y11312855D01*
X3810355Y11316055D01*
X3809339Y11319764D01*
X3808984Y11324082D01*
X3809898Y11332057D01*
X3812590Y11339931D01*
X3817112Y11347653D01*
X3823462Y11355070D01*
X3891279Y11355832D01*
X3894328Y11339830D01*
X3900932Y11339830D01*
X3904487Y11372088D01*
X3902201Y11374120D01*
X3870706Y11373358D01*
X3806444Y11373358D01*
X3803904Y11388598D01*
G37*
G36*
X3743960Y11265408D02*
G01*
X3743960Y11209020D01*
X3750818Y11209020D01*
X3753612Y11228832D01*
X3790950Y11229340D01*
X3811270Y11229340D01*
X3807256Y11225936D01*
X3803853Y11222380D01*
X3800957Y11218672D01*
X3798620Y11214760D01*
X3796792Y11210696D01*
X3795522Y11206429D01*
X3794917Y11202924D01*
X3805936Y11202924D01*
X3806545Y11209782D01*
X3808729Y11216182D01*
X3812794Y11222380D01*
X3819144Y11228832D01*
X3882136Y11228832D01*
X3888028Y11221618D01*
X3891889Y11215014D01*
X3893972Y11208867D01*
X3894582Y11202924D01*
X3894277Y11198707D01*
X3893413Y11194694D01*
X3891991Y11190833D01*
X3889908Y11187176D01*
X3887215Y11183823D01*
X3883863Y11180775D01*
X3879900Y11178082D01*
X3875227Y11175796D01*
X3869842Y11173968D01*
X3863746Y11172596D01*
X3856939Y11171732D01*
X3849370Y11171428D01*
X3842004Y11171682D01*
X3835400Y11172494D01*
X3829507Y11173815D01*
X3824325Y11175593D01*
X3819855Y11177778D01*
X3816045Y11180419D01*
X3812844Y11183416D01*
X3810304Y11186718D01*
X3808374Y11190376D01*
X3807002Y11194338D01*
X3806190Y11198504D01*
X3805936Y11202924D01*
X3794917Y11202924D01*
X3794506Y11197336D01*
X3794963Y11190732D01*
X3796284Y11184534D01*
X3798417Y11178743D01*
X3801364Y11173460D01*
X3805072Y11168684D01*
X3809492Y11164417D01*
X3814572Y11160709D01*
X3820312Y11157610D01*
X3826662Y11155172D01*
X3833571Y11153343D01*
X3840987Y11152225D01*
X3848862Y11151870D01*
X3855161Y11152124D01*
X3861155Y11152784D01*
X3866845Y11153902D01*
X3872229Y11155426D01*
X3877259Y11157356D01*
X3881932Y11159642D01*
X3886250Y11162284D01*
X3890162Y11165230D01*
X3893667Y11168532D01*
X3896817Y11172088D01*
X3899458Y11175949D01*
X3901694Y11180064D01*
X3903421Y11184382D01*
X3904742Y11188954D01*
X3905504Y11193678D01*
X3905758Y11198606D01*
X3904945Y11206734D01*
X3902252Y11214709D01*
X3897376Y11222431D01*
X3890010Y11229848D01*
X3905504Y11245088D01*
X3903472Y11247882D01*
X3873246Y11247120D01*
X3781602Y11247170D01*
X3753612Y11247628D01*
X3750818Y11265408D01*
G37*
G36*
X3797300Y11143996D02*
G01*
X3797300Y11083544D01*
X3804920Y11083544D01*
X3807714Y11105388D01*
X3846576Y11092434D01*
X3846576Y11089640D01*
X3855465Y11089640D01*
X3924554Y11066272D01*
X3855465Y11043666D01*
X3855465Y11089640D01*
X3846576Y11089640D01*
X3846576Y11040872D01*
X3807968Y11027918D01*
X3804920Y11049762D01*
X3797300Y11049762D01*
X3797300Y11000232D01*
X3804920Y11000232D01*
X3807968Y11018266D01*
X3947160Y11065510D01*
X3947160Y11078464D01*
X3806951Y11126470D01*
X3804920Y11143996D01*
G37*
G36*
X3897376Y10945114D02*
G01*
X3891127Y10944402D01*
X3886352Y10942116D01*
X3883253Y10938154D01*
X3882136Y10932414D01*
X3882593Y10928604D01*
X3883863Y10925149D01*
X3885895Y10921898D01*
X3891026Y10915904D01*
X3885437Y10909655D01*
X3878783Y10904423D01*
X3870858Y10900156D01*
X3861562Y10896600D01*
X3806951Y10897108D01*
X3804158Y10915650D01*
X3797300Y10915650D01*
X3797300Y10861548D01*
X3804158Y10861548D01*
X3806698Y10877804D01*
X3844036Y10878312D01*
X3864305Y10878261D01*
X3878376Y10877905D01*
X3884929Y10877550D01*
X3886708Y10860024D01*
X3893312Y10860024D01*
X3905504Y10891266D01*
X3903472Y10894314D01*
X3876801Y10896600D01*
X3883304Y10899546D01*
X3889044Y10902950D01*
X3894023Y10906709D01*
X3898137Y10910874D01*
X3901440Y10915243D01*
X3903827Y10919764D01*
X3905250Y10924438D01*
X3905758Y10929112D01*
X3905199Y10934090D01*
X3903573Y10938662D01*
X3900932Y10942421D01*
G37*
G36*
X3849624Y10842498D02*
G01*
X3842969Y10842193D01*
X3836771Y10841380D01*
X3830980Y10840008D01*
X3825595Y10838180D01*
X3820617Y10835843D01*
X3816096Y10833150D01*
X3812032Y10830102D01*
X3808374Y10826648D01*
X3805123Y10822940D01*
X3802278Y10818926D01*
X3799941Y10814659D01*
X3797960Y10810240D01*
X3796436Y10805617D01*
X3795369Y10800892D01*
X3794709Y10796066D01*
X3794506Y10791190D01*
X3802887Y10791190D01*
X3803243Y10795863D01*
X3804208Y10800181D01*
X3805885Y10804144D01*
X3808222Y10807750D01*
X3811219Y10810951D01*
X3814826Y10813796D01*
X3819093Y10816234D01*
X3823970Y10818266D01*
X3829456Y10819841D01*
X3835603Y10821009D01*
X3842308Y10821670D01*
X3849624Y10821924D01*
X3857091Y10821670D01*
X3863898Y10821009D01*
X3870147Y10819841D01*
X3875786Y10818266D01*
X3880764Y10816234D01*
X3885133Y10813796D01*
X3888841Y10810951D01*
X3891889Y10807750D01*
X3894277Y10804144D01*
X3896004Y10800181D01*
X3897020Y10795863D01*
X3897376Y10791190D01*
X3897020Y10786465D01*
X3896004Y10782147D01*
X3894277Y10778134D01*
X3891889Y10774527D01*
X3888841Y10771327D01*
X3885133Y10768482D01*
X3880764Y10766094D01*
X3875786Y10764062D01*
X3870147Y10762488D01*
X3863898Y10761370D01*
X3857091Y10760710D01*
X3849624Y10760456D01*
X3842308Y10760710D01*
X3835603Y10761370D01*
X3829456Y10762488D01*
X3823970Y10764062D01*
X3819093Y10766094D01*
X3814826Y10768482D01*
X3811219Y10771327D01*
X3808222Y10774527D01*
X3805885Y10778134D01*
X3804208Y10782147D01*
X3803243Y10786465D01*
X3802887Y10791190D01*
X3794506Y10791190D01*
X3794709Y10786313D01*
X3795369Y10781487D01*
X3796436Y10776762D01*
X3797960Y10772190D01*
X3799941Y10767771D01*
X3802278Y10763554D01*
X3805123Y10759541D01*
X3808374Y10755833D01*
X3812032Y10752429D01*
X3816096Y10749381D01*
X3820617Y10746689D01*
X3825595Y10744454D01*
X3830980Y10742625D01*
X3836771Y10741253D01*
X3842969Y10740440D01*
X3849624Y10740136D01*
X3856329Y10740440D01*
X3862628Y10741253D01*
X3868470Y10742625D01*
X3873957Y10744454D01*
X3878986Y10746740D01*
X3883558Y10749483D01*
X3887774Y10752531D01*
X3891483Y10755934D01*
X3894836Y10759643D01*
X3897731Y10763656D01*
X3900170Y10767872D01*
X3902151Y10772292D01*
X3903726Y10776864D01*
X3904843Y10781538D01*
X3905554Y10786364D01*
X3905758Y10791190D01*
X3905554Y10796016D01*
X3904843Y10800842D01*
X3903776Y10805566D01*
X3902201Y10810138D01*
X3900220Y10814558D01*
X3897782Y10818825D01*
X3894886Y10822838D01*
X3891584Y10826546D01*
X3887876Y10830001D01*
X3883660Y10833100D01*
X3879087Y10835792D01*
X3874058Y10838129D01*
X3868572Y10839958D01*
X3862679Y10841380D01*
X3856380Y10842193D01*
G37*
G36*
X3805936Y10729214D02*
G01*
X3801160Y10724438D01*
X3797554Y10718495D01*
X3795268Y10711484D01*
X3794506Y10703560D01*
X3794912Y10697870D01*
X3796029Y10692841D01*
X3798011Y10688472D01*
X3800805Y10684865D01*
X3804412Y10681970D01*
X3808882Y10679887D01*
X3814216Y10678617D01*
X3820414Y10678160D01*
X3838956Y10678414D01*
X3893058Y10678414D01*
X3893058Y10659618D01*
X3900932Y10659618D01*
X3903472Y10679430D01*
X3933444Y10685272D01*
X3933444Y10698226D01*
X3902710Y10696956D01*
X3902710Y10726928D01*
X3893058Y10726928D01*
X3893058Y10696702D01*
X3821176Y10696702D01*
X3813657Y10697565D01*
X3808526Y10700105D01*
X3805580Y10704220D01*
X3804665Y10709656D01*
X3805072Y10713313D01*
X3806240Y10716920D01*
X3808222Y10720679D01*
X3811015Y10724896D01*
G37*
G36*
X3806190Y10655808D02*
G01*
X3800856Y10651794D01*
X3797350Y10647324D01*
X3795369Y10642346D01*
X3794760Y10636758D01*
X3795979Y10629290D01*
X3799535Y10623448D01*
X3805072Y10619232D01*
X3812286Y10616946D01*
X3808069Y10612577D01*
X3804462Y10608462D01*
X3801414Y10604550D01*
X3798925Y10600690D01*
X3796995Y10596778D01*
X3795623Y10592714D01*
X3795288Y10591038D01*
X3807460Y10591038D01*
X3808120Y10596575D01*
X3810304Y10602010D01*
X3814318Y10608310D01*
X3820414Y10616438D01*
X3855720Y10616438D01*
X3852316Y10605109D01*
X3849115Y10595864D01*
X3846220Y10589361D01*
X3843223Y10584129D01*
X3840175Y10580166D01*
X3837127Y10577220D01*
X3834028Y10575137D01*
X3830878Y10573867D01*
X3827779Y10573207D01*
X3824732Y10573004D01*
X3817010Y10574375D01*
X3811625Y10578134D01*
X3808476Y10583824D01*
X3807460Y10591038D01*
X3795288Y10591038D01*
X3794760Y10588396D01*
X3794506Y10583672D01*
X3794963Y10577728D01*
X3796233Y10572191D01*
X3798417Y10567212D01*
X3801414Y10562844D01*
X3805275Y10559237D01*
X3809949Y10556544D01*
X3815435Y10554817D01*
X3821684Y10554208D01*
X3826662Y10554614D01*
X3831285Y10555833D01*
X3835654Y10558170D01*
X3839819Y10561624D01*
X3843832Y10566501D01*
X3847744Y10572851D01*
X3851605Y10580878D01*
X3855465Y10590784D01*
X3859326Y10602925D01*
X3862832Y10616438D01*
X3869690Y10616438D01*
X3877157Y10616133D01*
X3883253Y10615218D01*
X3888028Y10613644D01*
X3891737Y10611408D01*
X3894378Y10608462D01*
X3896106Y10604754D01*
X3897071Y10600334D01*
X3897376Y10595102D01*
X3896817Y10589158D01*
X3895344Y10582656D01*
X3880104Y10578338D01*
X3875633Y10576610D01*
X3872433Y10574172D01*
X3870553Y10571022D01*
X3869944Y10567162D01*
X3870502Y10563098D01*
X3872128Y10560100D01*
X3874770Y10558170D01*
X3878326Y10557256D01*
X3884371Y10559237D01*
X3889806Y10562336D01*
X3894480Y10566501D01*
X3898442Y10571581D01*
X3901541Y10577576D01*
X3903878Y10584383D01*
X3905300Y10591952D01*
X3905758Y10600182D01*
X3905554Y10605770D01*
X3904843Y10610850D01*
X3903675Y10615422D01*
X3902049Y10619536D01*
X3899814Y10623092D01*
X3897071Y10626242D01*
X3893769Y10628833D01*
X3889857Y10630966D01*
X3885285Y10632592D01*
X3880104Y10633811D01*
X3874211Y10634472D01*
X3867658Y10634726D01*
X3819144Y10634726D01*
X3812540Y10635284D01*
X3808120Y10636910D01*
X3805682Y10639450D01*
X3804920Y10642854D01*
X3805275Y10645444D01*
X3806393Y10647680D01*
X3808120Y10649712D01*
X3810508Y10651744D01*
G37*
G36*
X3797300Y10537190D02*
G01*
X3797300Y10486136D01*
X3804158Y10486136D01*
X3806698Y10502392D01*
X3844036Y10502900D01*
X3864864Y10502900D01*
X3871772Y10502646D01*
X3877513Y10501833D01*
X3882186Y10500461D01*
X3885844Y10498480D01*
X3888536Y10495940D01*
X3890416Y10492740D01*
X3891432Y10488879D01*
X3891787Y10484358D01*
X3890975Y10476941D01*
X3888333Y10469422D01*
X3883761Y10461650D01*
X3877056Y10453370D01*
X3806698Y10453624D01*
X3804158Y10469118D01*
X3797300Y10469118D01*
X3797300Y10418064D01*
X3804158Y10418064D01*
X3806698Y10434320D01*
X3844036Y10434828D01*
X3864305Y10434777D01*
X3884929Y10434320D01*
X3886708Y10416540D01*
X3893312Y10416540D01*
X3905504Y10447782D01*
X3903472Y10450830D01*
X3885184Y10452608D01*
X3889705Y10457027D01*
X3893769Y10461752D01*
X3897274Y10466730D01*
X3900220Y10471810D01*
X3902608Y10477042D01*
X3904335Y10482275D01*
X3905402Y10487558D01*
X3905758Y10492740D01*
X3905199Y10499344D01*
X3903472Y10505135D01*
X3900525Y10510012D01*
X3896309Y10514025D01*
X3890772Y10517124D01*
X3883812Y10519410D01*
X3875328Y10520730D01*
X3865372Y10521188D01*
X3835247Y10521238D01*
X3806698Y10521696D01*
X3804158Y10537190D01*
G37*
G36*
X3797300Y10401300D02*
G01*
X3797300Y10349992D01*
X3804158Y10349992D01*
X3806698Y10367264D01*
X3864203Y10367467D01*
X3885184Y10367010D01*
X3886962Y10348976D01*
X3893565Y10348976D01*
X3905504Y10383012D01*
X3903472Y10386060D01*
X3874008Y10385552D01*
X3835400Y10385602D01*
X3806698Y10386060D01*
X3804158Y10401300D01*
G37*
G36*
X3945128Y10390632D02*
G01*
X3939540Y10389463D01*
X3935120Y10386364D01*
X3932174Y10381843D01*
X3931158Y10376408D01*
X3932174Y10370718D01*
X3935120Y10366095D01*
X3939540Y10363047D01*
X3945128Y10361930D01*
X3950665Y10363047D01*
X3954881Y10366095D01*
X3957624Y10370718D01*
X3958590Y10376408D01*
X3957624Y10381843D01*
X3954881Y10386364D01*
X3950665Y10389463D01*
G37*
G36*
X3805936Y10341102D02*
G01*
X3801160Y10336326D01*
X3797554Y10330383D01*
X3795268Y10323372D01*
X3794506Y10315448D01*
X3794912Y10309758D01*
X3796029Y10304729D01*
X3798011Y10300360D01*
X3800805Y10296753D01*
X3804412Y10293858D01*
X3808882Y10291775D01*
X3814216Y10290505D01*
X3820414Y10290048D01*
X3838956Y10290302D01*
X3893058Y10290302D01*
X3893058Y10271506D01*
X3900932Y10271506D01*
X3903472Y10291318D01*
X3933444Y10297160D01*
X3933444Y10310114D01*
X3902710Y10308844D01*
X3902710Y10338816D01*
X3893058Y10338816D01*
X3893058Y10308590D01*
X3821176Y10308590D01*
X3813657Y10309453D01*
X3808526Y10311993D01*
X3805580Y10316108D01*
X3804665Y10321544D01*
X3805072Y10325201D01*
X3806240Y10328808D01*
X3808222Y10332567D01*
X3811015Y10336784D01*
G37*
G36*
X3849624Y10260838D02*
G01*
X3842969Y10260533D01*
X3836771Y10259720D01*
X3830980Y10258348D01*
X3825595Y10256520D01*
X3820617Y10254234D01*
X3816096Y10251490D01*
X3812032Y10248442D01*
X3808374Y10245039D01*
X3805123Y10241330D01*
X3802278Y10237317D01*
X3799941Y10233101D01*
X3797960Y10228681D01*
X3796436Y10224109D01*
X3795369Y10219436D01*
X3794709Y10214610D01*
X3794506Y10209784D01*
X3802887Y10209784D01*
X3803243Y10214457D01*
X3804208Y10218724D01*
X3805885Y10222687D01*
X3808222Y10226243D01*
X3811219Y10229443D01*
X3814826Y10232237D01*
X3819093Y10234676D01*
X3823970Y10236657D01*
X3829456Y10238232D01*
X3835603Y10239349D01*
X3842308Y10240010D01*
X3849624Y10240264D01*
X3857091Y10240010D01*
X3863898Y10239349D01*
X3870147Y10238232D01*
X3875786Y10236657D01*
X3880764Y10234676D01*
X3885133Y10232237D01*
X3888841Y10229443D01*
X3891889Y10226243D01*
X3894277Y10222687D01*
X3896004Y10218724D01*
X3897020Y10214457D01*
X3897376Y10209784D01*
X3897020Y10205059D01*
X3896004Y10200741D01*
X3894277Y10196728D01*
X3891889Y10193121D01*
X3888841Y10189921D01*
X3885133Y10187076D01*
X3880764Y10184688D01*
X3875786Y10182656D01*
X3870147Y10181082D01*
X3863898Y10179964D01*
X3857091Y10179304D01*
X3849624Y10179050D01*
X3842308Y10179304D01*
X3835603Y10179964D01*
X3829456Y10181082D01*
X3823970Y10182656D01*
X3819093Y10184688D01*
X3814826Y10187076D01*
X3811219Y10189921D01*
X3808222Y10193121D01*
X3805885Y10196728D01*
X3804208Y10200741D01*
X3803243Y10205059D01*
X3802887Y10209784D01*
X3794506Y10209784D01*
X3794709Y10204856D01*
X3795369Y10200030D01*
X3796436Y10195255D01*
X3797960Y10190683D01*
X3799941Y10186212D01*
X3802278Y10181996D01*
X3805123Y10178034D01*
X3808374Y10174325D01*
X3812032Y10170972D01*
X3816096Y10167924D01*
X3820617Y10165232D01*
X3825595Y10162997D01*
X3830980Y10161168D01*
X3836771Y10159847D01*
X3842969Y10159034D01*
X3849624Y10158730D01*
X3856329Y10159034D01*
X3862628Y10159847D01*
X3868470Y10161219D01*
X3873957Y10163048D01*
X3878986Y10165283D01*
X3883558Y10167975D01*
X3887774Y10171023D01*
X3891483Y10174427D01*
X3894836Y10178135D01*
X3897731Y10182148D01*
X3900170Y10186365D01*
X3902151Y10190784D01*
X3903726Y10195356D01*
X3904843Y10200081D01*
X3905554Y10204907D01*
X3905758Y10209784D01*
X3905554Y10214610D01*
X3904843Y10219334D01*
X3903776Y10224008D01*
X3902201Y10228580D01*
X3900220Y10232999D01*
X3897782Y10237216D01*
X3894886Y10241178D01*
X3891584Y10244937D01*
X3887876Y10248341D01*
X3883660Y10251440D01*
X3879087Y10254183D01*
X3874058Y10256469D01*
X3868572Y10258348D01*
X3862679Y10259720D01*
X3856380Y10260533D01*
G37*
G36*
X3797300Y10143744D02*
G01*
X3797300Y10081006D01*
X3804920Y10081006D01*
X3807206Y10101834D01*
X3836568Y10102037D01*
X3914190Y10102037D01*
X3936237Y10101834D01*
X3938524Y10081006D01*
X3946144Y10081006D01*
X3946144Y10143744D01*
X3938524Y10143744D01*
X3936237Y10122916D01*
X3906926Y10122458D01*
X3844137Y10122458D01*
X3807460Y10122916D01*
X3804920Y10143744D01*
G37*
G36*
X3568700Y12287758D02*
G01*
X3568700Y12196318D01*
X3582415Y12196318D01*
X3620770Y12230100D01*
X3632504Y12240056D01*
X3637940Y12244324D01*
X3648201Y12251436D01*
X3653078Y12254280D01*
X3657752Y12256719D01*
X3662375Y12258649D01*
X3666896Y12260173D01*
X3671315Y12261240D01*
X3675786Y12261900D01*
X3680206Y12262104D01*
X3687064Y12261596D01*
X3693210Y12260173D01*
X3698646Y12257836D01*
X3703218Y12254687D01*
X3706926Y12250724D01*
X3709670Y12246051D01*
X3711397Y12240666D01*
X3711956Y12234672D01*
X3711600Y12229388D01*
X3710432Y12222734D01*
X3694176Y12218416D01*
X3687724Y12216130D01*
X3683406Y12213386D01*
X3680968Y12210084D01*
X3680206Y12206224D01*
X3680714Y12202820D01*
X3682136Y12199823D01*
X3684270Y12197283D01*
X3687064Y12195302D01*
X3692398Y12196419D01*
X3697325Y12198146D01*
X3701745Y12200483D01*
X3705707Y12203328D01*
X3709162Y12206681D01*
X3712210Y12210491D01*
X3714750Y12214707D01*
X3716883Y12219279D01*
X3718509Y12224105D01*
X3719677Y12229236D01*
X3720337Y12234519D01*
X3720592Y12240006D01*
X3720236Y12246864D01*
X3719271Y12253061D01*
X3717696Y12258598D01*
X3715512Y12263475D01*
X3712819Y12267793D01*
X3709568Y12271451D01*
X3705860Y12274550D01*
X3701694Y12277039D01*
X3697122Y12278969D01*
X3692144Y12280341D01*
X3686860Y12281154D01*
X3681222Y12281408D01*
X3676497Y12281154D01*
X3671874Y12280442D01*
X3667302Y12279122D01*
X3662679Y12277293D01*
X3657904Y12274804D01*
X3652875Y12271603D01*
X3647541Y12267793D01*
X3635552Y12257836D01*
X3621176Y12244628D01*
X3585972Y12210542D01*
X3585972Y12287758D01*
G37*
G36*
X3568700Y12176252D02*
G01*
X3568700Y12084812D01*
X3582415Y12084812D01*
X3620770Y12118594D01*
X3632504Y12128449D01*
X3643172Y12136424D01*
X3648201Y12139726D01*
X3653078Y12142571D01*
X3657752Y12144959D01*
X3662375Y12146889D01*
X3666896Y12148413D01*
X3671315Y12149480D01*
X3675786Y12150140D01*
X3680206Y12150344D01*
X3687064Y12149886D01*
X3693210Y12148464D01*
X3698646Y12146178D01*
X3703218Y12143028D01*
X3706926Y12139117D01*
X3709670Y12134494D01*
X3711397Y12129160D01*
X3711956Y12123166D01*
X3711600Y12117679D01*
X3710432Y12111228D01*
X3694176Y12106656D01*
X3687724Y12104522D01*
X3683406Y12101779D01*
X3680968Y12098477D01*
X3680206Y12094464D01*
X3680714Y12091212D01*
X3682136Y12088266D01*
X3684270Y12085777D01*
X3687064Y12083796D01*
X3692398Y12084913D01*
X3697325Y12086640D01*
X3701745Y12088977D01*
X3705707Y12091822D01*
X3709162Y12095175D01*
X3712210Y12098985D01*
X3714750Y12103201D01*
X3716883Y12107773D01*
X3718509Y12112599D01*
X3719677Y12117730D01*
X3720337Y12123013D01*
X3720592Y12128500D01*
X3720236Y12135358D01*
X3719271Y12141555D01*
X3717696Y12147092D01*
X3715512Y12151969D01*
X3712819Y12156287D01*
X3709568Y12159945D01*
X3705860Y12163044D01*
X3701694Y12165533D01*
X3697122Y12167463D01*
X3692144Y12168835D01*
X3686860Y12169648D01*
X3681222Y12169902D01*
X3676497Y12169648D01*
X3671874Y12168886D01*
X3667302Y12167616D01*
X3662679Y12165685D01*
X3657904Y12163196D01*
X3652875Y12160046D01*
X3647541Y12156186D01*
X3635552Y12146229D01*
X3621176Y12133072D01*
X3585972Y12099036D01*
X3585972Y12176252D01*
G37*
G36*
X3644392Y12064746D02*
G01*
X3634028Y12064492D01*
X3624478Y12063730D01*
X3615740Y12062460D01*
X3607815Y12060783D01*
X3600653Y12058650D01*
X3594201Y12056211D01*
X3588512Y12053366D01*
X3583533Y12050268D01*
X3579215Y12046864D01*
X3575558Y12043257D01*
X3572510Y12039396D01*
X3570071Y12035383D01*
X3568192Y12031218D01*
X3566922Y12026950D01*
X3566160Y12022632D01*
X3565906Y12018264D01*
X3574287Y12018264D01*
X3574592Y12021667D01*
X3575659Y12024969D01*
X3577437Y12028170D01*
X3580180Y12031218D01*
X3583838Y12034012D01*
X3588562Y12036602D01*
X3594455Y12038888D01*
X3601618Y12040870D01*
X3610101Y12042495D01*
X3619957Y12043664D01*
X3631387Y12044426D01*
X3644392Y12044680D01*
X3656939Y12044426D01*
X3667912Y12043664D01*
X3677412Y12042495D01*
X3685540Y12040870D01*
X3692398Y12038888D01*
X3698036Y12036602D01*
X3702608Y12034012D01*
X3706114Y12031218D01*
X3708704Y12028170D01*
X3710432Y12024969D01*
X3711397Y12021667D01*
X3711701Y12018264D01*
X3711397Y12014758D01*
X3710432Y12011304D01*
X3708704Y12008002D01*
X3706114Y12004903D01*
X3702608Y12002008D01*
X3698036Y11999315D01*
X3692398Y11996978D01*
X3685540Y11994946D01*
X3677412Y11993321D01*
X3667912Y11992102D01*
X3656939Y11991340D01*
X3644392Y11991086D01*
X3634435Y11991238D01*
X3625392Y11991695D01*
X3617264Y11992356D01*
X3609949Y11993321D01*
X3603498Y11994540D01*
X3597757Y11995912D01*
X3592779Y11997537D01*
X3588461Y11999315D01*
X3584854Y12001296D01*
X3581806Y12003430D01*
X3579368Y12005665D01*
X3577437Y12008002D01*
X3576015Y12010491D01*
X3574999Y12013031D01*
X3574440Y12015622D01*
X3574287Y12018264D01*
X3565906Y12018264D01*
X3566160Y12013793D01*
X3566922Y12009424D01*
X3568192Y12005106D01*
X3570071Y12000890D01*
X3572510Y11996826D01*
X3575558Y11992965D01*
X3579215Y11989358D01*
X3583533Y11985955D01*
X3588512Y11982805D01*
X3594201Y11980011D01*
X3600653Y11977573D01*
X3607815Y11975490D01*
X3615740Y11973814D01*
X3624478Y11972544D01*
X3634028Y11971782D01*
X3644392Y11971528D01*
X3654399Y11971782D01*
X3663645Y11972544D01*
X3672078Y11973814D01*
X3679748Y11975490D01*
X3686708Y11977573D01*
X3692956Y11980011D01*
X3698494Y11982805D01*
X3703370Y11985955D01*
X3707587Y11989358D01*
X3711143Y11992965D01*
X3714140Y11996826D01*
X3716528Y12000890D01*
X3718306Y12005106D01*
X3719576Y12009424D01*
X3720337Y12013793D01*
X3720592Y12018264D01*
X3720337Y12022632D01*
X3719576Y12026950D01*
X3718306Y12031218D01*
X3716528Y12035383D01*
X3714140Y12039396D01*
X3711143Y12043257D01*
X3707587Y12046864D01*
X3703370Y12050268D01*
X3698494Y12053366D01*
X3692956Y12056211D01*
X3686708Y12058650D01*
X3679748Y12060783D01*
X3672078Y12062460D01*
X3663645Y12063730D01*
X3654399Y12064492D01*
G37*
G36*
X3568700Y11953240D02*
G01*
X3568700Y11861800D01*
X3582415Y11861800D01*
X3620770Y11895328D01*
X3632504Y11905284D01*
X3637940Y11909552D01*
X3648201Y11916664D01*
X3653078Y11919508D01*
X3657752Y11921947D01*
X3662375Y11923877D01*
X3666896Y11925401D01*
X3671315Y11926468D01*
X3675786Y11927128D01*
X3680206Y11927332D01*
X3687064Y11926824D01*
X3693210Y11925401D01*
X3698646Y11923064D01*
X3703218Y11919915D01*
X3706926Y11916003D01*
X3709670Y11911380D01*
X3711397Y11906046D01*
X3711956Y11900154D01*
X3711600Y11894667D01*
X3710432Y11888216D01*
X3694176Y11883644D01*
X3687724Y11881459D01*
X3683406Y11878665D01*
X3680968Y11875363D01*
X3680206Y11871452D01*
X3680714Y11868150D01*
X3682136Y11865152D01*
X3684270Y11862663D01*
X3687064Y11860784D01*
X3692398Y11861901D01*
X3697325Y11863578D01*
X3701745Y11865914D01*
X3705707Y11868759D01*
X3709162Y11872112D01*
X3712210Y11875871D01*
X3714750Y11880088D01*
X3716883Y11884660D01*
X3718509Y11889486D01*
X3719677Y11894616D01*
X3720337Y11899950D01*
X3720592Y11905488D01*
X3720236Y11912295D01*
X3719271Y11918442D01*
X3717696Y11923979D01*
X3715512Y11928856D01*
X3712819Y11933174D01*
X3709568Y11936831D01*
X3705860Y11939981D01*
X3701694Y11942470D01*
X3697122Y11944400D01*
X3692144Y11945823D01*
X3686860Y11946636D01*
X3681222Y11946890D01*
X3676497Y11946636D01*
X3671874Y11945874D01*
X3667302Y11944604D01*
X3662679Y11942673D01*
X3657904Y11940184D01*
X3652875Y11937034D01*
X3647541Y11933174D01*
X3635552Y11923217D01*
X3621176Y11910060D01*
X3585972Y11876024D01*
X3585972Y11953240D01*
G37*
G36*
X3667251Y11798808D02*
G01*
X3665220Y11786616D01*
X3557371Y11745468D01*
X3549243Y11741912D01*
X3542029Y11738305D01*
X3535730Y11734749D01*
X3530244Y11731091D01*
X3525570Y11727434D01*
X3521710Y11723725D01*
X3518611Y11719966D01*
X3516274Y11716156D01*
X3514598Y11712295D01*
X3513632Y11708333D01*
X3513328Y11704320D01*
X3514344Y11696852D01*
X3517188Y11690502D01*
X3521557Y11686133D01*
X3527298Y11684508D01*
X3531412Y11686438D01*
X3534257Y11689689D01*
X3535883Y11693956D01*
X3536442Y11698732D01*
X3535934Y11703151D01*
X3534359Y11707063D01*
X3531819Y11710873D01*
X3528314Y11714988D01*
X3526536Y11716512D01*
X3529685Y11720169D01*
X3533140Y11723471D01*
X3536950Y11726468D01*
X3541064Y11729212D01*
X3545433Y11731701D01*
X3550056Y11734038D01*
X3562096Y11739118D01*
X3665728Y11697716D01*
X3667251Y11685016D01*
X3674110Y11685016D01*
X3674110Y11737848D01*
X3667251Y11737848D01*
X3665220Y11718544D01*
X3585972Y11748008D01*
X3664965Y11775948D01*
X3667251Y11755882D01*
X3674110Y11755882D01*
X3674110Y11798808D01*
G37*
G36*
X3568700Y11682730D02*
G01*
X3568700Y11629136D01*
X3575558Y11629136D01*
X3578098Y11646154D01*
X3612387Y11622278D01*
X3578351Y11596624D01*
X3575558Y11613896D01*
X3568700Y11613896D01*
X3568700Y11570208D01*
X3575558Y11570208D01*
X3577844Y11584432D01*
X3619246Y11617452D01*
X3664712Y11586464D01*
X3666744Y11572240D01*
X3674110Y11572240D01*
X3674110Y11621516D01*
X3666744Y11621516D01*
X3664458Y11607038D01*
X3631437Y11630152D01*
X3664204Y11654536D01*
X3666744Y11639296D01*
X3674110Y11639296D01*
X3674110Y11680190D01*
X3666744Y11680190D01*
X3664712Y11667236D01*
X3624579Y11634724D01*
X3577844Y11667236D01*
X3575558Y11682730D01*
G37*
G36*
X3577590Y11566906D02*
G01*
X3572256Y11562842D01*
X3568750Y11558320D01*
X3566769Y11553342D01*
X3566160Y11547856D01*
X3567379Y11540236D01*
X3570935Y11534292D01*
X3576472Y11530126D01*
X3583686Y11527790D01*
X3575862Y11519357D01*
X3572814Y11515445D01*
X3570325Y11511635D01*
X3568395Y11507724D01*
X3567023Y11503660D01*
X3566722Y11502136D01*
X3578860Y11502136D01*
X3579520Y11507673D01*
X3581704Y11513108D01*
X3585718Y11519408D01*
X3591814Y11527536D01*
X3627120Y11527536D01*
X3623716Y11516004D01*
X3620515Y11506962D01*
X3617620Y11500358D01*
X3614623Y11495074D01*
X3611575Y11491061D01*
X3608527Y11488064D01*
X3605428Y11485981D01*
X3602278Y11484711D01*
X3599179Y11484051D01*
X3596132Y11483848D01*
X3588410Y11485219D01*
X3583025Y11489080D01*
X3579876Y11494871D01*
X3578860Y11502136D01*
X3566722Y11502136D01*
X3566160Y11499291D01*
X3565906Y11494516D01*
X3566363Y11488572D01*
X3567633Y11483035D01*
X3569817Y11478056D01*
X3572814Y11473688D01*
X3576675Y11470081D01*
X3581349Y11467388D01*
X3586835Y11465661D01*
X3593084Y11465052D01*
X3598062Y11465458D01*
X3602685Y11466677D01*
X3607054Y11469014D01*
X3611219Y11472519D01*
X3615232Y11477396D01*
X3619144Y11483797D01*
X3623005Y11491925D01*
X3626865Y11501882D01*
X3630726Y11513972D01*
X3634232Y11527536D01*
X3641090Y11527536D01*
X3648557Y11527231D01*
X3654653Y11526316D01*
X3659428Y11524742D01*
X3663137Y11522506D01*
X3665778Y11519560D01*
X3667506Y11515852D01*
X3668471Y11511432D01*
X3668776Y11506200D01*
X3668217Y11500053D01*
X3666744Y11493500D01*
X3651504Y11489182D01*
X3647033Y11487505D01*
X3643833Y11485118D01*
X3641953Y11481968D01*
X3641344Y11478006D01*
X3641902Y11473942D01*
X3643528Y11470944D01*
X3646170Y11469014D01*
X3649726Y11468100D01*
X3655771Y11470081D01*
X3661206Y11473180D01*
X3665880Y11477345D01*
X3669842Y11482476D01*
X3672941Y11488470D01*
X3675278Y11495328D01*
X3676700Y11502948D01*
X3677158Y11511280D01*
X3676954Y11516868D01*
X3676243Y11521948D01*
X3675075Y11526520D01*
X3673449Y11530634D01*
X3671214Y11534190D01*
X3668471Y11537289D01*
X3665169Y11539931D01*
X3661257Y11542064D01*
X3656685Y11543690D01*
X3651504Y11544909D01*
X3645611Y11545570D01*
X3639058Y11545824D01*
X3590544Y11545824D01*
X3583940Y11546382D01*
X3579520Y11548008D01*
X3577082Y11550548D01*
X3576320Y11553952D01*
X3576675Y11556441D01*
X3577793Y11558676D01*
X3579520Y11560759D01*
X3581908Y11562842D01*
G37*
G36*
X3666744Y11456416D02*
G01*
X3663950Y11443716D01*
X3567176Y11407394D01*
X3567176Y11398250D01*
X3664965Y11358118D01*
X3666744Y11345672D01*
X3674110Y11345672D01*
X3674110Y11398758D01*
X3666744Y11398758D01*
X3664712Y11379454D01*
X3589528Y11407648D01*
X3663950Y11433556D01*
X3666744Y11415268D01*
X3674110Y11415268D01*
X3674110Y11456416D01*
G37*
G36*
X3568700Y11341354D02*
G01*
X3568700Y11290046D01*
X3575558Y11290046D01*
X3578098Y11307064D01*
X3615436Y11307572D01*
X3635603Y11307521D01*
X3656584Y11307064D01*
X3658362Y11288776D01*
X3664965Y11288776D01*
X3676904Y11323066D01*
X3674872Y11326114D01*
X3645408Y11325606D01*
X3606800Y11325656D01*
X3578098Y11326114D01*
X3575558Y11341354D01*
G37*
G36*
X3716528Y11330432D02*
G01*
X3710940Y11329314D01*
X3706520Y11326266D01*
X3703574Y11321745D01*
X3702558Y11316208D01*
X3703574Y11310569D01*
X3706520Y11306048D01*
X3710940Y11303050D01*
X3716528Y11301984D01*
X3722065Y11303050D01*
X3726281Y11306048D01*
X3729024Y11310569D01*
X3729990Y11316208D01*
X3729024Y11321745D01*
X3726281Y11326266D01*
X3722065Y11329314D01*
G37*
G36*
X3634740Y11271758D02*
G01*
X3627729Y11271351D01*
X3624834Y11270894D01*
X3622294Y11270234D01*
X3622394Y11241786D01*
X3630422Y11241786D01*
X3631336Y11247729D01*
X3633876Y11251387D01*
X3637838Y11253216D01*
X3642868Y11253724D01*
X3647897Y11253266D01*
X3652723Y11251895D01*
X3657092Y11249761D01*
X3660952Y11246815D01*
X3664204Y11243259D01*
X3666642Y11239042D01*
X3668217Y11234318D01*
X3668776Y11229086D01*
X3668217Y11224006D01*
X3666591Y11219027D01*
X3663746Y11214201D01*
X3659784Y11209782D01*
X3654501Y11205870D01*
X3647998Y11202670D01*
X3640124Y11200282D01*
X3630929Y11198860D01*
X3630422Y11241786D01*
X3622394Y11241786D01*
X3622548Y11198606D01*
X3615486Y11199012D01*
X3609035Y11200028D01*
X3603193Y11201552D01*
X3598011Y11203584D01*
X3593388Y11206124D01*
X3589426Y11209121D01*
X3586022Y11212626D01*
X3583279Y11216487D01*
X3581095Y11220754D01*
X3579571Y11225377D01*
X3578656Y11230356D01*
X3578351Y11235690D01*
X3579520Y11245596D01*
X3582720Y11253774D01*
X3587800Y11260785D01*
X3594354Y11266932D01*
X3591306Y11271504D01*
X3585718Y11268151D01*
X3580688Y11264290D01*
X3576370Y11259820D01*
X3572713Y11254790D01*
X3569766Y11249253D01*
X3567684Y11243157D01*
X3566363Y11236502D01*
X3565906Y11229340D01*
X3566160Y11223853D01*
X3566820Y11218570D01*
X3567988Y11213592D01*
X3569563Y11208816D01*
X3571646Y11204397D01*
X3574084Y11200231D01*
X3576980Y11196421D01*
X3580282Y11192967D01*
X3583990Y11189817D01*
X3588105Y11187074D01*
X3592626Y11184686D01*
X3597503Y11182705D01*
X3602786Y11181130D01*
X3608425Y11179962D01*
X3614420Y11179302D01*
X3620770Y11179048D01*
X3627069Y11179302D01*
X3633012Y11180114D01*
X3638702Y11181384D01*
X3644036Y11183162D01*
X3649065Y11185347D01*
X3653688Y11187988D01*
X3657955Y11190935D01*
X3661816Y11194288D01*
X3665321Y11197945D01*
X3668369Y11201908D01*
X3671011Y11206124D01*
X3673144Y11210544D01*
X3674872Y11215217D01*
X3676142Y11220043D01*
X3676904Y11225022D01*
X3677158Y11230102D01*
X3676802Y11235994D01*
X3675837Y11241582D01*
X3674211Y11246815D01*
X3671976Y11251641D01*
X3669131Y11256010D01*
X3665778Y11259972D01*
X3661816Y11263426D01*
X3657346Y11266322D01*
X3652418Y11268659D01*
X3646982Y11270335D01*
X3641090Y11271402D01*
G37*
G36*
X3568700Y11168634D02*
G01*
X3567684Y11165128D01*
X3566972Y11161166D01*
X3566566Y11156645D01*
X3566414Y11151616D01*
X3567176Y11142675D01*
X3569614Y11136172D01*
X3574034Y11131804D01*
X3580637Y11129264D01*
X3615944Y11120120D01*
X3622141Y11118240D01*
X3627170Y11116056D01*
X3631031Y11113363D01*
X3633978Y11110112D01*
X3636060Y11106251D01*
X3637381Y11101578D01*
X3638092Y11096091D01*
X3638296Y11089640D01*
X3638296Y11077956D01*
X3646678Y11077956D01*
X3646678Y11095990D01*
X3647287Y11104372D01*
X3649116Y11111636D01*
X3652012Y11117732D01*
X3655872Y11122710D01*
X3660597Y11126571D01*
X3666083Y11129365D01*
X3672230Y11130991D01*
X3678936Y11131550D01*
X3685692Y11131042D01*
X3691636Y11129568D01*
X3696766Y11127028D01*
X3701084Y11123422D01*
X3704437Y11118748D01*
X3706926Y11112906D01*
X3708400Y11105946D01*
X3708908Y11097768D01*
X3708908Y11078464D01*
X3686606Y11078057D01*
X3607917Y11078006D01*
X3578860Y11078464D01*
X3576320Y11099038D01*
X3568700Y11099038D01*
X3568700Y11036554D01*
X3576320Y11036554D01*
X3578606Y11057128D01*
X3607968Y11057585D01*
X3670858Y11057585D01*
X3707637Y11057128D01*
X3709924Y11036554D01*
X3717544Y11036554D01*
X3717544Y11098784D01*
X3717239Y11106962D01*
X3716375Y11114481D01*
X3714953Y11121440D01*
X3712921Y11127740D01*
X3710432Y11133429D01*
X3707333Y11138357D01*
X3703777Y11142624D01*
X3699713Y11146180D01*
X3695141Y11148974D01*
X3690112Y11151006D01*
X3684625Y11152225D01*
X3678682Y11152632D01*
X3674364Y11152378D01*
X3670096Y11151565D01*
X3666032Y11150193D01*
X3662121Y11148314D01*
X3658412Y11145926D01*
X3654958Y11142980D01*
X3651758Y11139525D01*
X3648862Y11135512D01*
X3646322Y11130991D01*
X3644137Y11125962D01*
X3642410Y11120374D01*
X3641090Y11114278D01*
X3639718Y11119205D01*
X3637838Y11123625D01*
X3635400Y11127536D01*
X3632352Y11130940D01*
X3628593Y11133937D01*
X3624173Y11136579D01*
X3618941Y11138916D01*
X3612896Y11140948D01*
X3578098Y11151362D01*
X3576320Y11168634D01*
G37*
G36*
X3643629Y11019790D02*
G01*
X3636518Y11019536D01*
X3629660Y11018774D01*
X3623106Y11017554D01*
X3616858Y11015878D01*
X3610914Y11013744D01*
X3605326Y11011154D01*
X3600043Y11008207D01*
X3595115Y11004905D01*
X3590544Y11001197D01*
X3586327Y10997184D01*
X3582466Y10992815D01*
X3578961Y10988192D01*
X3575862Y10983264D01*
X3573119Y10978083D01*
X3570782Y10972647D01*
X3568852Y10967008D01*
X3567379Y10961116D01*
X3566261Y10955121D01*
X3565601Y10948924D01*
X3565398Y10942574D01*
X3573272Y10942574D01*
X3573475Y10948162D01*
X3574084Y10953648D01*
X3575100Y10958982D01*
X3576472Y10964113D01*
X3578250Y10969040D01*
X3580333Y10973816D01*
X3582822Y10978337D01*
X3585667Y10982604D01*
X3588867Y10986668D01*
X3592372Y10990427D01*
X3596182Y10993882D01*
X3600297Y10997082D01*
X3604768Y10999978D01*
X3609492Y11002518D01*
X3614521Y11004702D01*
X3619804Y11006531D01*
X3625392Y11007953D01*
X3631234Y11009020D01*
X3637330Y11009680D01*
X3643629Y11009884D01*
X3649929Y11009680D01*
X3656025Y11009020D01*
X3661816Y11007953D01*
X3667353Y11006531D01*
X3672636Y11004702D01*
X3677615Y11002518D01*
X3682288Y10999978D01*
X3686657Y10997082D01*
X3690772Y10993882D01*
X3694531Y10990427D01*
X3697986Y10986668D01*
X3701084Y10982604D01*
X3703878Y10978337D01*
X3706317Y10973816D01*
X3708400Y10969040D01*
X3710127Y10964113D01*
X3711448Y10958982D01*
X3712413Y10953648D01*
X3713022Y10948162D01*
X3713226Y10942574D01*
X3713022Y10936986D01*
X3712464Y10931499D01*
X3711498Y10926165D01*
X3710127Y10921034D01*
X3708400Y10916107D01*
X3706368Y10911332D01*
X3703929Y10906810D01*
X3701186Y10902543D01*
X3698036Y10898479D01*
X3694633Y10894720D01*
X3690874Y10891266D01*
X3686759Y10888065D01*
X3682390Y10885170D01*
X3677716Y10882630D01*
X3672738Y10880445D01*
X3667455Y10878616D01*
X3661918Y10877194D01*
X3656076Y10876127D01*
X3649979Y10875467D01*
X3643629Y10875264D01*
X3637229Y10875467D01*
X3631031Y10876127D01*
X3625138Y10877194D01*
X3619550Y10878616D01*
X3614216Y10880445D01*
X3609187Y10882630D01*
X3604412Y10885170D01*
X3599992Y10888065D01*
X3595878Y10891266D01*
X3592068Y10894720D01*
X3588613Y10898479D01*
X3585464Y10902543D01*
X3582670Y10906810D01*
X3580231Y10911332D01*
X3578098Y10916107D01*
X3576370Y10921034D01*
X3575050Y10926165D01*
X3574084Y10931499D01*
X3573475Y10936986D01*
X3573272Y10942574D01*
X3565398Y10942574D01*
X3565601Y10936224D01*
X3566261Y10929975D01*
X3567379Y10923930D01*
X3568852Y10918037D01*
X3570782Y10912348D01*
X3573119Y10906912D01*
X3575862Y10901680D01*
X3578961Y10896752D01*
X3582466Y10892078D01*
X3586327Y10887760D01*
X3590544Y10883696D01*
X3595115Y10879988D01*
X3600043Y10876686D01*
X3605326Y10873740D01*
X3610914Y10871149D01*
X3616858Y10869015D01*
X3623106Y10867339D01*
X3629660Y10866120D01*
X3636518Y10865358D01*
X3643629Y10865104D01*
X3650742Y10865358D01*
X3657600Y10866120D01*
X3664102Y10867339D01*
X3670300Y10869015D01*
X3676192Y10871149D01*
X3681780Y10873740D01*
X3686962Y10876686D01*
X3691839Y10879988D01*
X3696411Y10883696D01*
X3700576Y10887760D01*
X3704386Y10892078D01*
X3707790Y10896752D01*
X3710838Y10901680D01*
X3713530Y10906912D01*
X3715816Y10912348D01*
X3717696Y10918037D01*
X3719169Y10923930D01*
X3720236Y10929975D01*
X3720896Y10936224D01*
X3721100Y10942574D01*
X3720896Y10948924D01*
X3720236Y10955121D01*
X3719169Y10961116D01*
X3717696Y10967008D01*
X3715816Y10972647D01*
X3713530Y10978083D01*
X3710838Y10983264D01*
X3707790Y10988192D01*
X3704386Y10992815D01*
X3700576Y10997184D01*
X3696411Y11001197D01*
X3691839Y11004905D01*
X3686962Y11008207D01*
X3681780Y11011154D01*
X3676192Y11013744D01*
X3670300Y11015878D01*
X3664102Y11017554D01*
X3657600Y11018774D01*
X3650742Y11019536D01*
G37*
G36*
X3625850Y10973054D02*
G01*
X3604514Y10972546D01*
X3601720Y10966348D01*
X3599840Y10959896D01*
X3598773Y10953191D01*
X3598418Y10946130D01*
X3598773Y10939830D01*
X3599891Y10933938D01*
X3601720Y10928400D01*
X3604209Y10923371D01*
X3607308Y10918748D01*
X3611016Y10914684D01*
X3615283Y10911179D01*
X3620058Y10908182D01*
X3625291Y10905845D01*
X3631031Y10904118D01*
X3637127Y10903051D01*
X3643629Y10902696D01*
X3650132Y10903051D01*
X3656279Y10904169D01*
X3661968Y10905998D01*
X3667251Y10908436D01*
X3672078Y10911484D01*
X3676345Y10915091D01*
X3680104Y10919206D01*
X3683254Y10923828D01*
X3685743Y10928858D01*
X3687572Y10934293D01*
X3688689Y10940034D01*
X3689096Y10946130D01*
X3688842Y10953038D01*
X3687876Y10959287D01*
X3685997Y10965180D01*
X3683000Y10971276D01*
X3661664Y10971784D01*
X3661664Y10963148D01*
X3679444Y10959846D01*
X3680460Y10956798D01*
X3681171Y10953800D01*
X3681729Y10948162D01*
X3681120Y10941964D01*
X3679291Y10936274D01*
X3676243Y10931144D01*
X3672027Y10926673D01*
X3666642Y10923016D01*
X3660089Y10920272D01*
X3652418Y10918545D01*
X3643629Y10917936D01*
X3635095Y10918494D01*
X3627577Y10920120D01*
X3621125Y10922711D01*
X3615791Y10926267D01*
X3611575Y10930636D01*
X3608527Y10935716D01*
X3606647Y10941507D01*
X3606037Y10947908D01*
X3606190Y10950803D01*
X3606647Y10954004D01*
X3607409Y10957407D01*
X3608578Y10960862D01*
X3625850Y10964164D01*
G37*
D25*
X4179338Y8775700D02*
G01*
X4070235Y8775700D01*
X4179338Y8775700D02*
G01*
X4179338Y8822458D01*
X4174144Y8838044D01*
X4168947Y8843241D01*
X4158556Y8848435D01*
X4148165Y8848435D01*
X4137774Y8843241D01*
X4132579Y8838044D01*
X4127385Y8822458D01*
X4127385Y8775700D01*
X4127385Y8812067D02*
G01*
X4070235Y8848435D01*
X4158556Y8882725D02*
G01*
X4163753Y8893116D01*
X4179338Y8908704D01*
X4070235Y8908704D01*
X1385338Y10877550D02*
G01*
X1276235Y10877550D01*
X1385338Y10877550D02*
G01*
X1385338Y10924308D01*
X1380144Y10939894D01*
X1374947Y10945091D01*
X1364556Y10950285D01*
X1354165Y10950285D01*
X1343774Y10945091D01*
X1338579Y10939894D01*
X1333385Y10924308D01*
X1333385Y10877550D01*
X1333385Y10913917D02*
G01*
X1276235Y10950285D01*
X1359362Y10989772D02*
G01*
X1364556Y10989772D01*
X1374947Y10994966D01*
X1380144Y11000163D01*
X1385338Y11010554D01*
X1385338Y11031334D01*
X1380144Y11041725D01*
X1374947Y11046922D01*
X1364556Y11052116D01*
X1354165Y11052116D01*
X1343774Y11046922D01*
X1328188Y11036531D01*
X1276235Y10984575D01*
X1276235Y11057313D01*
X978938Y10864850D02*
G01*
X869835Y10864850D01*
X978938Y10864850D02*
G01*
X978938Y10911608D01*
X973744Y10927194D01*
X968547Y10932391D01*
X958156Y10937585D01*
X947765Y10937585D01*
X937374Y10932391D01*
X932179Y10927194D01*
X926985Y10911608D01*
X926985Y10864850D01*
X926985Y10901217D02*
G01*
X869835Y10937585D01*
X978938Y10982266D02*
G01*
X978938Y11039416D01*
X937374Y11008245D01*
X937374Y11023831D01*
X932179Y11034222D01*
X926985Y11039416D01*
X911397Y11044613D01*
X901006Y11044613D01*
X885421Y11039416D01*
X875029Y11029025D01*
X869835Y11013439D01*
X869835Y10997854D01*
X875029Y10982266D01*
X880224Y10977072D01*
X890615Y10971875D01*
X1207538Y8547100D02*
G01*
X1129606Y8547100D01*
X1114021Y8552294D01*
X1103629Y8562685D01*
X1098435Y8578273D01*
X1098435Y8588664D01*
X1103629Y8604250D01*
X1114021Y8614641D01*
X1129606Y8619835D01*
X1207538Y8619835D01*
X1207538Y8664516D02*
G01*
X1207538Y8721666D01*
X1165974Y8690495D01*
X1165974Y8706081D01*
X1160779Y8716472D01*
X1155585Y8721666D01*
X1139997Y8726863D01*
X1129606Y8726863D01*
X1114021Y8721666D01*
X1103629Y8711275D01*
X1098435Y8695689D01*
X1098435Y8680104D01*
X1103629Y8664516D01*
X1108824Y8659322D01*
X1119215Y8654125D01*
X3517790Y9442416D02*
G01*
X3525062Y9449691D01*
X3535972Y9453326D01*
X3550518Y9453326D01*
X3561427Y9449691D01*
X3568700Y9442416D01*
X3568700Y9435144D01*
X3565062Y9427872D01*
X3561427Y9424235D01*
X3554153Y9420600D01*
X3532337Y9413326D01*
X3525062Y9409691D01*
X3521428Y9406054D01*
X3517790Y9398782D01*
X3517790Y9387873D01*
X3525062Y9380601D01*
X3535972Y9376963D01*
X3550518Y9376963D01*
X3561427Y9380601D01*
X3568700Y9387873D01*
X3493790Y9453326D02*
G01*
X3475609Y9376963D01*
X3457427Y9453326D02*
G01*
X3475609Y9376963D01*
X3457427Y9453326D02*
G01*
X3439246Y9376963D01*
X3421062Y9453326D02*
G01*
X3439246Y9376963D01*
X3397064Y9453326D02*
G01*
X3397064Y9376963D01*
X3347608Y9453326D02*
G01*
X3347608Y9376963D01*
X3373064Y9453326D02*
G01*
X3322154Y9453326D01*
X3243607Y9435144D02*
G01*
X3247245Y9442416D01*
X3254517Y9449691D01*
X3261791Y9453326D01*
X3276335Y9453326D01*
X3283607Y9449691D01*
X3290882Y9442416D01*
X3294517Y9435144D01*
X3298154Y9424235D01*
X3298154Y9406054D01*
X3294517Y9395145D01*
X3290882Y9387873D01*
X3283607Y9380601D01*
X3276335Y9376963D01*
X3261791Y9376963D01*
X3254517Y9380601D01*
X3247245Y9387873D01*
X3243607Y9395145D01*
X3219610Y9453326D02*
G01*
X3219610Y9376963D01*
X3168700Y9453326D02*
G01*
X3168700Y9376963D01*
X3219610Y9416963D02*
G01*
X3168700Y9416963D01*
X3144700Y9438782D02*
G01*
X3137428Y9442416D01*
X3126519Y9453326D01*
X3126519Y9376963D01*
X1242753Y11693235D02*
G01*
X1253144Y11682844D01*
X1258338Y11667258D01*
X1258338Y11646476D01*
X1253144Y11630891D01*
X1242753Y11620500D01*
X1232362Y11620500D01*
X1221971Y11625694D01*
X1216774Y11630891D01*
X1211579Y11641282D01*
X1201188Y11672455D01*
X1195994Y11682844D01*
X1190797Y11688041D01*
X1180406Y11693235D01*
X1164821Y11693235D01*
X1154429Y11682844D01*
X1149235Y11667258D01*
X1149235Y11646476D01*
X1154429Y11630891D01*
X1164821Y11620500D01*
X1258338Y11727525D02*
G01*
X1149235Y11727525D01*
X1258338Y11727525D02*
G01*
X1258338Y11795066D01*
X1206385Y11727525D02*
G01*
X1206385Y11769089D01*
X1149235Y11727525D02*
G01*
X1149235Y11795066D01*
X1258338Y11829356D02*
G01*
X1149235Y11829356D01*
X1258338Y11829356D02*
G01*
X1258338Y11876115D01*
X1253144Y11891703D01*
X1247947Y11896897D01*
X1237556Y11902094D01*
X1227165Y11902094D01*
X1216774Y11896897D01*
X1211579Y11891703D01*
X1206385Y11876115D01*
X1206385Y11829356D01*
X1206385Y11865724D02*
G01*
X1149235Y11902094D01*
X1258338Y11936384D02*
G01*
X1149235Y11936384D01*
X1258338Y12012236D02*
G01*
X1149235Y11970674D01*
X1258338Y12012236D02*
G01*
X1149235Y12053801D01*
X1185603Y11986260D02*
G01*
X1185603Y12038215D01*
X1258338Y12088091D02*
G01*
X1149235Y12088091D01*
X1149235Y12088091D02*
G01*
X1149235Y12150435D01*
X4227253Y10347035D02*
G01*
X4237644Y10336644D01*
X4242838Y10321058D01*
X4242838Y10300276D01*
X4237644Y10284691D01*
X4227253Y10274300D01*
X4216862Y10274300D01*
X4206471Y10279494D01*
X4201274Y10284691D01*
X4196079Y10295082D01*
X4185688Y10326255D01*
X4180494Y10336644D01*
X4175297Y10341841D01*
X4164906Y10347035D01*
X4149321Y10347035D01*
X4138929Y10336644D01*
X4133735Y10321058D01*
X4133735Y10300276D01*
X4138929Y10284691D01*
X4149321Y10274300D01*
X4242838Y10381325D02*
G01*
X4133735Y10381325D01*
X4242838Y10454063D02*
G01*
X4133735Y10454063D01*
X4190885Y10381325D02*
G01*
X4190885Y10454063D01*
X4242838Y10529915D02*
G01*
X4133735Y10488353D01*
X4242838Y10529915D02*
G01*
X4133735Y10571479D01*
X4170103Y10503938D02*
G01*
X4170103Y10555894D01*
X4242838Y10605770D02*
G01*
X4133735Y10605770D01*
X4242838Y10678505D02*
G01*
X4170103Y10605770D01*
X4196079Y10631746D02*
G01*
X4133735Y10678505D01*
X4242838Y10712795D02*
G01*
X4133735Y10712795D01*
X4242838Y10712795D02*
G01*
X4242838Y10780336D01*
X4190885Y10712795D02*
G01*
X4190885Y10754360D01*
X4133735Y10712795D02*
G01*
X4133735Y10780336D01*
X4242838Y10814626D02*
G01*
X4133735Y10814626D01*
X4242838Y10814626D02*
G01*
X4242838Y10861385D01*
X4237644Y10876973D01*
X4232447Y10882167D01*
X4222056Y10887364D01*
X4211665Y10887364D01*
X4201274Y10882167D01*
X4196079Y10876973D01*
X4190885Y10861385D01*
X4190885Y10814626D01*
X4190885Y10850994D02*
G01*
X4133735Y10887364D01*
X2501900Y12751815D02*
G01*
X2501900Y12642850D01*
X2501900Y12751815D02*
G01*
X2434336Y12751815D01*
X2501900Y12700000D02*
G01*
X2460243Y12700000D01*
X2501900Y12642850D02*
G01*
X2434336Y12642850D01*
X2327402Y12736321D02*
G01*
X2337815Y12746736D01*
X2353309Y12751815D01*
X2374138Y12751815D01*
X2389631Y12746736D01*
X2400045Y12736321D01*
X2400045Y12725908D01*
X2394965Y12715494D01*
X2389631Y12710160D01*
X2379218Y12705079D01*
X2348229Y12694665D01*
X2337815Y12689586D01*
X2332481Y12684252D01*
X2327402Y12673837D01*
X2327402Y12658344D01*
X2337815Y12647929D01*
X2353309Y12642850D01*
X2374138Y12642850D01*
X2389631Y12647929D01*
X2400045Y12658344D01*
X2293111Y12751815D02*
G01*
X2293111Y12642850D01*
X2293111Y12751815D02*
G01*
X2246375Y12751815D01*
X2230627Y12746736D01*
X2225547Y12741402D01*
X2220213Y12730987D01*
X2220213Y12715494D01*
X2225547Y12705079D01*
X2230627Y12700000D01*
X2246375Y12694665D01*
X2293111Y12694665D01*
X2160015Y12751815D02*
G01*
X2175509Y12746736D01*
X2180843Y12736321D01*
X2180843Y12725908D01*
X2175509Y12715494D01*
X2165350Y12710160D01*
X2144522Y12705079D01*
X2128774Y12700000D01*
X2118359Y12689586D01*
X2113279Y12679171D01*
X2113279Y12663424D01*
X2118359Y12653010D01*
X2123693Y12647929D01*
X2139188Y12642850D01*
X2160015Y12642850D01*
X2175509Y12647929D01*
X2180843Y12653010D01*
X2185924Y12663424D01*
X2185924Y12679171D01*
X2180843Y12689586D01*
X2170429Y12700000D01*
X2154936Y12705079D01*
X2134108Y12710160D01*
X2123693Y12715494D01*
X2118359Y12725908D01*
X2118359Y12736321D01*
X2123693Y12746736D01*
X2139188Y12751815D01*
X2160015Y12751815D01*
X2073909Y12725908D02*
G01*
X2073909Y12730987D01*
X2068575Y12741402D01*
X2063495Y12746736D01*
X2053081Y12751815D01*
X2032254Y12751815D01*
X2021840Y12746736D01*
X2016759Y12741402D01*
X2011425Y12730987D01*
X2011425Y12720574D01*
X2016759Y12710160D01*
X2026920Y12694665D01*
X2078990Y12642850D01*
X2006345Y12642850D01*
X1909571Y12736321D02*
G01*
X1914905Y12746736D01*
X1930400Y12751815D01*
X1940813Y12751815D01*
X1956308Y12746736D01*
X1966722Y12730987D01*
X1972056Y12705079D01*
X1972056Y12679171D01*
X1966722Y12658344D01*
X1956308Y12647929D01*
X1940813Y12642850D01*
X1935479Y12642850D01*
X1919986Y12647929D01*
X1909571Y12658344D01*
X1904492Y12673837D01*
X1904492Y12679171D01*
X1909571Y12694665D01*
X1919986Y12705079D01*
X1935479Y12710160D01*
X1940813Y12710160D01*
X1956308Y12705079D01*
X1966722Y12694665D01*
X1972056Y12679171D01*
X1807718Y12736321D02*
G01*
X1813052Y12746736D01*
X1828545Y12751815D01*
X1838960Y12751815D01*
X1854454Y12746736D01*
X1864868Y12730987D01*
X1870202Y12705079D01*
X1870202Y12679171D01*
X1864868Y12658344D01*
X1854454Y12647929D01*
X1838960Y12642850D01*
X1833879Y12642850D01*
X1818131Y12647929D01*
X1807718Y12658344D01*
X1802637Y12673837D01*
X1802637Y12679171D01*
X1807718Y12694665D01*
X1818131Y12705079D01*
X1833879Y12710160D01*
X1838960Y12710160D01*
X1854454Y12705079D01*
X1864868Y12694665D01*
X1870202Y12679171D01*
X1943087Y7570215D02*
G01*
X1943087Y7461250D01*
X1943087Y7570215D02*
G01*
X1896351Y7570215D01*
X1880857Y7565136D01*
X1875523Y7559802D01*
X1870443Y7549387D01*
X1870443Y7533894D01*
X1875523Y7523479D01*
X1880857Y7518400D01*
X1896351Y7513065D01*
X1943087Y7513065D01*
X1836153Y7570215D02*
G01*
X1809991Y7461250D01*
X1784083Y7570215D02*
G01*
X1809991Y7461250D01*
X1784083Y7570215D02*
G01*
X1758175Y7461250D01*
X1732267Y7570215D02*
G01*
X1758175Y7461250D01*
X1697977Y7570215D02*
G01*
X1697977Y7461250D01*
X1697977Y7570215D02*
G01*
X1650987Y7570215D01*
X1635493Y7565136D01*
X1630413Y7559802D01*
X1625079Y7549387D01*
X1625079Y7538973D01*
X1630413Y7528560D01*
X1635493Y7523479D01*
X1650987Y7518400D01*
X1697977Y7518400D01*
X1661401Y7518400D02*
G01*
X1625079Y7461250D01*
X3366515Y8580833D02*
G01*
X3257550Y8580833D01*
X3366515Y8653477D02*
G01*
X3257550Y8653477D01*
X3314700Y8580833D02*
G01*
X3314700Y8653477D01*
X3340608Y8693101D02*
G01*
X3345688Y8693101D01*
X3356102Y8698181D01*
X3361436Y8703515D01*
X3366515Y8713929D01*
X3366515Y8734503D01*
X3361436Y8744917D01*
X3356102Y8750251D01*
X3345688Y8755331D01*
X3335274Y8755331D01*
X3324859Y8750251D01*
X3309365Y8739837D01*
X3257550Y8687767D01*
X3257550Y8760665D01*
X2058415Y8578293D02*
G01*
X1980438Y8578293D01*
X1964943Y8583373D01*
X1954529Y8593787D01*
X1949450Y8609535D01*
X1949450Y8619949D01*
X1954529Y8635443D01*
X1964943Y8645857D01*
X1980438Y8650937D01*
X2058415Y8650937D01*
X2058415Y8737297D02*
G01*
X1985772Y8685227D01*
X1985772Y8763205D01*
X2058415Y8737297D02*
G01*
X1949450Y8737297D01*
X1942990Y9442416D02*
G01*
X1950262Y9449691D01*
X1961172Y9453326D01*
X1975718Y9453326D01*
X1986627Y9449691D01*
X1993900Y9442416D01*
X1993900Y9435144D01*
X1990262Y9427872D01*
X1986627Y9424235D01*
X1979353Y9420600D01*
X1957537Y9413326D01*
X1950262Y9409691D01*
X1946628Y9406054D01*
X1942990Y9398782D01*
X1942990Y9387873D01*
X1950262Y9380601D01*
X1961172Y9376963D01*
X1975718Y9376963D01*
X1986627Y9380601D01*
X1993900Y9387873D01*
X1918990Y9453326D02*
G01*
X1900809Y9376963D01*
X1882627Y9453326D02*
G01*
X1900809Y9376963D01*
X1882627Y9453326D02*
G01*
X1864446Y9376963D01*
X1846262Y9453326D02*
G01*
X1864446Y9376963D01*
X1822264Y9453326D02*
G01*
X1822264Y9376963D01*
X1772808Y9453326D02*
G01*
X1772808Y9376963D01*
X1798264Y9453326D02*
G01*
X1747354Y9453326D01*
X1668807Y9435144D02*
G01*
X1672445Y9442416D01*
X1679717Y9449691D01*
X1686991Y9453326D01*
X1701535Y9453326D01*
X1708807Y9449691D01*
X1716082Y9442416D01*
X1719717Y9435144D01*
X1723354Y9424235D01*
X1723354Y9406054D01*
X1719717Y9395145D01*
X1716082Y9387873D01*
X1708807Y9380601D01*
X1701535Y9376963D01*
X1686991Y9376963D01*
X1679717Y9380601D01*
X1672445Y9387873D01*
X1668807Y9395145D01*
X1644810Y9453326D02*
G01*
X1644810Y9376963D01*
X1593900Y9453326D02*
G01*
X1593900Y9376963D01*
X1644810Y9416963D02*
G01*
X1593900Y9416963D01*
X1566263Y9435144D02*
G01*
X1566263Y9438782D01*
X1562628Y9446054D01*
X1558991Y9449691D01*
X1551719Y9453326D01*
X1537172Y9453326D01*
X1529900Y9449691D01*
X1526263Y9446054D01*
X1522628Y9438782D01*
X1522628Y9431510D01*
X1526263Y9424235D01*
X1533535Y9413326D01*
X1569900Y9376963D01*
X1518991Y9376963D01*
X4229460Y9124480D02*
G01*
X4229460Y9005229D01*
X4000139Y9005229D01*
X4000139Y9124480D01*
X4229460Y9239719D02*
G01*
X4229460Y9358970D01*
X4000139Y9358970D01*
X4000139Y9239719D01*
X1460860Y10578630D02*
G01*
X1460860Y10459379D01*
X1231539Y10459379D01*
X1231539Y10578630D01*
X1460860Y10693869D02*
G01*
X1460860Y10813120D01*
X1231539Y10813120D01*
X1231539Y10693869D01*
X1041760Y10578630D02*
G01*
X1041760Y10459379D01*
X812439Y10459379D01*
X812439Y10578630D01*
X1041760Y10693869D02*
G01*
X1041760Y10813120D01*
X812439Y10813120D01*
X812439Y10693869D01*
D10*
X812800Y9144000D02*
G01*
X812800Y8153400D01*
X1041400Y8153400D01*
X1041400Y9144000D01*
X812800Y9144000D01*
D27*
X3594100Y9867900D02*
G01*
X3086100Y9867900D01*
X3594100Y9613900D02*
G01*
X3594100Y9867900D01*
X3594100Y9613900D02*
G01*
X3086100Y9613900D01*
X3086100Y9613900D02*
G01*
X3086100Y9867900D01*
D10*
X1079500Y11163300D02*
G01*
X1079500Y12484100D01*
X774700Y12484100D01*
X774700Y11163300D01*
X1079500Y11163300D01*
X1079500Y11442700D02*
G01*
X774700Y11442700D01*
D27*
X4064000Y11442700D02*
G01*
X4064000Y10934700D01*
X4318000Y11442700D02*
G01*
X4064000Y11442700D01*
X4318000Y11442700D02*
G01*
X4318000Y10934700D01*
X4318000Y10934700D02*
G01*
X4064000Y10934700D01*
D10*
X3154679Y10205720D02*
G01*
X3403600Y10205720D01*
X3403600Y10304779D01*
X2052320Y10205720D02*
G01*
X1803400Y10205720D01*
X1803400Y10304779D01*
X1803400Y11854179D02*
G01*
X1803400Y12054839D01*
X1803400Y12603479D01*
X3403600Y12603479D01*
X3403600Y12054839D01*
X3403600Y11854179D01*
X3403600Y12054839D02*
G01*
X1803400Y12054839D01*
D27*
X1562100Y7620000D02*
G01*
X2070100Y7620000D01*
X1562100Y7874000D02*
G01*
X1562100Y7620000D01*
X1562100Y7874000D02*
G01*
X2070100Y7874000D01*
X2070100Y7874000D02*
G01*
X2070100Y7620000D01*
D10*
X3403600Y9296400D02*
G01*
X3403600Y7975600D01*
X3708400Y7975600D01*
X3708400Y9296400D01*
X3403600Y9296400D01*
X3403600Y9017000D02*
G01*
X3708400Y9017000D01*
X1663700Y9131300D02*
G01*
X1663700Y8140700D01*
X1892300Y8140700D01*
X1892300Y9131300D01*
X1663700Y9131300D01*
D27*
X2006600Y9893300D02*
G01*
X1498600Y9893300D01*
X2006600Y9639300D02*
G01*
X2006600Y9893300D01*
X2006600Y9639300D02*
G01*
X1498600Y9639300D01*
X1498600Y9639300D02*
G01*
X1498600Y9893300D01*
D10*
G75*
G01
X3484880Y11904980D02*
G03X3484880Y11904980I-30480J0D01*
M02*
