G04 Layer: BottomSolderMaskLayer*
G04 EasyEDA v6.5.1, 2022-03-12 08:52:27*
G04 6cb43a7882b14878ba6e045dd811a198,81413e43fb254311a4bdf48f3ba91f1a,10*
G04 Gerber Generator version 0.2*
G04 Scale: 100 percent, Rotated: No, Reflected: No *
G04 Dimensions in millimeters *
G04 leading zeros omitted , absolute positions ,4 integer and 5 decimal *
%FSLAX45Y45*%
%MOMM*%

%ADD28C,1.6256*%
%ADD29C,1.6002*%
%ADD30R,1.6002X1.6002*%
%ADD32C,1.8016*%
%ADD33C,1.9016*%
%ADD37C,1.9812*%

%LPD*%
G36*
X4018025Y9023095D02*
G01*
X4018025Y9137142D01*
X4211574Y9137142D01*
X4211574Y9023095D01*
G37*
G36*
X4018025Y9227058D02*
G01*
X4018025Y9341104D01*
X4211574Y9341104D01*
X4211574Y9227058D01*
G37*
G36*
X1249426Y10477245D02*
G01*
X1249426Y10591292D01*
X1442973Y10591292D01*
X1442973Y10477245D01*
G37*
G36*
X1249426Y10681208D02*
G01*
X1249426Y10795254D01*
X1442973Y10795254D01*
X1442973Y10681208D01*
G37*
G36*
X830326Y10477245D02*
G01*
X830326Y10591292D01*
X1023873Y10591292D01*
X1023873Y10477245D01*
G37*
G36*
X830326Y10681208D02*
G01*
X830326Y10795254D01*
X1023873Y10795254D01*
X1023873Y10681208D01*
G37*
D28*
G01*
X927100Y9029700D03*
G01*
X927100Y8775700D03*
G01*
X927100Y8521700D03*
G01*
X927100Y8267700D03*
D29*
G01*
X3213100Y9740900D03*
G36*
X3387090Y9660889D02*
G01*
X3387090Y9820910D01*
X3547109Y9820910D01*
X3547109Y9660889D01*
G37*
G36*
X836929Y11225529D02*
G01*
X836929Y11405870D01*
X1017270Y11405870D01*
X1017270Y11225529D01*
G37*
D32*
G01*
X927100Y11569700D03*
G01*
X927100Y11823700D03*
G01*
X927100Y12077700D03*
G01*
X927100Y12331700D03*
D29*
G01*
X4191000Y11061700D03*
D30*
G01*
X4191000Y11315700D03*
G36*
X3227577Y11720321D02*
G01*
X3227577Y11830558D01*
X3457702Y11830558D01*
X3457702Y11720321D01*
G37*
G36*
X3227577Y11519662D02*
G01*
X3227577Y11629897D01*
X3457702Y11629897D01*
X3457702Y11519662D01*
G37*
G36*
X3227577Y11319002D02*
G01*
X3227577Y11429237D01*
X3457702Y11429237D01*
X3457702Y11319002D01*
G37*
G36*
X3227577Y11118342D02*
G01*
X3227577Y11228578D01*
X3457702Y11228578D01*
X3457702Y11118342D01*
G37*
G36*
X3227577Y10920221D02*
G01*
X3227577Y11030458D01*
X3457702Y11030458D01*
X3457702Y10920221D01*
G37*
G36*
X3227577Y10719562D02*
G01*
X3227577Y10829797D01*
X3457702Y10829797D01*
X3457702Y10719562D01*
G37*
G36*
X3227577Y10518902D02*
G01*
X3227577Y10629137D01*
X3457702Y10629137D01*
X3457702Y10518902D01*
G37*
G36*
X3227577Y10318242D02*
G01*
X3227577Y10428478D01*
X3457702Y10428478D01*
X3457702Y10318242D01*
G37*
G36*
X3048761Y10148315D02*
G01*
X3048761Y10308589D01*
X3158997Y10308589D01*
X3158997Y10148315D01*
G37*
G36*
X2848102Y10148315D02*
G01*
X2848102Y10308589D01*
X2958338Y10308589D01*
X2958338Y10148315D01*
G37*
G36*
X2647441Y10148315D02*
G01*
X2647441Y10308589D01*
X2757677Y10308589D01*
X2757677Y10148315D01*
G37*
G36*
X2449322Y10148315D02*
G01*
X2449322Y10308589D01*
X2559558Y10308589D01*
X2559558Y10148315D01*
G37*
G36*
X2248661Y10148315D02*
G01*
X2248661Y10308589D01*
X2358897Y10308589D01*
X2358897Y10148315D01*
G37*
G36*
X2048002Y10148315D02*
G01*
X2048002Y10308589D01*
X2158238Y10308589D01*
X2158238Y10148315D01*
G37*
G36*
X1749297Y10318242D02*
G01*
X1749297Y10428478D01*
X1979422Y10428478D01*
X1979422Y10318242D01*
G37*
G36*
X1749297Y10518902D02*
G01*
X1749297Y10629137D01*
X1979422Y10629137D01*
X1979422Y10518902D01*
G37*
G36*
X1749297Y10719562D02*
G01*
X1749297Y10829797D01*
X1979422Y10829797D01*
X1979422Y10719562D01*
G37*
G36*
X1749297Y10920221D02*
G01*
X1749297Y11030458D01*
X1979422Y11030458D01*
X1979422Y10920221D01*
G37*
G36*
X1749297Y11118342D02*
G01*
X1749297Y11228578D01*
X1979422Y11228578D01*
X1979422Y11118342D01*
G37*
G36*
X1749297Y11319002D02*
G01*
X1749297Y11429237D01*
X1979422Y11429237D01*
X1979422Y11319002D01*
G37*
G36*
X1749297Y11519662D02*
G01*
X1749297Y11629897D01*
X1979422Y11629897D01*
X1979422Y11519662D01*
G37*
G36*
X1749297Y11720321D02*
G01*
X1749297Y11830558D01*
X1979422Y11830558D01*
X1979422Y11720321D01*
G37*
D29*
G01*
X1943112Y7747000D03*
G36*
X1609089Y7666989D02*
G01*
X1609089Y7827010D01*
X1769110Y7827010D01*
X1769110Y7666989D01*
G37*
G36*
X3465829Y9053829D02*
G01*
X3465829Y9234170D01*
X3646170Y9234170D01*
X3646170Y9053829D01*
G37*
D32*
G01*
X3556000Y8890000D03*
G01*
X3556000Y8636000D03*
G01*
X3556000Y8382000D03*
G01*
X3556000Y8128000D03*
D28*
G01*
X1778000Y9017000D03*
G01*
X1778000Y8763000D03*
G01*
X1778000Y8509000D03*
G01*
X1778000Y8255000D03*
D29*
G01*
X1625600Y9766300D03*
G36*
X1799589Y9686289D02*
G01*
X1799589Y9846310D01*
X1959609Y9846310D01*
X1959609Y9686289D01*
G37*
D33*
G01*
X3014979Y9965944D03*
G01*
X3014979Y9515855D03*
G01*
X3665220Y9965944D03*
G01*
X3665220Y9515855D03*
G36*
X2054097Y12912344D02*
G01*
X2054097Y13110463D01*
X2252218Y13110463D01*
X2252218Y12912344D01*
G37*
D37*
G01*
X2407107Y13011378D03*
G01*
X2661107Y13011378D03*
G01*
X2915107Y13011378D03*
D33*
G01*
X1427479Y9965944D03*
G01*
X1427479Y9515855D03*
G01*
X2077720Y9965944D03*
G01*
X2077720Y9515855D03*
M02*
