solid ASCII
  facet normal -9.490056e-30 1.268826e-15 -1.000000e+00
    outer loop
      vertex   1.194911e+02 -5.411313e+01 9.935898e+00
      vertex   1.194911e+02 -5.551313e+01 9.935898e+00
      vertex   1.175911e+02 -5.411313e+01 9.935898e+00
    endloop
  endfacet
  facet normal -9.490056e-30 1.268826e-15 -1.000000e+00
    outer loop
      vertex   1.175911e+02 -5.411313e+01 9.935898e+00
      vertex   1.194911e+02 -5.551313e+01 9.935898e+00
      vertex   1.175911e+02 -5.551313e+01 9.935898e+00
    endloop
  endfacet
  facet normal 6.477348e-15 -8.660254e-01 5.000000e-01
    outer loop
      vertex   1.194911e+02 -5.551313e+01 9.935898e+00
      vertex   1.194911e+02 -5.351313e+01 1.340000e+01
      vertex   1.175911e+02 -5.551313e+01 9.935898e+00
    endloop
  endfacet
  facet normal 6.427607e-15 -8.660254e-01 5.000000e-01
    outer loop
      vertex   1.175911e+02 -5.551313e+01 9.935898e+00
      vertex   1.194911e+02 -5.351313e+01 1.340000e+01
      vertex   1.175911e+02 -5.351313e+01 1.340000e+01
    endloop
  endfacet
  facet normal -6.477348e-15 8.660254e-01 5.000000e-01
    outer loop
      vertex   1.194911e+02 -5.351313e+01 1.340000e+01
      vertex   1.194911e+02 -5.151313e+01 9.935898e+00
      vertex   1.175911e+02 -5.351313e+01 1.340000e+01
    endloop
  endfacet
  facet normal -3.155371e-15 8.660254e-01 5.000000e-01
    outer loop
      vertex   1.175911e+02 -5.351313e+01 1.340000e+01
      vertex   1.194911e+02 -5.151313e+01 9.935898e+00
      vertex   1.175911e+02 -5.151313e+01 9.935898e+00
    endloop
  endfacet
  facet normal -9.490056e-30 2.537653e-15 -1.000000e+00
    outer loop
      vertex   1.194911e+02 -5.151313e+01 9.935898e+00
      vertex   1.194911e+02 -5.291313e+01 9.935898e+00
      vertex   1.175911e+02 -5.151313e+01 9.935898e+00
    endloop
  endfacet
  facet normal -9.490056e-30 2.537653e-15 -1.000000e+00
    outer loop
      vertex   1.175911e+02 -5.151313e+01 9.935898e+00
      vertex   1.194911e+02 -5.291313e+01 9.935898e+00
      vertex   1.175911e+02 -5.291313e+01 9.935898e+00
    endloop
  endfacet
  facet normal -3.739699e-15 1.000000e+00 3.552714e-15
    outer loop
      vertex   1.194911e+02 -5.291313e+01 9.935898e+00
      vertex   1.194911e+02 -5.291313e+01 3.935898e+00
      vertex   1.175911e+02 -5.291313e+01 9.935898e+00
    endloop
  endfacet
  facet normal -7.479397e-15 1.000000e+00 2.368476e-15
    outer loop
      vertex   1.175911e+02 -5.291313e+01 9.935898e+00
      vertex   1.194911e+02 -5.291313e+01 3.935898e+00
      vertex   1.175911e+02 -5.291313e+01 3.935898e+00
    endloop
  endfacet
  facet normal 0.000000e+00 -0.000000e+00 -1.000000e+00
    outer loop
      vertex   1.194911e+02 -5.291313e+01 3.935898e+00
      vertex   1.194911e+02 -5.411313e+01 3.935898e+00
      vertex   1.175911e+02 -5.291313e+01 3.935898e+00
    endloop
  endfacet
  facet normal 0.000000e+00 0.000000e+00 -1.000000e+00
    outer loop
      vertex   1.175911e+02 -5.291313e+01 3.935898e+00
      vertex   1.194911e+02 -5.411313e+01 3.935898e+00
      vertex   1.175911e+02 -5.411313e+01 3.935898e+00
    endloop
  endfacet
  facet normal 7.479397e-15 -1.000000e+00 0.000000e+00
    outer loop
      vertex   1.194911e+02 -5.411313e+01 3.935898e+00
      vertex   1.194911e+02 -5.411313e+01 9.935898e+00
      vertex   1.175911e+02 -5.411313e+01 3.935898e+00
    endloop
  endfacet
  facet normal 7.479397e-15 -1.000000e+00 -1.771477e-29
    outer loop
      vertex   1.175911e+02 -5.411313e+01 3.935898e+00
      vertex   1.194911e+02 -5.411313e+01 9.935898e+00
      vertex   1.175911e+02 -5.411313e+01 9.935898e+00
    endloop
  endfacet
  facet normal -1.000000e+00 1.041026e-29 -4.102320e-15
    outer loop
      vertex   1.175911e+02 -5.151313e+01 9.935898e+00
      vertex   1.175911e+02 -5.291313e+01 9.935898e+00
      vertex   1.175911e+02 -5.351313e+01 1.340000e+01
    endloop
  endfacet
  facet normal -1.000000e+00 -1.184238e-14 -6.153481e-15
    outer loop
      vertex   1.175911e+02 -5.351313e+01 1.340000e+01
      vertex   1.175911e+02 -5.291313e+01 9.935898e+00
      vertex   1.175911e+02 -5.411313e+01 9.935898e+00
    endloop
  endfacet
  facet normal -1.000000e+00 -1.015061e-14 -6.446503e-15
    outer loop
      vertex   1.175911e+02 -5.351313e+01 1.340000e+01
      vertex   1.175911e+02 -5.411313e+01 9.935898e+00
      vertex   1.175911e+02 -5.551313e+01 9.935898e+00
    endloop
  endfacet
  facet normal -1.000000e+00 0.000000e+00 0.000000e+00
    outer loop
      vertex   1.175911e+02 -5.291313e+01 3.935898e+00
      vertex   1.175911e+02 -5.411313e+01 3.935898e+00
      vertex   1.175911e+02 -5.291313e+01 9.935898e+00
    endloop
  endfacet
  facet normal -1.000000e+00 -1.184238e-14 2.368476e-15
    outer loop
      vertex   1.175911e+02 -5.291313e+01 9.935898e+00
      vertex   1.175911e+02 -5.411313e+01 3.935898e+00
      vertex   1.175911e+02 -5.411313e+01 9.935898e+00
    endloop
  endfacet
  facet normal 1.000000e+00 0.000000e+00 0.000000e+00
    outer loop
      vertex   1.194911e+02 -5.151313e+01 9.935898e+00
      vertex   1.194911e+02 -5.351313e+01 1.340000e+01
      vertex   1.194911e+02 -5.291313e+01 9.935898e+00
    endloop
  endfacet
  facet normal 1.000000e+00 0.000000e+00 0.000000e+00
    outer loop
      vertex   1.194911e+02 -5.291313e+01 9.935898e+00
      vertex   1.194911e+02 -5.351313e+01 1.340000e+01
      vertex   1.194911e+02 -5.411313e+01 9.935898e+00
    endloop
  endfacet
  facet normal 1.000000e+00 0.000000e+00 0.000000e+00
    outer loop
      vertex   1.194911e+02 -5.291313e+01 9.935898e+00
      vertex   1.194911e+02 -5.411313e+01 9.935898e+00
      vertex   1.194911e+02 -5.411313e+01 3.935898e+00
    endloop
  endfacet
  facet normal 1.000000e+00 0.000000e+00 0.000000e+00
    outer loop
      vertex   1.194911e+02 -5.351313e+01 1.340000e+01
      vertex   1.194911e+02 -5.551313e+01 9.935898e+00
      vertex   1.194911e+02 -5.411313e+01 9.935898e+00
    endloop
  endfacet
  facet normal 1.000000e+00 0.000000e+00 0.000000e+00
    outer loop
      vertex   1.194911e+02 -5.411313e+01 3.935898e+00
      vertex   1.194911e+02 -5.291313e+01 3.935898e+00
      vertex   1.194911e+02 -5.291313e+01 9.935898e+00
    endloop
  endfacet
endsolid
